<?xml version="1.0" encoding="UTF-8" standalone="no"?><!DOCTYPE svg PUBLIC "-//W3C//DTD SVG 1.1//EN" "http://www.w3.org/Graphics/SVG/1.1/DTD/svg11.dtd"><svg width="100%" height="100%" viewBox="0 0 45 35" version="1.1" xmlns="http://www.w3.org/2000/svg" xmlns:xlink="http://www.w3.org/1999/xlink" xml:space="preserve" xmlns:serif="http://www.serif.com/" style="fill-rule:evenodd;clip-rule:evenodd;stroke-linejoin:round;stroke-miterlimit:2;"><g id="arrowAccent"><rect x="0.526" y="15.068" width="41.817" height="4.938" style="fill:#00bcff;"/><g><path d="M43.679,19.283c0.963,-0.963 0.963,-2.528 -0,-3.491l-14.308,-14.308c-0.964,-0.964 -2.528,-0.964 -3.492,-0c-0.963,0.963 -0.963,2.528 0,3.491l14.308,14.308c0.964,0.964 2.528,0.964 3.492,0Z" style="fill:#00bcff;"/><path d="M25.879,33.59c-0.963,-0.964 -0.963,-2.528 0,-3.492l14.308,-14.307c0.964,-0.964 2.528,-0.964 3.492,-0c0.963,0.963 0.963,2.528 -0,3.491l-14.308,14.308c-0.964,0.963 -2.528,0.963 -3.492,-0Z" style="fill:#00bcff;"/></g></g></svg>