<?xml version="1.0" encoding="UTF-8" standalone="no"?><!DOCTYPE svg PUBLIC "-//W3C//DTD SVG 1.1//EN" "http://www.w3.org/Graphics/SVG/1.1/DTD/svg11.dtd"><svg width="100%" height="100%" viewBox="0 0 1255 284" version="1.1" xmlns="http://www.w3.org/2000/svg" xmlns:xlink="http://www.w3.org/1999/xlink" xml:space="preserve" xmlns:serif="http://www.serif.com/" style="fill-rule:evenodd;clip-rule:evenodd;stroke-linejoin:round;stroke-miterlimit:2;"><g id="logo"><rect x="139.19" y="168.486" width="21.086" height="83.609" style="fill:#00bcff;"/><path d="M330.386,192.453c-0.869,-0.438 -7.666,-4.473 -17.745,-4.473c-13.665,-0 -23.107,9.506 -23.107,22.302c0,12.416 9.056,22.315 23.107,22.315c9.905,-0 16.831,-3.946 17.745,-4.428l-0,22.437c-2.652,0.759 -9.867,2.973 -19.239,2.973c-23.724,0 -44.539,-16.348 -44.539,-43.297c-0,-24.967 18.852,-43.259 44.539,-43.259c9.9,-0 17.231,2.401 19.239,2.986l-0,22.444Z" style="fill:#00bcff;fill-rule:nonzero;"/><path d="M110.18,192.453c-0.856,-0.438 -7.64,-4.473 -17.719,-4.473c-13.664,-0 -23.113,9.506 -23.113,22.302c-0,12.416 9.05,22.315 23.113,22.315c9.918,-0 16.799,-3.946 17.719,-4.428l0,22.437c-2.639,0.759 -9.809,2.973 -19.244,2.973c-23.699,0 -44.502,-16.348 -44.502,-43.297c0,-24.967 18.84,-43.259 44.502,-43.259c9.924,-0 17.268,2.401 19.244,2.986l0,22.444Z" style="fill:#00bcff;fill-rule:nonzero;"/><path d="M396.751,188.307c-12.519,0 -21.82,9.835 -21.82,21.974c0,12.171 9.301,22.013 21.82,22.013c12.499,-0 21.819,-9.842 21.819,-22.013c0,-12.139 -9.32,-21.974 -21.819,-21.974m44.166,21.974c0,23.911 -18.453,43.298 -44.166,43.298c-25.726,-0 -44.16,-19.387 -44.16,-43.298c-0,-23.866 18.434,-43.259 44.16,-43.259c25.713,0 44.166,19.393 44.166,43.259" style="fill:#00bcff;fill-rule:nonzero;"/><path d="M240.284,187.498c-0.316,-0.09 -9.205,-2.561 -16.497,-2.561c-8.451,-0 -13.034,2.845 -13.034,6.861c0,5.091 6.192,6.867 9.655,7.962l5.831,1.847c13.678,4.351 19.921,13.735 19.921,23.917c-0,21.009 -18.472,28.05 -34.615,28.05c-11.219,0 -21.71,-2.066 -22.765,-2.265l-0,-19.239c1.86,0.464 10.716,3.09 19.927,3.09c10.497,-0 15.312,-3.045 15.312,-7.808c-0,-4.228 -4.171,-6.668 -9.397,-8.309c-1.288,-0.438 -3.199,-1.03 -4.512,-1.461c-11.734,-3.707 -21.556,-10.62 -21.556,-24.465c0,-15.627 11.727,-26.131 31.172,-26.131c10.279,-0 19.933,2.49 20.558,2.658l-0,17.854Z" style="fill:#00bcff;fill-rule:nonzero;"/><path d="M24.056,78.658c-0,-5.774 -4.699,-10.446 -10.472,-10.446c-5.761,-0 -10.492,4.672 -10.492,10.446l0,21.929c0,5.818 4.731,10.472 10.492,10.472c5.773,-0 10.472,-4.654 10.472,-10.472l-0,-21.929Z" style="fill:#00bcff;fill-rule:nonzero;"/><path d="M81.59,49.838c-0,-5.747 -4.699,-10.433 -10.485,-10.433c-5.76,-0 -10.459,4.686 -10.459,10.433l-0,50.751c-0,5.812 4.699,10.466 10.459,10.466c5.786,-0 10.485,-4.654 10.485,-10.466l-0,-50.751Z" style="fill:#00bcff;fill-rule:nonzero;"/><path d="M139.109,10.433c-0,-5.773 -4.712,-10.433 -10.466,-10.433c-5.773,-0 -10.478,4.66 -10.478,10.433l-0,111.022c-0,5.792 4.705,10.472 10.478,10.472c5.754,-0 10.466,-4.68 10.466,-10.472l-0,-111.022Z" style="fill:#00bcff;fill-rule:nonzero;"/><path d="M196.641,49.838c-0,-5.747 -4.692,-10.433 -10.466,-10.433c-5.767,-0 -10.472,4.686 -10.472,10.433l0,50.751c0,5.812 4.705,10.466 10.472,10.466c5.774,-0 10.466,-4.654 10.466,-10.466l-0,-50.751Z" style="fill:#00bcff;fill-rule:nonzero;"/><path d="M254.114,78.658c0,-5.774 -4.686,-10.446 -10.408,-10.446c-5.786,-0 -10.491,4.672 -10.491,10.446l0,21.929c0,5.818 4.705,10.472 10.491,10.472c5.722,-0 10.408,-4.654 10.408,-10.472l0,-21.929Z" style="fill:#00bcff;fill-rule:nonzero;"/><path d="M311.675,49.838c-0,-5.747 -4.68,-10.433 -10.453,-10.433c-5.748,-0 -10.44,4.686 -10.44,10.433l0,50.751c0,5.812 4.692,10.466 10.44,10.466c5.773,-0 10.453,-4.654 10.453,-10.466l-0,-50.751Z" style="fill:#00bcff;fill-rule:nonzero;"/><path d="M369.242,10.433c-0,-5.773 -4.673,-10.433 -10.453,-10.433c-5.754,-0 -10.446,4.66 -10.446,10.433l-0,111.022c-0,5.792 4.692,10.472 10.446,10.472c5.78,-0 10.453,-4.68 10.453,-10.472l-0,-111.022Z" style="fill:#00bcff;fill-rule:nonzero;"/><path d="M426.798,49.838c-0,-5.747 -4.692,-10.433 -10.588,-10.433c-5.754,-0 -10.427,4.686 -10.427,10.433l-0,50.751c-0,5.812 4.673,10.466 10.427,10.466c5.896,-0 10.588,-4.654 10.588,-10.466l-0,-50.751Z" style="fill:#00bcff;fill-rule:nonzero;"/><path d="M484.242,78.658c-0,-5.774 -4.699,-10.446 -10.453,-10.446c-5.773,-0 -10.446,4.672 -10.446,10.446l-0,21.929c-0,5.818 4.673,10.472 10.446,10.472c5.754,-0 10.453,-4.654 10.453,-10.472l-0,-21.929Z" style="fill:#00bcff;fill-rule:nonzero;"/><path d="M472.15,241.092l-0,1.293l-3.708,0l0,9.713l-1.544,-0l-0,-9.713l-3.746,0l-0,-1.293l8.998,-0Z" style="fill:#00bcff;fill-rule:nonzero;"/><path d="M472.949,241.092l2.395,-0l3.282,9.004l0.058,0l3.199,-9.004l2.362,-0l0,11.006l-1.583,-0l-0,-9.031l-0.045,0l-3.354,9.031l-1.454,-0l-3.27,-9.031l-0.052,0l0,9.031l-1.538,-0l0,-11.006Z" style="fill:#00bcff;fill-rule:nonzero;"/><path d="M641.162,5.542l0,100.639l-9.223,0l-59.968,-90.573l0,90.573l-7.408,0l-0,-100.639l9.648,-0l59.826,90.019l0,-90.019l7.125,-0Z" style="fill:#00bcff;fill-rule:nonzero;"/><path d="M723.909,86.336c-3.495,13.279 -14.675,21.942 -30.193,21.942c-19.708,0 -34.525,-13.555 -34.525,-38.438c0,-24.883 14.398,-38.438 33.128,-38.438c18.588,-0 32.845,12.583 32.845,40.253l-58.288,-0c0.702,20.687 12.442,30.2 26.981,30.2c10.904,-0 19.29,-5.877 22.084,-15.519l7.968,0Zm-56.891,-20.969l50.319,-0c-0.978,-18.589 -11.463,-27.812 -25.018,-27.812c-13.278,0 -23.898,9.642 -25.301,27.812" style="fill:#00bcff;fill-rule:nonzero;"/><path d="M753.545,40.07l-0,51.575c-0,6.99 3.63,10.208 9.506,10.208c2.652,0 5.027,-0.141 8.805,-1.12l0,6.147c-3.36,0.985 -6.295,1.403 -9.23,1.403c-10.484,0 -16.631,-5.876 -16.631,-16.773l-0,-51.44l-10.485,0l-0,-6.571l10.485,-0l0.418,-17.469l7.132,0l-0,17.469l16.914,-0l0,6.571l-16.914,0Z" style="fill:#00bcff;fill-rule:nonzero;"/><path d="M879.061,33.498l-20.969,72.686l-9.082,-0l-20.41,-65.001l-19.29,65.001l-9.365,-0l-22.225,-72.686l7.685,-0l19.432,64.994l19.29,-64.994l9.506,-0l19.985,64.717l18.035,-64.717l7.408,-0Z" style="fill:#00bcff;fill-rule:nonzero;"/><path d="M920.57,31.403c19.29,0 33.411,13.002 33.411,38.438c0,25.302 -14.121,38.438 -33.269,38.438c-19.007,0 -33.688,-13.42 -33.688,-38.438c-0,-25.578 14.681,-38.438 33.546,-38.438m0,70.73c14.958,-0 25.578,-10.904 25.578,-32.292c0,-21.523 -10.761,-32.285 -25.578,-32.285c-14.816,0 -25.72,10.897 -25.72,32.285c0,21.388 11.187,32.292 25.72,32.292" style="fill:#00bcff;fill-rule:nonzero;"/><path d="M971.311,106.183l-0,-72.686l6.153,-0l1.12,13.98c3.913,-11.039 11.321,-16.072 20.403,-16.072c2.935,0 5.877,0.554 7.55,1.12l0,7.402c-2.517,-0.695 -5.033,-1.255 -7.968,-1.255c-10.627,-0 -19.708,10.343 -19.708,27.811l-0,39.7l-7.55,-0Z" style="fill:#00bcff;fill-rule:nonzero;"/><path d="M1018.97,106.183l-0,-100.639l7.55,-0l-0,57.592l34.808,-29.639l10.201,-0l-37.324,31.731l41.933,40.955l-10.202,-0l-39.416,-38.438l-0,38.438l-7.55,-0Z" style="fill:#00bcff;fill-rule:nonzero;"/><path d="M1086.49,5.542l9.081,0l0,10.35l-9.081,0l-0,-10.35Zm0.695,27.954l7.55,-0l-0,72.686l-7.55,-0l-0,-72.686Z" style="fill:#00bcff;fill-rule:nonzero;"/><path d="M1116.25,106.183l-0,-72.686l6.288,-0l0.843,12.441c5.034,-9.5 14.257,-14.533 24.182,-14.533c15.377,0 25.16,9.5 25.16,25.301l-0,49.477l-7.55,-0l-0,-49.2c-0,-12.165 -7.125,-19.148 -19.29,-19.148c-10.903,0 -22.083,8.947 -22.083,23.203l-0,45.145l-7.55,-0Z" style="fill:#00bcff;fill-rule:nonzero;"/><path d="M1200.54,112.891c1.815,9.925 10.485,14.398 21.807,14.398c14.675,0 23.203,-8.528 23.203,-21.806l-0,-15.795c-4.615,8.251 -13.278,13.98 -25.301,13.98c-16.355,-0 -30.895,-12.442 -30.895,-35.645c-0,-23.48 13.703,-36.623 31.178,-36.623c11.74,-0 20.686,5.87 25.295,14.816l1.12,-12.718l6.146,0l0,72.268c0,15.795 -11.321,27.676 -30.469,27.676c-16.632,0 -27.535,-7.408 -30.052,-20.551l7.968,-0Zm21.105,-15.653c13.002,-0 24.607,-7.969 24.607,-29.357c-0,-20.403 -10.627,-30.051 -24.607,-30.051c-13.555,-0 -24.458,9.506 -24.458,30.193c0,19.007 10.903,29.215 24.458,29.215" style="fill:#00bcff;fill-rule:nonzero;"/><path d="M635.852,252.689l-11.321,-28.513l-50.88,0l-11.322,28.513l-8.245,0l40.395,-100.639l9.783,-0l40.26,100.639l-8.67,0Zm-59.549,-35.084l45.711,-0l-22.643,-58.012l-23.068,58.012Z" style="fill:#00bcff;fill-rule:nonzero;"/><path d="M713.008,231.302c-2.234,13.562 -13.832,23.487 -30.052,23.487c-18.028,-0 -32.291,-13.143 -32.291,-37.885c-0,-25.72 14.398,-38.991 32.433,-38.991c15.511,-0 27.116,8.663 29.491,22.218l-8.245,0c-1.821,-9.642 -9.925,-15.93 -20.969,-15.93c-13.98,-0 -24.877,10.62 -24.877,32.986c-0,21.382 11.315,31.172 24.741,31.172c11.322,-0 19.985,-6.855 21.8,-17.057l7.969,0Z" style="fill:#00bcff;fill-rule:nonzero;"/><path d="M728.244,198.875c1.12,-12.442 12.158,-20.964 28.236,-20.964c16.214,0 26.975,9.082 26.975,23.899l0,50.879l-6.153,0l-1.113,-12.016c-4.474,7.543 -12.725,14.115 -25.72,14.115c-14.122,-0 -24.323,-7.686 -24.323,-20.545c-0,-12.442 7.549,-19.992 27.959,-23.345l21.8,-3.637l0,-6.288c0,-10.485 -7.408,-16.915 -19.843,-16.915c-11.605,0 -19.013,6.012 -19.991,14.817l-7.827,-0Zm47.661,27.953l0,-13.555l-19.566,3.353c-17.333,2.935 -22.367,8.387 -22.367,17.05c0,9.79 7.55,14.682 18.453,14.682c11.605,-0 23.48,-8.805 23.48,-21.53" style="fill:#00bcff;fill-rule:nonzero;"/><path d="M857.674,252.689l-1.261,-13.838c-4.609,9.365 -13.414,15.937 -25.578,15.937c-16.774,-0 -30.747,-12.584 -30.747,-37.743c0,-26.274 13.838,-39.134 31.172,-39.134c11.739,0 20.544,6.147 25.018,14.952l-0,-40.813l7.55,-0l-0,100.639l-6.154,0Zm-25.301,-4.331c12.583,-0 24.606,-9.365 24.606,-32.009c0,-21.246 -10.491,-32.008 -24.606,-32.008c-13.555,0 -24.458,10.344 -24.458,32.704c-0,21.246 10.761,31.313 24.458,31.313" style="fill:#00bcff;fill-rule:nonzero;"/><path d="M945.871,232.839c-3.495,13.278 -14.681,21.948 -30.193,21.948c-19.708,-0 -34.525,-13.562 -34.525,-38.438c0,-24.883 14.398,-38.438 33.128,-38.438c18.588,-0 32.845,12.576 32.845,40.253l-58.288,-0c0.702,20.686 12.442,30.193 26.981,30.193c10.904,-0 19.29,-5.87 22.084,-15.518l7.968,-0Zm-56.891,-20.964l50.319,0c-0.978,-18.588 -11.456,-27.818 -25.018,-27.818c-13.278,0 -23.905,9.649 -25.301,27.818" style="fill:#00bcff;fill-rule:nonzero;"/><path d="M965.156,252.689l0,-72.686l6.289,0l0.843,11.322c4.891,-9.365 13.838,-13.414 22.366,-13.414c10.897,0 18.588,5.034 21.659,14.392c4.898,-10.202 14.823,-14.392 23.769,-14.392c14.534,0 23.48,8.947 23.48,24.877l0,49.901l-7.55,0l0,-49.476c0,-13.008 -6.43,-18.872 -17.468,-18.872c-12.023,0 -20.41,10.344 -20.41,23.339l0,45.009l-7.55,0l0,-49.476c0,-12.867 -6.146,-18.872 -17.191,-18.872c-11.882,0 -20.687,10.202 -20.687,23.203l0,45.145l-7.55,0Z" style="fill:#00bcff;fill-rule:nonzero;"/><path d="M1115.14,253.247c-6.99,19.85 -9.783,26.698 -20.262,26.698c-2.516,0 -5.033,-0.56 -7.55,-1.396l0,-6.153c2.375,0.843 5.034,1.261 7.125,1.261c6.289,0 8.11,-5.175 13.42,-20.97l-2.935,0l-28.931,-72.679l8.103,-0l26.003,66.809l23.062,-66.809l7.55,-0l-25.585,73.239Z" style="fill:#00bcff;fill-rule:nonzero;"/></g></svg>