<?xml version="1.0" encoding="UTF-8" standalone="no"?><!DOCTYPE svg PUBLIC "-//W3C//DTD SVG 1.1//EN" "http://www.w3.org/Graphics/SVG/1.1/DTD/svg11.dtd"><svg width="100%" height="100%" viewBox="0 0 188 142" version="1.1" xmlns="http://www.w3.org/2000/svg" xmlns:xlink="http://www.w3.org/1999/xlink" xml:space="preserve" xmlns:serif="http://www.serif.com/" style="fill-rule:evenodd;clip-rule:evenodd;stroke-linejoin:round;stroke-miterlimit:2;"><g id="arrow"><rect x="2.336" y="61.101" width="174.238" height="20.574" style="fill:#0e274d;"/><g><path d="M182.14,78.664c4.014,-4.015 4.014,-10.533 -0,-14.548l-59.616,-59.615c-4.014,-4.015 -10.533,-4.015 -14.548,-0c-4.014,4.014 -4.014,10.533 0,14.548l59.616,59.615c4.014,4.015 10.533,4.015 14.548,0Z" style="fill:#0e274d;"/><path d="M107.976,138.275c-4.014,-4.014 -4.014,-10.533 0,-14.547l59.616,-59.616c4.014,-4.014 10.533,-4.014 14.548,0c4.014,4.015 4.014,10.533 -0,14.548l-59.616,59.615c-4.014,4.015 -10.533,4.015 -14.548,0Z" style="fill:#0e274d;"/></g></g></svg>