<?xml version="1.0" encoding="UTF-8" standalone="no"?><!DOCTYPE svg PUBLIC "-//W3C//DTD SVG 1.1//EN" "http://www.w3.org/Graphics/SVG/1.1/DTD/svg11.dtd"><svg width="100%" height="100%" viewBox="0 0 1146 378" version="1.1" xmlns="http://www.w3.org/2000/svg" xmlns:xlink="http://www.w3.org/1999/xlink" xml:space="preserve" xmlns:serif="http://www.serif.com/" style="fill-rule:evenodd;clip-rule:evenodd;stroke-linejoin:round;stroke-miterlimit:2;"><g id="C--" serif:id="C++"><g><clipPath id="_clip1"><path d="M673.961,227.613l0,-70.01l-584.967,0l0,70.01l584.967,-0Z"/></clipPath><g clip-path="url(#_clip1)"><path d="M623.764,196.857l0,-8.56l40.893,0.08l0,8.56l-40.893,-0.08Zm-108.59,-0.204l0,-8.56l54.317,0.102l-0.044,8.56l-54.273,-0.102Zm-108.634,-0.204l0.044,-8.564l54.273,0.102l0,8.564l-54.317,-0.102Zm-108.59,-0.208l-0,-8.56l54.317,0.102l0,8.564l-54.317,-0.106Zm-108.59,-0.208l0,-8.56l54.317,0.106l-0.044,8.56l-54.273,-0.106Zm-108.634,-0.204l0.044,-8.56l54.273,0.102l-0,8.56l-54.317,-0.102Zm-108.59,-0.204l-0,-8.559l54.317,0.097l-0,8.56l-54.317,-0.098Zm-108.59,-0.208l-0,-8.564l54.317,0.106l-0.044,8.564l-54.273,-0.106Zm-108.634,-0.204l0.044,-8.56l54.273,0.098l-0,8.56l-54.317,-0.098Zm-108.59,-0.208l0.044,-8.564l54.273,0.106l-0,8.56l-54.317,-0.102Zm-108.59,-0.208l-0,-8.56l54.317,0.106l-0.045,8.56l-54.272,-0.106Zm-108.59,-0.204l-0,-8.564l54.317,0.106l-0.045,8.56l-54.272,-0.102Zm-108.635,-0.208l0.045,-8.56l54.272,0.102l0,8.564l-54.317,-0.106" style="fill:#e8ebf1;fill-rule:nonzero;"/><path d="M636.214,227.613l-5.848,-6.282l31.013,-28.67l-30.925,-28.798l5.893,-6.26l37.614,35.08l-37.747,34.93" style="fill:#e8ebf1;fill-rule:nonzero;"/></g></g><g><path d="M353.369,203.06c-0.186,96.683 -78.604,174.893 -175.155,174.713c-96.551,-0.18 -174.675,-78.691 -174.492,-175.381c0.184,-96.68 78.602,-174.908 175.156,-174.725c96.551,0.183 174.674,78.709 174.491,175.393" style="fill:#e8ebf1;fill-rule:nonzero;"/><g><path d="M394.09,79.561c15.849,0.105 28.844,-12.725 28.983,-28.61c0.138,-16.063 -12.62,-29.094 -28.613,-29.23c-16.009,-0.135 -29.034,12.719 -29.115,28.728c-0.079,16.066 12.7,29.007 28.745,29.112Zm0.355,-78.743c2.43,3.888 4.858,7.776 7.373,11.805c3.87,-2.692 7.623,-5.303 11.535,-8.028c0.835,4.696 1.634,9.185 2.457,13.812c4.589,-0.994 9.011,-1.95 13.669,-2.959c-1.01,4.621 -1.983,9.068 -2.99,13.689c4.579,0.832 9.065,1.646 13.758,2.5c-2.698,3.876 -5.315,7.629 -8.01,11.495c3.93,2.536 7.776,5.024 11.76,7.596c-3.954,2.539 -7.809,5.012 -11.787,7.563c2.662,3.849 5.267,7.614 7.968,11.52c-4.666,0.829 -9.158,1.628 -13.782,2.448c0.988,4.583 1.95,9.044 2.956,13.702c-4.44,-0.974 -8.71,-1.908 -13.25,-2.903c5.351,15.567 10.6,30.849 15.979,46.506c-6.361,-4.711 -12.422,-9.2 -18.659,-13.821c-2.212,7.49 -4.369,14.794 -6.526,22.099l-0.286,-0.003c-4.134,-12.025 -8.265,-24.046 -12.496,-36.35c-4.279,12.286 -8.461,24.292 -12.64,36.305l-0.292,-0.012c-2.118,-7.287 -4.236,-14.576 -6.43,-22.112c-6.213,4.57 -12.304,9.05 -18.713,13.762c5.424,-15.591 10.727,-30.84 16.153,-46.44c-4.507,0.964 -8.767,1.872 -13.25,2.83c1.006,-4.594 1.983,-9.047 2.998,-13.671c-4.552,-0.832 -9.05,-1.652 -13.773,-2.515c2.695,-3.858 5.309,-7.595 8.022,-11.48c-3.906,-2.527 -7.745,-5.009 -11.766,-7.614c3.972,-2.539 7.809,-5 11.791,-7.545c-2.648,-3.828 -5.247,-7.589 -7.972,-11.529c4.636,-0.823 9.119,-1.619 13.773,-2.448c-0.976,-4.543 -1.935,-9.005 -2.941,-13.689c4.606,1.009 9.056,1.98 13.662,2.989c0.835,-4.597 1.644,-9.062 2.5,-13.779c3.879,2.707 7.644,5.339 11.517,8.046c2.533,-4.014 4.978,-7.893 7.424,-11.772l0.268,0.003" style="fill:#e8ebf1;fill-rule:nonzero;"/><path d="M402.68,65.926l-8.488,-6.25l-8.512,6.217l1.157,-10.484l-9.63,-4.275l9.648,-4.24l-1.118,-10.492l8.488,6.25l8.512,-6.217l-1.159,10.486l9.632,4.276l-9.647,4.236l1.117,10.493Zm-8.413,-39.764c-13.43,-0.036 -24.491,10.979 -24.521,24.413c-0.027,13.446 10.958,24.497 24.398,24.542c13.413,0.045 24.515,-11.009 24.527,-24.419c0.015,-13.455 -10.97,-24.5 -24.404,-24.536" style="fill:#e8ebf1;fill-rule:nonzero;"/></g><g><path d="M138.194,184.362l-0.03,0c-2.699,-0.006 -5.159,-0.477 -7.378,-1.418c-2.219,-0.939 -4.108,-2.292 -5.668,-4.055c-1.559,-1.763 -2.759,-3.911 -3.598,-6.445c-0.87,-2.528 -1.29,-5.392 -1.29,-8.582c0,-3.374 0.48,-6.352 1.41,-8.937c0.899,-2.585 2.189,-4.754 3.808,-6.511c1.59,-1.757 3.509,-3.083 5.728,-3.979c2.219,-0.885 4.618,-1.332 7.228,-1.332l0.059,0c2.25,0.003 4.319,0.339 6.238,0.999c1.92,0.665 3.599,1.583 5.038,2.759c1.44,1.178 2.609,2.564 3.509,4.165c0.9,1.593 1.47,3.35 1.68,5.257l-4.349,-0.009c-0.51,-3.008 -1.829,-5.347 -3.988,-7.023c-2.16,-1.671 -4.889,-2.513 -8.128,-2.519l-0.03,-0c-1.979,-0 -3.778,0.363 -5.458,1.091c-1.709,0.729 -3.148,1.806 -4.378,3.239c-1.229,1.425 -2.219,3.212 -2.909,5.356c-0.69,2.144 -1.05,4.631 -1.05,7.453c0,2.639 0.33,5.005 0.99,7.098c0.69,2.093 1.62,3.854 2.819,5.287c1.23,1.431 2.639,2.528 4.319,3.281c1.649,0.756 3.478,1.133 5.458,1.139l0.03,0c1.679,0 3.238,-0.251 4.678,-0.761c1.439,-0.51 2.699,-1.23 3.749,-2.169c1.079,-0.932 1.949,-2.054 2.639,-3.376c0.659,-1.317 1.079,-2.768 1.229,-4.343l4.349,0.009c-0.18,1.944 -0.69,3.776 -1.56,5.497c-0.84,1.722 -1.979,3.242 -3.419,4.562c-1.469,1.316 -3.179,2.354 -5.158,3.125c-1.979,0.761 -4.168,1.142 -6.567,1.142" style="fill:#0e274d;fill-rule:nonzero;"/><path d="M175.77,177.225l-3.929,-0.003l0.03,-9.465l-9.386,-0.018l-0,-3.686l9.386,0.015l0.03,-9.512l3.899,0.006l-0.03,9.512l9.357,0.018l-0,3.689l-9.357,-0.018l-0,9.462" style="fill:#0e274d;fill-rule:nonzero;"/><path d="M208.728,177.291l-3.899,-0.009l0,-9.462l-9.386,-0.021l-0,-3.686l9.416,0.018l0,-9.515l3.899,0.009l0,9.515l9.327,0.018l-0,3.686l-9.357,-0.015l0,9.462" style="fill:#0e274d;fill-rule:nonzero;"/><path d="M83.253,249.448l-24.021,-0.045l0.06,-39.607l24.021,0.042l0,3.686l-19.732,-0.036l-0.03,13.974l18.143,0.033l0,3.632l-18.143,-0.033l-0.03,14.632l19.732,0.036l0,3.686" style="fill:#0e274d;fill-rule:nonzero;"/><path d="M99.897,250.308c-3.478,-0.009 -6.267,-0.804 -8.337,-2.384c-2.069,-1.58 -3.238,-3.692 -3.538,-6.334l4.198,0.009c0.27,1.761 1.08,3.101 2.399,4.022c1.32,0.921 3.089,1.382 5.338,1.385l0.03,0c2.4,0 4.199,-0.512 5.428,-1.529c1.23,-1.026 1.86,-2.234 1.86,-3.629c-0,-0.881 -0.21,-1.622 -0.57,-2.228c-0.39,-0.609 -0.96,-1.131 -1.679,-1.571c-0.75,-0.444 -1.65,-0.822 -2.759,-1.131c-1.08,-0.318 -2.37,-0.624 -3.839,-0.918c-3.119,-0.629 -5.458,-1.586 -6.987,-2.873c-1.56,-1.286 -2.34,-3.031 -2.34,-5.233c0,-2.312 0.93,-4.195 2.729,-5.662c1.8,-1.454 4.499,-2.186 8.007,-2.186l0.06,0c3.089,0.009 5.668,0.738 7.708,2.189c2.039,1.455 3.268,3.446 3.688,5.977l-4.168,-0.009c-0.3,-1.466 -1.08,-2.648 -2.339,-3.551c-1.26,-0.902 -2.939,-1.355 -5.009,-1.361l-0.029,-0c-2.22,-0 -3.839,0.411 -4.889,1.233c-1.049,0.821 -1.589,1.82 -1.589,2.995c-0,0.66 0.12,1.248 0.33,1.761c0.24,0.513 0.6,0.971 1.169,1.379c0.54,0.399 1.29,0.762 2.249,1.074c0.93,0.312 2.13,0.621 3.569,0.918c1.74,0.368 3.299,0.785 4.649,1.244c1.349,0.459 2.489,1.038 3.418,1.74c0.9,0.695 1.59,1.526 2.07,2.48c0.479,0.95 0.719,2.111 0.719,3.469c0,1.206 -0.27,2.346 -0.779,3.407c-0.51,1.065 -1.26,1.985 -2.25,2.774c-0.989,0.786 -2.219,1.41 -3.628,1.862c-1.44,0.453 -3.059,0.681 -4.889,0.681" style="fill:#0e274d;fill-rule:nonzero;"/><path d="M127.248,250.359l-0.06,0c-3.479,-0.006 -6.238,-0.801 -8.307,-2.384c-2.07,-1.58 -3.239,-3.692 -3.539,-6.331l4.168,0.009c0.3,1.758 1.11,3.101 2.429,4.019c1.29,0.918 3.089,1.382 5.309,1.385l0.03,0c2.399,0 4.228,-0.509 5.428,-1.529c1.259,-1.026 1.859,-2.234 1.859,-3.629c-0,-0.878 -0.18,-1.619 -0.57,-2.228c-0.39,-0.606 -0.93,-1.128 -1.679,-1.571c-0.72,-0.444 -1.65,-0.819 -2.729,-1.134c-1.11,-0.312 -2.399,-0.618 -3.869,-0.915c-3.089,-0.629 -5.428,-1.589 -6.987,-2.873c-1.56,-1.286 -2.34,-3.031 -2.31,-5.233c0,-2.309 0.9,-4.198 2.729,-5.659c1.8,-1.457 4.469,-2.186 8.008,-2.186l0.03,0c3.118,0.006 5.698,0.735 7.707,2.189c2.039,1.452 3.269,3.443 3.718,5.974l-4.198,-0.006c-0.27,-1.472 -1.05,-2.651 -2.309,-3.551c-1.26,-0.905 -2.939,-1.358 -5.038,-1.361l-0.03,-0c-2.22,-0 -3.839,0.411 -4.889,1.23c-1.049,0.824 -1.559,1.823 -1.559,2.995c-0,0.66 0.12,1.248 0.33,1.761c0.21,0.513 0.6,0.971 1.139,1.382c0.54,0.399 1.29,0.759 2.25,1.071c0.959,0.315 2.159,0.621 3.568,0.915c1.77,0.368 3.329,0.785 4.679,1.244c1.349,0.462 2.489,1.044 3.388,1.745c0.93,0.696 1.62,1.524 2.1,2.481c0.479,0.95 0.719,2.108 0.689,3.463c0,1.209 -0.24,2.348 -0.749,3.41c-0.54,1.065 -1.29,1.988 -2.28,2.771c-0.989,0.792 -2.189,1.413 -3.628,1.865c-1.41,0.453 -3.029,0.681 -4.828,0.681" style="fill:#0e274d;fill-rule:nonzero;"/><path d="M157.357,250.416l-0.06,0c-1.98,-0.006 -3.809,-0.33 -5.488,-0.974c-1.68,-0.645 -3.119,-1.611 -4.349,-2.897c-1.199,-1.284 -2.159,-2.864 -2.849,-4.739c-0.689,-1.868 -1.019,-4.051 -1.019,-6.546c-0,-2.459 0.359,-4.628 1.019,-6.517c0.69,-1.886 1.62,-3.473 2.819,-4.753c1.2,-1.281 2.609,-2.24 4.229,-2.879c1.619,-0.636 3.388,-0.954 5.278,-0.954l0.03,0c1.919,0 3.658,0.321 5.248,0.945c1.589,0.627 2.969,1.589 4.138,2.897c1.17,1.304 2.1,2.975 2.729,5.011c0.66,2.033 0.99,4.45 0.99,7.236l-22.312,-0.045c0.06,1.839 0.36,3.431 0.9,4.793c0.54,1.355 1.229,2.477 2.099,3.355c0.84,0.885 1.859,1.536 2.999,1.959c1.17,0.425 2.399,0.638 3.719,0.641c1.949,0 3.598,-0.479 5.008,-1.445c1.379,-0.969 2.309,-2.282 2.789,-3.932l4.408,0.006c-0.75,2.642 -2.189,4.778 -4.288,6.406c-2.129,1.616 -4.799,2.432 -8.037,2.432m-0.36,-26.96c-2.369,-0 -4.409,0.786 -6.088,2.354c-1.679,1.575 -2.699,3.938 -3.029,7.093l18.024,0.032c-0.18,-3.151 -1.08,-5.521 -2.729,-7.101c-1.65,-1.577 -3.689,-2.372 -6.148,-2.378l-0.03,-0" style="fill:#0e274d;fill-rule:nonzero;"/><path d="M199.731,249.669l-4.078,-0.006l0.03,-18.983c-0,-2.309 -0.6,-4.048 -1.77,-5.227c-1.199,-1.175 -2.879,-1.769 -5.068,-1.769l-0.03,-0c-1.019,-0 -2.009,0.192 -2.939,0.573c-0.959,0.38 -1.799,0.929 -2.549,1.643c-0.72,0.714 -1.319,1.574 -1.769,2.582c-0.42,1.011 -0.66,2.156 -0.66,3.437l-0.03,17.717l-4.078,-0.009l0.06,-28.606l3.358,0.006l0.48,4.294c0.99,-1.688 2.309,-2.96 3.929,-3.82c1.589,-0.858 3.329,-1.284 5.158,-1.284c3.119,0.006 5.548,0.912 7.317,2.711c1.77,1.799 2.669,4.355 2.669,7.653l-0.03,19.088" style="fill:#0e274d;fill-rule:nonzero;"/><path d="M215.775,250.527l-0.03,0c-2.309,-0.003 -4.048,-0.648 -5.248,-1.937c-1.169,-1.284 -1.769,-3.062 -1.769,-5.338l0.03,-18.65l-4.168,-0.009l-0,-3.521l4.198,0.009l0.27,-6.877l3.809,0.009l-0.03,6.874l6.447,0.015l-0.03,3.521l-6.417,-0.015l-0.03,18.761c-0,1.208 0.299,2.111 0.899,2.696c0.6,0.591 1.44,0.884 2.489,0.887c0.51,0 1.02,-0.03 1.5,-0.078c0.45,-0.054 1.079,-0.176 1.859,-0.356l0,3.466c-1.319,0.363 -2.579,0.543 -3.779,0.543" style="fill:#0e274d;fill-rule:nonzero;"/><path d="M228.671,249.726l-4.109,-0.009l0.03,-28.606l4.139,0.009l-0.06,28.606m0.33,-34.493l-4.679,-0.009l0.03,-5.116l4.679,0.009l-0.03,5.116" style="fill:#0e274d;fill-rule:nonzero;"/><path d="M244.745,250.581l-0.03,0c-2.969,-0.006 -5.338,-0.753 -7.077,-2.24c-1.77,-1.491 -2.639,-3.461 -2.639,-5.92c-0,-2.531 0.839,-4.555 2.519,-6.076c1.649,-1.514 4.468,-2.603 8.367,-3.257l8.516,-1.415l0.03,-1.982c0,-1.905 -0.629,-3.401 -1.919,-4.487c-1.229,-1.082 -3.029,-1.628 -5.338,-1.631l-0.03,-0c-2.189,-0 -3.868,0.474 -5.068,1.421c-1.23,0.957 -1.919,2.235 -2.099,3.848l-4.289,-0.009c0.27,-2.567 1.41,-4.627 3.509,-6.184c2.039,-1.547 4.768,-2.321 8.127,-2.321l0.03,0c3.479,0.009 6.208,0.885 8.187,2.63c1.949,1.742 2.939,4.088 2.939,7.018l-0.03,19.804l-3.359,-0.003l-0.48,-4.348c-0.929,1.391 -2.189,2.6 -3.838,3.626c-1.62,1.013 -3.629,1.526 -6.028,1.526m9.656,-15.663l-7.407,1.256c-1.499,0.255 -2.759,0.561 -3.748,0.924c-0.99,0.369 -1.77,0.795 -2.37,1.293c-0.569,0.491 -0.989,1.043 -1.229,1.643c-0.24,0.609 -0.36,1.277 -0.36,2.012c-0,1.65 0.57,2.906 1.709,3.773c1.17,0.858 2.729,1.292 4.709,1.298c1.049,0 2.099,-0.189 3.149,-0.572c1.049,-0.381 1.979,-0.912 2.818,-1.59c0.81,-0.678 1.47,-1.49 1.98,-2.444c0.51,-0.951 0.749,-1.979 0.749,-3.083l0,-4.51" style="fill:#0e274d;fill-rule:nonzero;"/><path d="M270.296,249.804l-4.049,-0.009l0.06,-39.606l4.079,0.009l-0.09,39.606" style="fill:#0e274d;fill-rule:nonzero;"/><path d="M288.139,250.662l-0.03,0c-3.478,-0.003 -6.267,-0.801 -8.307,-2.378c-2.069,-1.58 -3.269,-3.695 -3.538,-6.334l4.168,0.006c0.3,1.761 1.11,3.101 2.399,4.022c1.32,0.92 3.089,1.382 5.338,1.385l0.03,0c2.399,0 4.229,-0.513 5.428,-1.529c1.23,-1.023 1.86,-2.234 1.86,-3.629c-0,-0.882 -0.18,-1.622 -0.57,-2.228c-0.39,-0.609 -0.93,-1.131 -1.68,-1.568c-0.719,-0.447 -1.649,-0.822 -2.729,-1.134c-1.109,-0.318 -2.399,-0.621 -3.868,-0.918c-3.089,-0.63 -5.428,-1.589 -6.988,-2.873c-1.559,-1.283 -2.339,-3.032 -2.339,-5.233c0.03,-2.309 0.93,-4.198 2.729,-5.662c1.83,-1.457 4.499,-2.183 8.037,-2.183l0.03,0c3.119,0.003 5.698,0.735 7.707,2.186c2.04,1.455 3.269,3.446 3.719,5.98l-4.198,-0.009c-0.27,-1.469 -1.05,-2.651 -2.309,-3.554c-1.26,-0.899 -2.939,-1.352 -5.039,-1.358l-0.03,-0c-2.219,-0 -3.838,0.411 -4.888,1.229c-1.05,0.822 -1.559,1.821 -1.559,2.996c-0,0.657 0.09,1.248 0.33,1.761c0.209,0.51 0.599,0.974 1.139,1.379c0.54,0.399 1.29,0.765 2.249,1.074c0.96,0.315 2.13,0.621 3.569,0.917c1.769,0.369 3.329,0.786 4.678,1.245c1.35,0.462 2.489,1.041 3.389,1.739c0.93,0.699 1.62,1.527 2.099,2.48c0.45,0.957 0.69,2.112 0.69,3.467c0,1.212 -0.27,2.351 -0.78,3.41c-0.509,1.062 -1.259,1.985 -2.249,2.774c-0.989,0.789 -2.189,1.406 -3.628,1.862c-1.41,0.453 -3.029,0.678 -4.859,0.678" style="fill:#0e274d;fill-rule:nonzero;"/></g></g><g><path d="M1054.3,203.047c-0.183,96.684 -78.601,174.909 -175.152,174.726c-96.551,-0.183 -174.675,-78.709 -174.492,-175.39c0.184,-96.683 78.605,-174.908 175.156,-174.725c96.551,0.183 174.671,78.709 174.488,175.389" style="fill:#00bcea;fill-rule:nonzero;"/><g><path d="M1095.77,79.561c15.849,0.105 28.844,-12.725 28.982,-28.61c0.138,-16.063 -12.619,-29.094 -28.613,-29.23c-16.009,-0.135 -29.034,12.719 -29.115,28.728c-0.078,16.066 12.701,29.007 28.746,29.112Zm0.354,-78.743c2.431,3.888 4.859,7.776 7.373,11.805c3.87,-2.692 7.623,-5.303 11.535,-8.028c0.836,4.696 1.635,9.185 2.458,13.812c4.588,-0.994 9.011,-1.95 13.668,-2.959c-1.009,4.621 -1.983,9.068 -2.989,13.689c4.579,0.832 9.065,1.646 13.758,2.5c-2.698,3.876 -5.315,7.629 -8.011,11.495c3.93,2.536 7.776,5.024 11.761,7.596c-3.955,2.539 -7.81,5.012 -11.788,7.563c2.662,3.849 5.267,7.614 7.969,11.52c-4.667,0.829 -9.158,1.628 -13.783,2.448c0.989,4.583 1.95,9.044 2.957,13.702c-4.441,-0.974 -8.711,-1.908 -13.251,-2.903c5.352,15.567 10.601,30.849 15.979,46.506c-6.361,-4.711 -12.421,-9.2 -18.659,-13.821c-2.211,7.49 -4.368,14.794 -6.526,22.099l-0.285,-0.003c-4.135,-12.025 -8.266,-24.046 -12.496,-36.35c-4.279,12.286 -8.462,24.292 -12.641,36.305l-0.291,-0.012c-2.119,-7.287 -4.237,-14.576 -6.43,-22.112c-6.214,4.57 -12.304,9.05 -18.713,13.762c5.423,-15.591 10.726,-30.84 16.153,-46.44c-4.507,0.964 -8.768,1.872 -13.251,2.83c1.007,-4.594 1.983,-9.047 2.999,-13.671c-4.552,-0.832 -9.05,-1.652 -13.773,-2.515c2.695,-3.858 5.309,-7.595 8.022,-11.48c-3.906,-2.527 -7.746,-5.009 -11.766,-7.614c3.972,-2.539 7.809,-5 11.79,-7.545c-2.647,-3.828 -5.246,-7.589 -7.971,-11.529c4.636,-0.823 9.119,-1.619 13.773,-2.448c-0.976,-4.543 -1.935,-9.005 -2.942,-13.689c4.607,1.009 9.056,1.98 13.663,2.989c0.835,-4.597 1.643,-9.062 2.499,-13.779c3.879,2.707 7.644,5.339 11.517,8.046c2.533,-4.014 4.979,-7.893 7.425,-11.772l0.267,0.003" style="fill:#00bcea;fill-rule:nonzero;"/><path d="M1104.36,65.926l-8.488,-6.25l-8.512,6.217l1.156,-10.484l-9.63,-4.275l9.648,-4.24l-1.117,-10.492l8.488,6.25l8.512,-6.217l-1.16,10.486l9.633,4.276l-9.648,4.236l1.118,10.493Zm-8.413,-39.764c-13.431,-0.036 -24.491,10.979 -24.521,24.413c-0.027,13.446 10.958,24.497 24.398,24.542c13.412,0.045 24.514,-11.009 24.526,-24.419c0.015,-13.455 -10.969,-24.5 -24.403,-24.536" style="fill:#00bcea;fill-rule:nonzero;"/></g><g><path d="M838.897,184.6l-0.061,0c-2.739,-0.005 -5.234,-0.472 -7.486,-1.397c-2.252,-0.925 -4.169,-2.258 -5.721,-3.992c-1.582,-1.738 -2.799,-3.856 -3.682,-6.353c-0.852,-2.494 -1.308,-5.31 -1.278,-8.454c0,-3.328 0.457,-6.265 1.4,-8.809c0.943,-2.544 2.221,-4.683 3.865,-6.418c1.643,-1.732 3.56,-3.035 5.812,-3.915c2.251,-0.878 4.716,-1.318 7.364,-1.318l0.03,-0c2.282,0.006 4.382,0.334 6.33,0.987c1.947,0.656 3.651,1.563 5.142,2.721c1.461,1.162 2.648,2.527 3.561,4.099c0.882,1.575 1.46,3.3 1.673,5.18l-4.412,-0.009c-0.517,-2.964 -1.856,-5.269 -4.047,-6.918c-2.191,-1.645 -4.93,-2.476 -8.247,-2.482l-0.03,0c-2.009,0 -3.834,0.358 -5.539,1.076c-1.704,0.718 -3.195,1.782 -4.442,3.188c-1.248,1.41 -2.222,3.168 -2.952,5.281c-0.7,2.112 -1.065,4.559 -1.065,7.343c-0,2.6 0.335,4.934 1.035,6.994c0.669,2.062 1.612,3.8 2.86,5.209c1.217,1.413 2.678,2.491 4.351,3.233c1.705,0.745 3.53,1.117 5.539,1.123l0.03,-0c1.704,-0 3.287,-0.251 4.747,-0.754c1.461,-0.499 2.739,-1.211 3.834,-2.13c1.065,-0.919 1.948,-2.033 2.648,-3.33c0.7,-1.3 1.095,-2.725 1.247,-4.279l4.413,0.006c-0.183,1.918 -0.7,3.723 -1.552,5.419c-0.883,1.696 -2.039,3.194 -3.5,4.492c-1.491,1.297 -3.225,2.328 -5.234,3.082c-1.977,0.753 -4.199,1.125 -6.633,1.125" style="fill:#0e274d;fill-rule:nonzero;"/><path d="M876.995,177.568l-3.956,-0.006l0,-9.323l-9.524,-0.018l-0,-3.634l9.555,0.021l-0,-9.379l3.955,0.009l0,9.378l9.464,0.015l0,3.632l-9.494,-0.018l0,9.323" style="fill:#0e274d;fill-rule:nonzero;"/><path d="M910.438,177.63l-3.956,-0.006l0.03,-9.323l-9.555,-0.018l0.031,-3.631l9.524,0.015l0,-9.376l3.986,0.006l-0.03,9.379l9.464,0.017l-0,3.632l-9.464,-0.018l-0.03,9.323" style="fill:#0e274d;fill-rule:nonzero;"/><path d="M790.3,248.746l-4.838,-0.009l-4.169,-10.47l-19.749,-0.038l-4.291,10.454l-4.564,-0.005l16.34,-38.999l5.113,0.009l16.158,39.058m-18.775,-34.836l-8.551,20.8l16.889,0.032l-8.338,-20.832" style="fill:#0e274d;fill-rule:nonzero;"/><path d="M804.998,249.588l-0.031,-0c-1.765,-0.006 -3.377,-0.325 -4.899,-0.961c-1.521,-0.635 -2.86,-1.566 -3.986,-2.798c-1.126,-1.229 -2.009,-2.757 -2.678,-4.586c-0.639,-1.826 -0.943,-3.951 -0.943,-6.371c-0,-2.529 0.334,-4.742 0.973,-6.636c0.67,-1.898 1.552,-3.47 2.678,-4.714c1.156,-1.244 2.495,-2.18 4.047,-2.81c1.552,-0.626 3.256,-0.939 5.052,-0.939l0.03,-0c2.313,0.003 4.26,0.475 5.873,1.418c1.582,0.943 2.83,2.175 3.773,3.694l0.031,-15.124l4.169,0.009l-0.061,39.029l-3.408,-0.006l-0.731,-4.663c-0.943,1.622 -2.282,2.94 -3.925,3.948c-1.643,1.004 -3.652,1.51 -5.964,1.51m0.882,-26.399c-1.308,-0 -2.526,0.233 -3.651,0.697c-1.126,0.47 -2.07,1.188 -2.861,2.163c-0.821,0.972 -1.46,2.204 -1.917,3.685c-0.456,1.477 -0.7,3.212 -0.7,5.2c0,1.88 0.213,3.525 0.67,4.935c0.487,1.409 1.126,2.577 1.917,3.499c0.821,0.924 1.795,1.622 2.891,2.092c1.095,0.472 2.282,0.709 3.59,0.715c1.339,-0 2.556,-0.243 3.713,-0.73c1.126,-0.485 2.099,-1.206 2.951,-2.16c0.822,-0.958 1.492,-2.137 1.948,-3.546c0.456,-1.41 0.7,-3.035 0.7,-4.879c0.03,-3.829 -0.822,-6.731 -2.526,-8.705c-1.704,-1.974 -3.956,-2.961 -6.694,-2.966l-0.031,-0" style="fill:#0e274d;fill-rule:nonzero;"/><path d="M839.931,248.837l-5.599,-0.012l-10.407,-28.204l4.504,0.009l8.824,24.895l8.977,-24.863l4.352,0.009l-10.651,28.166" style="fill:#0e274d;fill-rule:nonzero;"/><path d="M862.48,249.691l-0.03,0c-3.013,-0.006 -5.417,-0.742 -7.182,-2.207c-1.795,-1.466 -2.678,-3.41 -2.678,-5.833c0,-2.494 0.852,-4.489 2.556,-5.984c1.674,-1.495 4.534,-2.568 8.49,-3.212l8.642,-1.395l0.031,-1.947c-0,-1.879 -0.639,-3.354 -1.917,-4.423c-1.278,-1.067 -3.104,-1.605 -5.447,-1.611l-0.031,0c-2.221,0 -3.925,0.467 -5.142,1.401c-1.248,0.939 -1.948,2.201 -2.13,3.791l-4.352,-0.009c0.274,-2.526 1.43,-4.559 3.56,-6.09c2.07,-1.525 4.839,-2.29 8.216,-2.29l0.061,0c3.53,0.009 6.299,0.872 8.308,2.591c1.978,1.723 2.982,4.025 2.982,6.918l-0.031,19.514l-3.408,-0.006l-0.487,-4.284c-0.943,1.371 -2.221,2.561 -3.895,3.572c-1.643,1.002 -3.682,1.504 -6.116,1.504m9.798,-15.43l-7.516,1.232c-1.521,0.251 -2.799,0.558 -3.804,0.916c-1.004,0.36 -1.795,0.783 -2.404,1.27c-0.578,0.485 -1.004,1.029 -1.247,1.623c-0.244,0.597 -0.365,1.253 -0.365,1.976c-0,1.629 0.578,2.867 1.734,3.718c1.187,0.851 2.769,1.279 4.778,1.282l0.03,0c1.065,0 2.13,-0.189 3.165,-0.564c1.065,-0.375 2.008,-0.899 2.86,-1.566c0.822,-0.665 1.522,-1.469 2.009,-2.409c0.517,-0.936 0.76,-1.95 0.76,-3.031l0,-4.447" style="fill:#0e274d;fill-rule:nonzero;"/><path d="M907.547,248.961l-4.139,-0.006l0.061,-18.704c0,-2.276 -0.608,-3.992 -1.826,-5.151c-1.186,-1.158 -2.921,-1.74 -5.142,-1.743l-0.031,-0c-1.034,-0 -2.039,0.186 -2.982,0.561c-0.974,0.379 -1.826,0.919 -2.556,1.626c-0.761,0.7 -1.339,1.548 -1.795,2.541c-0.457,0.996 -0.67,2.121 -0.67,3.386l-0.03,17.455l-4.139,-0.009l0.061,-28.187l3.408,0.006l0.487,4.231c1.004,-1.663 2.313,-2.913 3.956,-3.761c1.643,-0.842 3.378,-1.265 5.234,-1.265c3.165,0.009 5.66,0.898 7.455,2.671c1.796,1.773 2.678,4.288 2.678,7.538l-0.03,18.811" style="fill:#0e274d;fill-rule:nonzero;"/><path d="M927.144,249.812l-0.031,0c-1.856,-0.003 -3.591,-0.325 -5.203,-0.96c-1.644,-0.635 -3.043,-1.569 -4.23,-2.798c-1.187,-1.23 -2.1,-2.769 -2.8,-4.613c-0.669,-1.847 -1.004,-3.96 -1.004,-6.344c0,-2.423 0.335,-4.571 1.004,-6.451c0.67,-1.876 1.613,-3.457 2.77,-4.736c1.186,-1.28 2.586,-2.255 4.199,-2.92c1.582,-0.659 3.347,-0.993 5.264,-0.993l0.061,0c3.226,0.006 5.934,0.807 8.125,2.4c2.191,1.595 3.53,3.764 4.017,6.512l-4.595,-0.009c-0.365,-1.734 -1.187,-3.082 -2.526,-4.042c-1.308,-0.96 -2.952,-1.442 -4.93,-1.445l-0.03,0c-1.278,0 -2.465,0.234 -3.56,0.695c-1.096,0.469 -2.07,1.19 -2.861,2.165c-0.852,0.976 -1.46,2.214 -1.917,3.709c-0.456,1.501 -0.669,3.262 -0.669,5.283c-0.031,1.918 0.213,3.573 0.7,4.964c0.486,1.392 1.125,2.539 1.947,3.446c0.822,0.904 1.765,1.584 2.861,2.039c1.095,0.452 2.251,0.679 3.499,0.682c2.039,0 3.773,-0.537 5.173,-1.616c1.43,-1.081 2.282,-2.562 2.587,-4.441l4.442,0.009c-0.213,1.335 -0.669,2.582 -1.339,3.738c-0.669,1.155 -1.521,2.157 -2.586,3.002c-1.065,0.848 -2.313,1.516 -3.713,2c-1.399,0.482 -2.951,0.724 -4.655,0.724" style="fill:#0e274d;fill-rule:nonzero;"/><path d="M958.304,249.868l-0.03,0c-2.009,-0.003 -3.865,-0.322 -5.569,-0.957c-1.704,-0.635 -3.195,-1.587 -4.413,-2.854c-1.217,-1.271 -2.19,-2.822 -2.89,-4.669c-0.7,-1.844 -1.035,-3.995 -1.035,-6.451c0,-2.423 0.335,-4.562 1.035,-6.421c0.7,-1.861 1.643,-3.424 2.86,-4.683c1.217,-1.265 2.647,-2.211 4.291,-2.84c1.643,-0.626 3.438,-0.94 5.386,-0.94c1.947,0.006 3.712,0.314 5.325,0.931c1.613,0.621 3.013,1.569 4.199,2.855c1.187,1.285 2.13,2.931 2.77,4.937c0.669,2.01 1.004,4.385 1.004,7.13l-22.64,-0.044c0.061,1.811 0.365,3.383 0.913,4.719c0.547,1.339 1.247,2.444 2.099,3.313c0.883,0.868 1.917,1.512 3.074,1.932c1.156,0.417 2.434,0.627 3.773,0.629c1.978,0 3.652,-0.475 5.051,-1.43c1.431,-0.951 2.374,-2.242 2.861,-3.868l4.473,0.009c-0.761,2.601 -2.221,4.701 -4.382,6.306c-2.13,1.599 -4.869,2.396 -8.155,2.396m-0.335,-26.564c-2.404,-0 -4.473,0.777 -6.177,2.322c-1.704,1.552 -2.739,3.88 -3.073,6.986l18.288,0.035c-0.183,-3.108 -1.096,-5.443 -2.769,-7c-1.674,-1.554 -3.743,-2.337 -6.238,-2.343l-0.031,-0" style="fill:#0e274d;fill-rule:nonzero;"/><path d="M988.977,249.925l-0.03,-0c-1.765,-0 -3.408,-0.323 -4.93,-0.958c-1.521,-0.632 -2.83,-1.566 -3.956,-2.798c-1.156,-1.229 -2.038,-2.76 -2.677,-4.586c-0.639,-1.826 -0.974,-3.951 -0.974,-6.371c-0,-2.529 0.335,-4.743 1.004,-6.637c0.639,-1.897 1.552,-3.469 2.678,-4.713c1.126,-1.244 2.495,-2.18 4.047,-2.81c1.552,-0.626 3.256,-0.942 5.051,-0.942l0.031,-0c2.313,0.005 4.26,0.481 5.842,1.421c1.613,0.942 2.861,2.175 3.774,3.693l0.03,-15.123l4.199,0.009l-0.091,39.029l-3.378,-0.006l-0.73,-4.663c-0.974,1.622 -2.282,2.94 -3.925,3.95c-1.674,1.002 -3.652,1.505 -5.965,1.505m0.883,-26.397c-1.339,0 -2.556,0.234 -3.652,0.698c-1.126,0.467 -2.099,1.188 -2.891,2.163c-0.791,0.972 -1.43,2.201 -1.886,3.682c-0.487,1.483 -0.7,3.214 -0.731,5.203c0,1.879 0.244,3.525 0.7,4.935c0.457,1.409 1.096,2.576 1.917,3.498c0.822,0.922 1.765,1.623 2.861,2.092c1.095,0.473 2.282,0.71 3.591,0.713l0.03,-0c1.339,-0 2.556,-0.243 3.682,-0.724c1.126,-0.488 2.13,-1.209 2.952,-2.163c0.852,-0.958 1.491,-2.14 1.978,-3.549c0.456,-1.407 0.7,-3.032 0.7,-4.876c-0,-3.832 -0.852,-6.731 -2.557,-8.705c-1.704,-1.974 -3.925,-2.961 -6.664,-2.967l-0.03,0" style="fill:#0e274d;fill-rule:nonzero;"/></g></g></g></svg>