<?xml version="1.0" encoding="UTF-8" standalone="no"?><!DOCTYPE svg PUBLIC "-//W3C//DTD SVG 1.1//EN" "http://www.w3.org/Graphics/SVG/1.1/DTD/svg11.dtd"><svg width="100%" height="100%" viewBox="0 0 1652 379" version="1.1" xmlns="http://www.w3.org/2000/svg" xmlns:xlink="http://www.w3.org/1999/xlink" xml:space="preserve" xmlns:serif="http://www.serif.com/" style="fill-rule:evenodd;clip-rule:evenodd;stroke-linejoin:round;stroke-miterlimit:2;"><g id="CCNA-ITN-Networking" serif:id="CCNA ITN Networking"><g><clipPath id="_clip1"><path d="M547.92,229.84l0,-70.01l-219.996,0l0,70.01l219.996,0Z"/></clipPath><g clip-path="url(#_clip1)"><path d="M497.723,199.084l0,-8.56l40.893,0.08l0,8.56l-40.893,-0.08Zm-108.59,-0.204l0,-8.559l54.318,0.102l-0.045,8.559l-54.273,-0.102Zm-108.634,-0.204l0.044,-8.564l54.273,0.102l0,8.564l-54.317,-0.102Zm-108.59,-0.208l0,-8.559l54.317,0.101l0,8.565l-54.317,-0.107Zm-108.59,-0.208l0,-8.56l54.317,0.107l-0.044,8.559l-54.273,-0.106Zm-108.634,-0.204l0.044,-8.559l54.273,0.101l0,8.56l-54.317,-0.102Zm-108.59,-0.204l-0,-8.559l54.317,0.097l0,8.56l-54.317,-0.098Zm-108.59,-0.208l-0,-8.564l54.317,0.106l-0.044,8.564l-54.273,-0.106Zm-108.634,-0.204l0.044,-8.559l54.273,0.097l-0,8.56l-54.317,-0.098Zm-108.59,-0.208l0.044,-8.564l54.273,0.106l-0,8.56l-54.317,-0.102Zm-108.59,-0.208l-0,-8.56l54.317,0.107l-0.044,8.559l-54.273,-0.106Zm-108.59,-0.204l-0,-8.564l54.317,0.106l-0.044,8.56l-54.273,-0.102Zm-108.635,-0.208l0.045,-8.56l54.273,0.102l-0,8.564l-54.318,-0.106" style="fill:#e8ebf1;fill-rule:nonzero;"/><path d="M510.173,229.84l-5.848,-6.282l31.013,-28.67l-30.925,-28.797l5.893,-6.261l37.614,35.081l-37.747,34.929" style="fill:#e8ebf1;fill-rule:nonzero;"/></g></g><g><clipPath id="_clip2"><path d="M1250.96,228.613l0,-70.01l-584.967,0l0,70.01l584.967,-0Z"/></clipPath><g clip-path="url(#_clip2)"><path d="M1200.76,197.857l0,-8.56l40.893,0.08l0,8.56l-40.893,-0.08Zm-108.59,-0.204l0,-8.56l54.317,0.102l-0.044,8.56l-54.273,-0.102Zm-108.634,-0.204l0.044,-8.564l54.273,0.102l0,8.564l-54.317,-0.102Zm-108.59,-0.208l-0,-8.56l54.317,0.102l0,8.564l-54.317,-0.106Zm-108.59,-0.208l0,-8.56l54.317,0.106l-0.044,8.56l-54.273,-0.106Zm-108.634,-0.204l0.044,-8.56l54.273,0.102l-0,8.56l-54.317,-0.102Zm-108.59,-0.204l-0,-8.559l54.317,0.097l-0,8.56l-54.317,-0.098Zm-108.59,-0.208l-0,-8.564l54.317,0.106l-0.044,8.564l-54.273,-0.106Zm-108.634,-0.204l0.044,-8.56l54.273,0.098l-0,8.56l-54.317,-0.098Zm-108.59,-0.208l0.044,-8.564l54.273,0.106l-0,8.56l-54.317,-0.102Zm-108.59,-0.208l-0,-8.56l54.317,0.106l-0.045,8.56l-54.272,-0.106Zm-108.59,-0.204l-0,-8.564l54.317,0.106l-0.045,8.56l-54.272,-0.102Zm-108.635,-0.208l0.045,-8.56l54.272,0.102l0,8.564l-54.317,-0.106" style="fill:#e8ebf1;fill-rule:nonzero;"/><path d="M1213.21,228.613l-5.848,-6.282l31.013,-28.67l-30.925,-28.798l5.893,-6.26l37.614,35.08l-37.747,34.93" style="fill:#e8ebf1;fill-rule:nonzero;"/></g></g><g><path d="M355.568,204.054c-0.183,96.659 -78.604,174.899 -175.155,174.719c-96.551,-0.18 -174.672,-78.721 -174.488,-175.381c0.183,-96.689 78.601,-174.929 175.152,-174.749c96.554,0.21 174.674,78.721 174.491,175.411" style="fill:#e8ebf1;fill-rule:nonzero;"/><g><path d="M338.518,5.786c-8.836,-0 -17.164,3.433 -23.432,9.701c-6.537,6.507 -9.999,14.865 -10.029,23.73c-0.03,8.895 3.433,17.252 9.671,23.55c12.925,12.985 33.998,13.044 46.982,0.09c13.223,-13.193 13.253,-34.296 0.328,-47.281c-6.238,-6.298 -14.596,-9.79 -23.461,-9.79l-0.059,-0m-0.329,71.219c-9.671,0 -19.312,-3.701 -26.625,-11.074c-7.104,-7.133 -11.014,-16.625 -11.014,-26.714c0.03,-10.089 3.97,-19.551 11.104,-26.685c7.372,-7.343 16.804,-11.253 26.864,-11.253l0.089,-0c10.059,0.03 19.521,3.97 26.625,11.104c14.686,14.745 14.626,38.713 -0.089,53.399c-7.522,7.492 -17.253,11.223 -26.954,11.223" style="fill:#e8ebf1;fill-rule:nonzero;"/><path d="M354.397,62.558l-16.029,-8.447l-16.058,8.388l3.104,-17.85l-12.955,-12.715l17.94,-2.567l8.059,-16.238l7.97,16.267l17.939,2.657l-13.014,12.626l3.044,17.879" style="fill:#e8ebf1;fill-rule:nonzero;"/></g><g><path d="M99.531,123.986l-0.075,39.962l-4.323,-0l0.076,-39.962l4.322,0" style="fill:#0e274d;fill-rule:nonzero;"/><path d="M107.935,163.948l0.055,-28.86l3.379,0.03l0.493,4.326c0.998,-1.694 2.314,-2.995 3.941,-3.872c1.625,-0.847 3.364,-1.27 5.213,-1.27c3.137,-0 5.602,0.907 7.39,2.722c1.791,1.815 2.68,4.387 2.674,7.714l-0.036,19.27l-4.099,0l0.036,-19.149c0.003,-2.329 -0.596,-4.084 -1.794,-5.294c-1.198,-1.179 -2.904,-1.784 -5.121,-1.784c-1.035,-0 -2.033,0.211 -2.995,0.574c-0.962,0.394 -1.812,0.938 -2.553,1.664c-0.741,0.726 -1.331,1.603 -1.776,2.602c-0.445,1.028 -0.672,2.178 -0.672,3.479l-0.033,17.878l-4.102,-0.03" style="fill:#0e274d;fill-rule:nonzero;"/><path d="M144.282,138.718l-0.034,18.937c-0.003,1.21 0.3,2.118 0.908,2.723c0.608,0.575 1.446,0.877 2.52,0.877c0.517,0 1.016,-0.03 1.497,-0.06c0.478,-0.061 1.107,-0.182 1.885,-0.363l-0.006,3.479c-1.331,0.363 -2.608,0.544 -3.827,0.544c-2.329,0 -4.093,-0.635 -5.288,-1.936c-1.198,-1.301 -1.797,-3.086 -1.791,-5.385l0.034,-18.816l-4.211,0l0.009,-3.569l4.211,0.03l0.29,-6.958l3.824,0l-0.012,6.958l6.482,-0l-0.006,3.57l-6.485,-0.031" style="fill:#0e274d;fill-rule:nonzero;"/><path d="M156.261,164.038l0.054,-28.859l3.382,0.03l0.542,4.931c0.78,-1.966 1.836,-3.418 3.17,-4.356c1.331,-0.938 2.847,-1.392 4.547,-1.392c0.626,0 1.21,0.031 1.745,0.121c0.533,0.091 0.968,0.182 1.301,0.273l-0.009,4.114c-0.517,-0.151 -1.022,-0.272 -1.525,-0.363c-0.496,-0.121 -1.058,-0.151 -1.688,-0.151c-0.995,-0 -1.939,0.211 -2.825,0.635c-0.889,0.423 -1.667,1.059 -2.332,1.966c-0.669,0.877 -1.204,1.966 -1.613,3.297c-0.411,1.301 -0.617,2.844 -0.62,4.629l-0.027,15.156l-4.102,-0.031" style="fill:#0e274d;fill-rule:nonzero;"/><path d="M177.624,149.669c-0.003,1.966 0.233,3.66 0.711,5.143c0.478,1.482 1.14,2.722 1.987,3.751c0.847,0.998 1.855,1.724 3.016,2.238c1.165,0.484 2.43,0.757 3.797,0.757c1.364,-0 2.623,-0.242 3.769,-0.757c1.147,-0.484 2.136,-1.24 2.971,-2.238c0.832,-0.998 1.482,-2.239 1.945,-3.691c0.466,-1.482 0.699,-3.206 0.702,-5.173c0.006,-1.996 -0.233,-3.751 -0.711,-5.203c-0.475,-1.482 -1.132,-2.722 -1.957,-3.751c-0.829,-0.998 -1.818,-1.724 -2.962,-2.208c-1.146,-0.484 -2.402,-0.726 -3.769,-0.726c-1.368,-0 -2.623,0.242 -3.769,0.726c-1.147,0.514 -2.145,1.24 -2.995,2.238c-0.853,0.999 -1.522,2.239 -2.003,3.721c-0.484,1.483 -0.726,3.207 -0.732,5.173Zm-4.265,0c0.003,-2.571 0.369,-4.81 1.092,-6.716c0.723,-1.936 1.706,-3.509 2.946,-4.779c1.24,-1.24 2.692,-2.209 4.356,-2.814c1.664,-0.635 3.458,-0.937 5.379,-0.937c1.921,-0 3.718,0.332 5.4,0.937c1.682,0.636 3.128,1.604 4.347,2.874c1.216,1.271 2.172,2.874 2.87,4.78c0.699,1.906 1.044,4.144 1.041,6.685c-0.003,2.511 -0.351,4.75 -1.038,6.625c-0.686,1.906 -1.642,3.509 -2.864,4.78c-1.219,1.27 -2.671,2.238 -4.356,2.874c-1.682,0.635 -3.503,0.968 -5.461,0.968c-1.957,-0 -3.775,-0.333 -5.454,-0.998c-1.682,-0.636 -3.131,-1.604 -4.347,-2.905c-1.216,-1.3 -2.175,-2.904 -2.871,-4.779c-0.702,-1.906 -1.046,-4.084 -1.04,-6.595" style="fill:#0e274d;fill-rule:nonzero;"/><path d="M229.241,138.87l-0.036,18.937c-0.003,1.21 0.299,2.117 0.907,2.722c0.611,0.605 1.449,0.877 2.52,0.877c0.517,0.031 1.017,0 1.498,-0.06c0.481,-0.061 1.107,-0.182 1.887,-0.363l-0.009,3.509c-1.331,0.363 -2.607,0.545 -3.827,0.545c-2.326,-0 -4.09,-0.666 -5.287,-1.967c-1.198,-1.301 -1.794,-3.085 -1.791,-5.384l0.036,-18.816l-4.211,-0l0.006,-3.54l4.211,0l0.29,-6.927l3.827,-0l-0.015,6.927l6.486,0l-0.009,3.57l-6.483,-0.03" style="fill:#0e274d;fill-rule:nonzero;"/><path d="M243.574,149.79c-0.003,1.966 0.233,3.691 0.711,5.173c0.478,1.482 1.14,2.723 1.987,3.721c0.847,0.998 1.852,1.724 3.016,2.238c1.162,0.515 2.429,0.757 3.797,0.757c1.364,-0 2.622,-0.242 3.769,-0.726c1.146,-0.515 2.136,-1.271 2.971,-2.239c0.832,-1.028 1.479,-2.238 1.945,-3.721c0.466,-1.482 0.699,-3.206 0.702,-5.173c0.006,-1.996 -0.233,-3.72 -0.711,-5.203c-0.475,-1.482 -1.132,-2.722 -1.961,-3.721c-0.828,-1.028 -1.815,-1.754 -2.961,-2.238c-1.144,-0.484 -2.399,-0.726 -3.766,-0.726c-1.368,-0 -2.623,0.242 -3.77,0.756c-1.146,0.484 -2.144,1.24 -2.997,2.239c-0.851,0.998 -1.519,2.208 -2,3.69c-0.484,1.483 -0.726,3.207 -0.732,5.173Zm-4.269,0c0.007,-2.571 0.37,-4.81 1.096,-6.716c0.723,-1.936 1.706,-3.509 2.946,-4.779c1.24,-1.24 2.692,-2.178 4.353,-2.814c1.667,-0.635 3.458,-0.937 5.382,-0.937c1.918,-0 3.718,0.332 5.399,0.968c1.679,0.605 3.128,1.573 4.345,2.843c1.219,1.301 2.175,2.874 2.873,4.78c0.696,1.906 1.044,4.144 1.041,6.685c-0.006,2.541 -0.351,4.75 -1.038,6.656c-0.689,1.905 -1.642,3.478 -2.864,4.749c-1.223,1.27 -2.675,2.238 -4.357,2.874c-1.681,0.665 -3.503,0.968 -5.46,0.968c-1.957,-0 -3.775,-0.333 -5.457,-0.968c-1.679,-0.666 -3.128,-1.634 -4.344,-2.935c-1.216,-1.3 -2.175,-2.904 -2.871,-4.779c-0.702,-1.876 -1.047,-4.084 -1.044,-6.595" style="fill:#0e274d;fill-rule:nonzero;"/><path d="M103.694,194.198l-0.033,17.909l8.757,0.03c3.509,0 6.126,-0.756 7.844,-2.299c1.722,-1.513 2.584,-3.66 2.59,-6.443c0.006,-2.904 -0.868,-5.143 -2.62,-6.746c-1.751,-1.634 -4.271,-2.42 -7.56,-2.451l-8.978,0Zm8.873,-3.599c4.767,0.03 8.433,1.119 10.996,3.327c2.562,2.208 3.842,5.354 3.832,9.469c-0.006,3.932 -1.324,6.957 -3.95,9.135c-2.629,2.148 -6.344,3.207 -11.145,3.207l-8.645,-0l-0.031,14.793l-4.322,-0l0.075,-39.962l13.19,0.031" style="fill:#0e274d;fill-rule:nonzero;"/><path d="M151.203,215.646l-7.484,1.271c-1.516,0.242 -2.771,0.575 -3.769,0.938c-0.999,0.363 -1.797,0.786 -2.387,1.3c-0.593,0.484 -1.008,1.059 -1.25,1.664c-0.242,0.605 -0.363,1.271 -0.366,2.027c-0.003,1.664 0.578,2.934 1.74,3.781c1.161,0.878 2.741,1.331 4.737,1.331c1.071,0 2.136,-0.181 3.189,-0.574c1.052,-0.394 1.993,-0.938 2.828,-1.604c0.832,-0.696 1.497,-1.512 2,-2.48c0.499,-0.938 0.75,-1.997 0.753,-3.086l0.009,-4.568Zm-18.886,-6.141c0.263,-2.571 1.44,-4.658 3.531,-6.231c2.09,-1.573 4.834,-2.36 8.234,-2.33c3.509,0 6.262,0.878 8.252,2.632c1.991,1.755 2.986,4.144 2.98,7.079l-0.036,19.996l-3.382,-0.031l-0.493,-4.356c-0.923,1.392 -2.212,2.602 -3.857,3.63c-1.649,1.059 -3.688,1.573 -6.126,1.543c-2.992,0 -5.376,-0.756 -7.145,-2.238c-1.77,-1.513 -2.653,-3.51 -2.65,-5.99c0.006,-2.541 0.85,-4.598 2.535,-6.111c1.682,-1.543 4.501,-2.632 8.458,-3.297l8.591,-1.422l0.003,-1.996c0.003,-1.936 -0.629,-3.449 -1.903,-4.538c-1.27,-1.089 -3.07,-1.634 -5.4,-1.634c-2.217,0 -3.935,0.454 -5.157,1.422c-1.219,0.968 -1.924,2.269 -2.112,3.903l-4.323,-0.031" style="fill:#0e274d;fill-rule:nonzero;"/><path d="M186.935,221.817c-0.221,1.362 -0.668,2.662 -1.337,3.842c-0.665,1.18 -1.525,2.209 -2.583,3.056c-1.053,0.877 -2.284,1.573 -3.688,2.057c-1.407,0.484 -2.955,0.756 -4.655,0.726c-1.849,-0 -3.573,-0.303 -5.182,-0.968c-1.604,-0.636 -2.998,-1.604 -4.178,-2.874c-1.18,-1.24 -2.109,-2.814 -2.789,-4.719c-0.681,-1.876 -1.017,-4.054 -1.014,-6.474c0.006,-2.481 0.342,-4.689 1.011,-6.625c0.668,-1.906 1.588,-3.539 2.753,-4.84c1.167,-1.301 2.553,-2.299 4.162,-2.995c1.606,-0.665 3.373,-1.028 5.294,-1.028c3.216,0.03 5.908,0.847 8.086,2.48c2.178,1.634 3.503,3.842 3.978,6.655l-4.544,0c-0.366,-1.785 -1.204,-3.176 -2.513,-4.144c-1.31,-0.968 -2.944,-1.482 -4.901,-1.482c-1.295,-0 -2.487,0.242 -3.576,0.726c-1.095,0.484 -2.045,1.21 -2.862,2.208c-0.813,0.998 -1.442,2.269 -1.89,3.781c-0.445,1.543 -0.672,3.358 -0.675,5.415c-0.006,1.967 0.233,3.661 0.711,5.082c0.478,1.422 1.122,2.602 1.933,3.54c0.811,0.907 1.761,1.603 2.85,2.087c1.089,0.454 2.241,0.696 3.463,0.696c2.03,-0 3.752,-0.545 5.155,-1.664c1.407,-1.089 2.26,-2.602 2.559,-4.538l4.432,0" style="fill:#0e274d;fill-rule:nonzero;"/><path d="M193.46,230.711l0.076,-39.961l4.102,0.03l-0.045,22.567l12.602,-11.465l5.488,0.03l-13.934,12.494l15.597,16.366l-5.542,-0.031l-14.214,-14.883l-0.028,14.853l-4.102,0" style="fill:#0e274d;fill-rule:nonzero;"/><path d="M231.585,204.423c-2.404,0 -4.455,0.787 -6.156,2.39c-1.703,1.573 -2.722,3.963 -3.064,7.139l18.178,0.03c-0.179,-3.176 -1.098,-5.566 -2.756,-7.169c-1.661,-1.573 -3.727,-2.39 -6.202,-2.39Zm12.766,18.272c-0.744,2.662 -2.19,4.84 -4.335,6.473c-2.147,1.634 -4.864,2.451 -8.152,2.451c-1.994,-0 -3.842,-0.333 -5.539,-0.968c-1.7,-0.666 -3.158,-1.634 -4.371,-2.935c-1.22,-1.3 -2.178,-2.904 -2.874,-4.779c-0.702,-1.876 -1.047,-4.084 -1.041,-6.595c0.006,-2.481 0.348,-4.689 1.038,-6.595c0.686,-1.906 1.63,-3.479 2.834,-4.779c1.204,-1.301 2.629,-2.269 4.275,-2.904c1.642,-0.636 3.427,-0.968 5.348,-0.968c1.921,-0 3.685,0.332 5.291,0.968c1.606,0.605 2.998,1.603 4.178,2.904c1.179,1.331 2.102,2.994 2.764,5.052c0.66,2.057 0.987,4.507 0.981,7.32l-22.501,-0.06c0.073,1.845 0.375,3.479 0.908,4.84c0.532,1.361 1.231,2.48 2.099,3.388c0.868,0.877 1.882,1.543 3.043,1.966c1.165,0.424 2.411,0.636 3.739,0.636c1.96,0.03 3.642,-0.484 5.049,-1.452c1.404,-0.969 2.348,-2.3 2.832,-3.963l4.434,-0" style="fill:#0e274d;fill-rule:nonzero;"/><path d="M256.854,205.542l-0.036,18.907c-0.003,1.24 0.299,2.118 0.91,2.723c0.608,0.605 1.446,0.907 2.517,0.907c0.517,0 1.017,-0.03 1.498,-0.09c0.481,-0.061 1.11,-0.182 1.884,-0.363l-0.006,3.509c-1.331,0.363 -2.604,0.544 -3.824,0.544c-2.329,0 -4.093,-0.665 -5.29,-1.966c-1.198,-1.301 -1.794,-3.086 -1.791,-5.385l0.036,-18.816l-4.211,0l0.006,-3.539l4.211,-0l0.29,-6.928l3.827,0l-0.015,6.928l6.486,0.03l-0.009,3.539l-6.483,0" style="fill:#0e274d;fill-rule:nonzero;"/><path d="M131.803,261.113l-13.41,-0.03l-0.07,36.089l-4.38,-0.03l0.07,-36.059l-13.302,-0.03l0.009,-3.872l31.092,0.06l-0.009,3.872" style="fill:#0e274d;fill-rule:nonzero;"/><path d="M133.01,297.202l0.055,-28.859l3.379,0l0.547,4.931c0.778,-1.966 1.833,-3.388 3.167,-4.356c1.331,-0.938 2.847,-1.392 4.547,-1.392c0.626,0 1.21,0.061 1.746,0.152c0.535,0.09 0.968,0.181 1.3,0.242l-0.006,4.114c-0.517,-0.151 -1.025,-0.272 -1.524,-0.363c-0.5,-0.091 -1.062,-0.151 -1.691,-0.151c-0.996,-0 -1.94,0.211 -2.826,0.635c-0.889,0.423 -1.667,1.089 -2.332,1.966c-0.666,0.877 -1.204,1.997 -1.613,3.297c-0.411,1.301 -0.617,2.844 -0.62,4.629l-0.027,15.155l-4.102,0" style="fill:#0e274d;fill-rule:nonzero;"/><path d="M170.225,282.289l-7.484,1.24c-1.516,0.272 -2.771,0.575 -3.77,0.938c-0.998,0.393 -1.794,0.817 -2.386,1.301c-0.593,0.514 -1.008,1.058 -1.25,1.663c-0.242,0.636 -0.363,1.301 -0.366,2.027c0,1.664 0.578,2.935 1.74,3.812c1.161,0.877 2.74,1.301 4.737,1.301c1.071,-0 2.136,-0.182 3.188,-0.575c1.053,-0.363 1.997,-0.908 2.829,-1.603c0.832,-0.666 1.497,-1.483 2.002,-2.451c0.499,-0.968 0.751,-1.996 0.754,-3.116l0.006,-4.537Zm-18.886,-6.141c0.263,-2.602 1.44,-4.689 3.53,-6.232c2.091,-1.573 4.834,-2.359 8.235,-2.359c3.509,-0 6.262,0.907 8.252,2.662c1.994,1.754 2.986,4.114 2.98,7.078l-0.037,19.966l-3.382,-0l-0.49,-4.386c-0.925,1.421 -2.214,2.631 -3.86,3.66c-1.645,1.028 -3.687,1.543 -6.125,1.543c-2.992,-0 -5.376,-0.757 -7.146,-2.269c-1.769,-1.482 -2.653,-3.479 -2.647,-5.959c0.003,-2.572 0.85,-4.599 2.532,-6.141c1.685,-1.513 4.502,-2.632 8.458,-3.267l8.592,-1.453l0.003,-1.996c0.006,-1.906 -0.629,-3.418 -1.903,-4.507c-1.271,-1.089 -3.071,-1.664 -5.4,-1.664c-2.217,-0 -3.932,0.484 -5.158,1.452c-1.219,0.968 -1.924,2.238 -2.111,3.872l-4.323,-0" style="fill:#0e274d;fill-rule:nonzero;"/><path d="M205.96,288.46c-0.224,1.361 -0.672,2.632 -1.337,3.812c-0.669,1.179 -1.528,2.208 -2.584,3.085c-1.055,0.877 -2.283,1.543 -3.69,2.057c-1.407,0.484 -2.956,0.726 -4.656,0.726c-1.848,0 -3.572,-0.333 -5.182,-0.968c-1.603,-0.665 -2.998,-1.603 -4.174,-2.874c-1.183,-1.27 -2.112,-2.843 -2.792,-4.719c-0.678,-1.906 -1.017,-4.053 -1.014,-6.504c0.006,-2.48 0.342,-4.689 1.01,-6.594c0.669,-1.936 1.589,-3.54 2.753,-4.871c1.168,-1.301 2.553,-2.299 4.163,-2.964c1.609,-0.696 3.373,-1.029 5.294,-1.029c3.215,0 5.908,0.817 8.086,2.45c2.178,1.634 3.503,3.873 3.981,6.686l-4.547,-0.03c-0.366,-1.755 -1.204,-3.146 -2.514,-4.114c-1.31,-0.999 -2.943,-1.483 -4.9,-1.483c-1.295,0 -2.487,0.212 -3.576,0.696c-1.092,0.484 -2.045,1.24 -2.859,2.208c-0.813,0.999 -1.446,2.269 -1.89,3.812c-0.448,1.543 -0.675,3.328 -0.678,5.415c-0.003,1.966 0.236,3.66 0.711,5.082c0.478,1.422 1.122,2.602 1.933,3.509c0.811,0.938 1.76,1.634 2.853,2.087c1.086,0.484 2.241,0.696 3.46,0.696c2.033,0.03 3.751,-0.544 5.158,-1.633c1.404,-1.12 2.257,-2.632 2.559,-4.568l4.432,0.03" style="fill:#0e274d;fill-rule:nonzero;"/><path d="M224.392,271.005c-2.402,0 -4.453,0.787 -6.156,2.39c-1.703,1.573 -2.723,3.963 -3.062,7.139l18.178,0.031c-0.178,-3.177 -1.098,-5.567 -2.756,-7.17c-1.661,-1.573 -3.73,-2.39 -6.204,-2.39Zm12.769,18.272c-0.748,2.662 -2.19,4.84 -4.338,6.473c-2.145,1.634 -4.862,2.451 -8.15,2.451c-1.996,-0 -3.842,-0.333 -5.542,-0.968c-1.697,-0.666 -3.155,-1.634 -4.371,-2.935c-1.216,-1.3 -2.175,-2.904 -2.874,-4.779c-0.699,-1.876 -1.044,-4.084 -1.037,-6.595c0.003,-2.48 0.347,-4.689 1.034,-6.595c0.69,-1.905 1.634,-3.509 2.835,-4.779c1.204,-1.301 2.628,-2.269 4.274,-2.904c1.646,-0.636 3.427,-0.968 5.351,-0.968c1.918,-0 3.685,0.332 5.291,0.968c1.604,0.605 2.998,1.603 4.178,2.904c1.18,1.331 2.102,2.995 2.762,5.052c0.659,2.057 0.989,4.507 0.983,7.32l-22.501,-0.06c0.07,1.845 0.372,3.448 0.905,4.84c0.535,1.361 1.234,2.481 2.099,3.388c0.869,0.877 1.885,1.543 3.047,1.966c1.164,0.424 2.411,0.636 3.739,0.636c1.96,0.03 3.639,-0.484 5.048,-1.452c1.404,-0.968 2.348,-2.299 2.832,-3.963l4.435,-0" style="fill:#0e274d;fill-rule:nonzero;"/><path d="M244.348,297.414l0.055,-28.859l3.382,-0l0.544,4.931c0.781,-1.936 1.833,-3.388 3.168,-4.326c1.331,-0.968 2.846,-1.422 4.546,-1.422c0.629,0 1.21,0.061 1.746,0.151c0.535,0.091 0.971,0.182 1.301,0.242l-0.007,4.115c-0.517,-0.152 -1.025,-0.273 -1.524,-0.363c-0.496,-0.091 -1.062,-0.152 -1.688,-0.152c-0.998,0 -1.942,0.212 -2.829,0.636c-0.889,0.423 -1.663,1.089 -2.332,1.966c-0.665,0.877 -1.204,1.996 -1.612,3.297c-0.412,1.301 -0.614,2.874 -0.617,4.629l-0.031,15.155l-4.102,0" style="fill:#0e274d;fill-rule:nonzero;"/></g></g><g><path d="M930.366,204.054c-0.183,96.659 -78.604,174.899 -175.155,174.719c-96.551,-0.18 -174.672,-78.721 -174.489,-175.381c0.184,-96.689 78.602,-174.929 175.153,-174.749c96.554,0.21 174.674,78.721 174.491,175.411" style="fill:#e8ebf1;fill-rule:nonzero;"/><g><path d="M917.093,4.978c-8.835,-0 -17.163,3.432 -23.431,9.701c-6.537,6.507 -10,14.864 -10.03,23.73c-0.029,8.894 3.433,17.252 9.671,23.55c12.925,12.985 33.998,13.044 46.983,0.09c13.223,-13.193 13.253,-34.297 0.328,-47.281c-6.238,-6.298 -14.596,-9.79 -23.461,-9.79l-0.06,-0m-0.328,71.219c-9.671,0 -19.313,-3.701 -26.625,-11.074c-7.105,-7.134 -11.015,-16.626 -11.015,-26.714c0.03,-10.089 3.97,-19.551 11.104,-26.685c7.373,-7.343 16.805,-11.253 26.864,-11.253l0.09,-0c10.059,0.029 19.521,3.969 26.625,11.103c14.685,14.746 14.626,38.714 -0.09,53.4c-7.522,7.492 -17.252,11.223 -26.953,11.223" style="fill:#e8ebf1;fill-rule:nonzero;"/><path d="M932.973,61.75l-16.029,-8.447l-16.059,8.388l3.104,-17.85l-12.954,-12.716l17.939,-2.567l8.059,-16.237l7.97,16.267l17.939,2.657l-13.014,12.626l3.045,17.879" style="fill:#e8ebf1;fill-rule:nonzero;"/></g><g><path d="M648.282,144.949l-0.075,39.645l-5.331,-0.012l-21.326,-34.509l-0.066,34.467l-3.959,-0.006l0.075,-39.645l5.553,0.009l21.161,34.233l0.066,-34.191l3.902,0.009" style="fill:#0e274d;fill-rule:nonzero;"/><path d="M668.384,158.477c-2.384,-0.006 -4.422,0.781 -6.109,2.357c-1.689,1.573 -2.701,3.938 -3.037,7.095l18.036,0.036c-0.18,-3.16 -1.089,-5.528 -2.737,-7.107c-1.645,-1.582 -3.698,-2.378 -6.153,-2.381Zm12.666,18.139c-0.738,2.641 -2.17,4.779 -4.301,6.405c-2.128,1.63 -4.823,2.444 -8.086,2.438c-1.981,-0.003 -3.815,-0.327 -5.499,-0.976c-1.684,-0.645 -3.131,-1.612 -4.337,-2.896c-1.207,-1.288 -2.158,-2.87 -2.852,-4.743c-0.693,-1.873 -1.035,-4.058 -1.029,-6.555c0.003,-2.459 0.345,-4.635 1.026,-6.523c0.682,-1.891 1.618,-3.476 2.813,-4.757c1.194,-1.282 2.608,-2.245 4.241,-2.885c1.633,-0.636 3.401,-0.954 5.31,-0.951c1.903,0.003 3.656,0.321 5.249,0.945c1.591,0.625 2.975,1.594 4.146,2.9c1.17,1.305 2.083,2.977 2.74,5.015c0.654,2.038 0.982,4.455 0.976,7.24l-22.326,-0.039c0.069,1.837 0.369,3.431 0.897,4.791c0.529,1.359 1.225,2.479 2.083,3.362c0.862,0.882 1.867,1.536 3.023,1.963c1.153,0.42 2.389,0.636 3.71,0.639c1.942,0.003 3.611,-0.483 5.007,-1.45c1.395,-0.969 2.332,-2.281 2.812,-3.932l4.397,0.009" style="fill:#0e274d;fill-rule:nonzero;"/><path d="M693.456,159.57l-0.036,18.778c-0,1.21 0.3,2.11 0.903,2.698c0.604,0.589 1.438,0.886 2.501,0.886c0.513,0.003 1.008,-0.027 1.486,-0.078c0.477,-0.054 1.098,-0.174 1.87,-0.357l-0.006,3.469c-1.321,0.367 -2.588,0.547 -3.797,0.544c-2.309,-0.003 -4.059,-0.649 -5.247,-1.936c-1.189,-1.288 -1.783,-3.068 -1.78,-5.346l0.036,-18.667l-4.178,-0.006l0.009,-3.524l4.178,0.006l0.288,-6.879l3.794,0.006l-0.012,6.882l6.432,0.012l-0.006,3.524l-6.435,-0.012" style="fill:#0e274d;fill-rule:nonzero;"/><path d="M743.724,156.142l-8.357,28.617l-4.841,-0.009l-7.432,-24.189l-7.303,24.162l-4.95,-0.012l-8.47,-28.647l4.235,0.009l6.829,24.349l7.248,-24.322l5.004,0.009l7.267,24.241l6.645,-24.217l4.125,0.009" style="fill:#0e274d;fill-rule:nonzero;"/><path d="M750.678,170.472c-0.003,1.945 0.231,3.653 0.706,5.124c0.474,1.467 1.131,2.695 1.972,3.691c0.84,0.991 1.84,1.735 2.992,2.234c1.156,0.498 2.411,0.747 3.767,0.75c1.354,0.003 2.603,-0.243 3.74,-0.735c1.138,-0.496 2.119,-1.234 2.948,-2.222c0.825,-0.993 1.468,-2.218 1.93,-3.685c0.462,-1.471 0.693,-3.176 0.696,-5.124c0.006,-1.981 -0.231,-3.707 -0.705,-5.175c-0.471,-1.468 -1.12,-2.701 -1.945,-3.692c-0.823,-0.996 -1.801,-1.732 -2.936,-2.209c-1.137,-0.477 -2.383,-0.72 -3.737,-0.723c-1.356,-0.003 -2.605,0.243 -3.743,0.738c-1.137,0.492 -2.128,1.231 -2.974,2.221c-0.844,0.988 -1.507,2.218 -1.984,3.689c-0.481,1.465 -0.721,3.17 -0.727,5.118Zm-4.232,-0.009c0.003,-2.534 0.366,-4.752 1.084,-6.661c0.72,-1.906 1.693,-3.485 2.923,-4.73c1.231,-1.243 2.672,-2.179 4.322,-2.801c1.651,-0.618 3.428,-0.927 5.337,-0.924c1.903,0.006 3.692,0.321 5.358,0.945c1.669,0.628 3.107,1.576 4.31,2.846c1.21,1.266 2.162,2.848 2.852,4.736c0.693,1.894 1.039,4.109 1.033,6.64c-0.006,2.497 -0.349,4.691 -1.03,6.579c-0.681,1.891 -1.63,3.464 -2.84,4.731c-1.215,1.263 -2.653,2.215 -4.325,2.854c-1.669,0.64 -3.473,0.958 -5.415,0.955c-1.945,-0.003 -3.749,-0.33 -5.418,-0.976c-1.665,-0.645 -3.103,-1.612 -4.31,-2.899c-1.206,-1.285 -2.155,-2.867 -2.848,-4.743c-0.697,-1.87 -1.039,-4.055 -1.033,-6.552" style="fill:#0e274d;fill-rule:nonzero;"/><path d="M780.127,184.843l0.054,-28.632l3.353,0.006l0.543,4.905c0.771,-1.948 1.819,-3.386 3.14,-4.319c1.323,-0.934 2.827,-1.399 4.514,-1.396c0.621,-0 1.201,0.051 1.732,0.141c0.531,0.09 0.961,0.18 1.291,0.252l-0.009,4.073c-0.511,-0.147 -1.015,-0.267 -1.51,-0.36c-0.495,-0.096 -1.054,-0.141 -1.678,-0.141c-0.988,-0.003 -1.924,0.207 -2.804,0.627c-0.882,0.42 -1.653,1.072 -2.314,1.948c-0.663,0.883 -1.194,1.975 -1.6,3.275c-0.408,1.303 -0.612,2.837 -0.615,4.598l-0.027,15.032l-4.07,-0.009" style="fill:#0e274d;fill-rule:nonzero;"/><path d="M799.262,184.882l0.075,-39.645l4.07,0.003l-0.042,22.41l12.505,-11.373l5.442,0.012l-13.826,12.418l15.477,16.217l-5.499,-0.012l-14.105,-14.782l-0.027,14.755l-4.07,-0.003" style="fill:#0e274d;fill-rule:nonzero;"/><path d="M826.757,184.933l0.054,-28.632l4.124,0.006l-0.054,28.632l-4.124,-0.006Zm-0.207,-34.527l0.006,-5.121l4.676,0.009l-0.009,5.121l-4.673,-0.009" style="fill:#0e274d;fill-rule:nonzero;"/><path d="M838.856,184.954l0.054,-28.632l3.353,0.009l0.486,4.293c0.997,-1.687 2.299,-2.96 3.914,-3.821c1.615,-0.859 3.338,-1.285 5.172,-1.282c3.113,0.006 5.559,0.909 7.336,2.71c1.771,1.804 2.656,4.359 2.65,7.66l-0.036,19.109l-4.067,-0.007l0.036,-18.997c0.003,-2.314 -0.588,-4.058 -1.78,-5.237c-1.189,-1.174 -2.881,-1.765 -5.082,-1.771c-1.026,-0.003 -2.017,0.189 -2.968,0.573c-0.958,0.384 -1.801,0.934 -2.533,1.648c-0.736,0.711 -1.324,1.576 -1.768,2.581c-0.442,1.012 -0.661,2.158 -0.664,3.443l-0.033,17.73l-4.07,-0.009" style="fill:#0e274d;fill-rule:nonzero;"/><path d="M872.261,170.097c-0,1.687 0.234,3.184 0.708,4.487c0.474,1.306 1.111,2.41 1.918,3.308c0.805,0.9 1.756,1.585 2.858,2.044c1.095,0.459 2.269,0.693 3.518,0.696c1.317,0 2.527,-0.21 3.628,-0.627c1.102,-0.42 2.066,-1.06 2.891,-1.921c0.825,-0.859 1.471,-1.954 1.93,-3.275c0.462,-1.318 0.693,-2.878 0.696,-4.679c0.003,-1.834 -0.222,-3.449 -0.678,-4.848c-0.456,-1.396 -1.087,-2.548 -1.891,-3.47c-0.804,-0.918 -1.774,-1.609 -2.909,-2.071c-1.137,-0.462 -2.362,-0.693 -3.683,-0.696c-1.284,-0.003 -2.467,0.216 -3.547,0.654c-1.084,0.438 -2.029,1.117 -2.837,2.035c-0.807,0.913 -1.444,2.071 -1.903,3.461c-0.462,1.396 -0.693,3.032 -0.699,4.902Zm1.344,17.238c0.328,1.687 1.177,2.974 2.549,3.86c1.375,0.879 3.16,1.326 5.361,1.329c2.749,0.006 4.865,-0.705 6.354,-2.137c1.486,-1.425 2.233,-3.385 2.239,-5.883l0.009,-5.009c-0.957,1.389 -2.242,2.509 -3.857,3.349c-1.615,0.841 -3.575,1.261 -5.886,1.255c-1.651,-0.003 -3.215,-0.312 -4.7,-0.918c-1.483,-0.61 -2.792,-1.513 -3.927,-2.705c-1.134,-1.198 -2.038,-2.668 -2.713,-4.412c-0.675,-1.744 -1.012,-3.755 -1.006,-6.033c0.003,-2.276 0.319,-4.311 0.946,-6.109c0.627,-1.798 1.501,-3.307 2.62,-4.535c1.123,-1.231 2.453,-2.17 3.992,-2.831c1.543,-0.657 3.23,-0.984 5.061,-0.981c2.311,0.006 4.262,0.495 5.856,1.471c1.591,0.975 2.843,2.236 3.758,3.782l0.67,-4.407l3.352,0.006l-0.054,28.248c-0.003,1.579 -0.288,3.047 -0.858,4.404c-0.573,1.353 -1.39,2.53 -2.455,3.521c-1.066,0.987 -2.387,1.767 -3.962,2.332c-1.579,0.567 -3.359,0.843 -5.337,0.84c-3.557,-0.006 -6.379,-0.756 -8.465,-2.245c-2.086,-1.492 -3.383,-3.557 -3.893,-6.201l4.346,0.009" style="fill:#0e274d;fill-rule:nonzero;"/><path d="M658.704,232.356l-18.145,-0.036l-0.03,14.644l19.741,0.039l-0.006,3.689l-24.03,-0.045l0.075,-39.645l24.03,0.045l-0.006,3.689l-19.741,-0.039l-0.027,13.988l18.145,0.036l-0.006,3.635" style="fill:#0e274d;fill-rule:nonzero;"/><path d="M684.307,243.083c0.003,-0.882 -0.189,-1.624 -0.573,-2.23c-0.384,-0.606 -0.943,-1.132 -1.675,-1.57c-0.729,-0.447 -1.648,-0.822 -2.746,-1.134c-1.099,-0.319 -2.384,-0.622 -3.846,-0.916c-3.115,-0.633 -5.45,-1.591 -7.008,-2.878c-1.555,-1.288 -2.329,-3.035 -2.326,-5.238c0.006,-2.314 0.915,-4.202 2.734,-5.667c1.816,-1.462 4.502,-2.191 8.056,-2.185c3.116,0.006 5.694,0.735 7.726,2.188c2.029,1.456 3.263,3.452 3.698,5.982l-4.178,-0.009c-0.291,-1.468 -1.068,-2.65 -2.329,-3.551c-1.264,-0.903 -2.942,-1.357 -5.031,-1.363c-2.236,-0.003 -3.878,0.406 -4.922,1.231c-1.048,0.823 -1.573,1.822 -1.573,2.999c-0.003,0.66 0.105,1.248 0.324,1.762c0.219,0.516 0.603,0.975 1.153,1.38c0.549,0.4 1.302,0.766 2.251,1.078c0.954,0.312 2.146,0.618 3.575,0.915c1.759,0.37 3.316,0.784 4.67,1.246c1.357,0.462 2.491,1.042 3.407,1.741c0.912,0.699 1.609,1.528 2.086,2.482c0.474,0.955 0.708,2.113 0.708,3.47c-0.003,1.213 -0.261,2.35 -0.777,3.413c-0.516,1.062 -1.267,1.99 -2.26,2.776c-0.991,0.787 -2.2,1.414 -3.632,1.867c-1.429,0.454 -3.065,0.682 -4.896,0.676c-3.485,-0.003 -6.258,-0.802 -8.326,-2.381c-2.071,-1.581 -3.248,-3.697 -3.536,-6.339l4.178,0.006c0.291,1.765 1.096,3.104 2.413,4.025c1.318,0.922 3.095,1.384 5.331,1.39c2.42,0.003 4.245,-0.51 5.475,-1.534c1.231,-1.026 1.846,-2.236 1.849,-3.632" style="fill:#0e274d;fill-rule:nonzero;"/><path d="M711.64,243.137c-0,-0.882 -0.192,-1.624 -0.574,-2.23c-0.384,-0.612 -0.942,-1.131 -1.675,-1.576c-0.732,-0.441 -1.647,-0.819 -2.746,-1.131c-1.099,-0.315 -2.383,-0.622 -3.848,-0.916c-3.116,-0.63 -5.451,-1.591 -7.006,-2.875c-1.558,-1.288 -2.332,-3.035 -2.326,-5.241c0.003,-2.311 0.916,-4.199 2.731,-5.664c1.819,-1.465 4.503,-2.194 8.06,-2.188c3.115,0.006 5.691,0.735 7.723,2.191c2.032,1.453 3.263,3.446 3.698,5.982l-4.178,-0.009c-0.292,-1.468 -1.069,-2.653 -2.33,-3.557c-1.263,-0.897 -2.938,-1.357 -5.03,-1.36c-2.237,-0.003 -3.875,0.409 -4.923,1.231c-1.047,0.826 -1.57,1.825 -1.573,2.999c0,0.66 0.108,1.248 0.327,1.762c0.22,0.513 0.604,0.975 1.153,1.38c0.546,0.403 1.3,0.766 2.251,1.078c0.955,0.312 2.146,0.621 3.572,0.915c1.762,0.37 3.317,0.787 4.674,1.246c1.353,0.465 2.491,1.042 3.406,1.741c0.913,0.699 1.609,1.528 2.083,2.485c0.475,0.955 0.712,2.113 0.709,3.47c-0.003,1.21 -0.261,2.35 -0.775,3.413c-0.516,1.063 -1.269,1.987 -2.26,2.773c-0.99,0.79 -2.203,1.411 -3.635,1.864c-1.428,0.457 -3.061,0.685 -4.895,0.682c-3.482,-0.006 -6.259,-0.805 -8.327,-2.383c-2.068,-1.582 -3.244,-3.695 -3.533,-6.34l4.179,0.009c0.288,1.762 1.095,3.104 2.41,4.025c1.318,0.919 3.095,1.381 5.331,1.384c2.422,0.006 4.244,-0.504 5.478,-1.528c1.227,-1.026 1.846,-2.236 1.849,-3.632" style="fill:#0e274d;fill-rule:nonzero;"/><path d="M734.11,224.678c-2.384,-0.006 -4.422,0.783 -6.109,2.356c-1.69,1.573 -2.701,3.941 -3.037,7.099l18.036,0.03c-0.18,-3.155 -1.089,-5.523 -2.737,-7.108c-1.645,-1.579 -3.698,-2.374 -6.153,-2.377Zm12.669,18.138c-0.741,2.642 -2.173,4.779 -4.304,6.409c-2.128,1.629 -4.824,2.443 -8.086,2.437c-1.981,-0.006 -3.812,-0.333 -5.499,-0.979c-1.684,-0.642 -3.131,-1.612 -4.338,-2.896c-1.206,-1.285 -2.158,-2.87 -2.851,-4.746c-0.693,-1.87 -1.036,-4.052 -1.03,-6.549c0.003,-2.459 0.346,-4.635 1.027,-6.526c0.684,-1.888 1.621,-3.473 2.812,-4.757c1.195,-1.282 2.609,-2.242 4.242,-2.882c1.633,-0.639 3.401,-0.957 5.31,-0.954c1.903,0.006 3.655,0.321 5.249,0.945c1.591,0.628 2.975,1.594 4.146,2.903c1.17,1.302 2.086,2.974 2.74,5.012c0.654,2.042 0.981,4.455 0.975,7.243l-22.325,-0.042c0.069,1.84 0.369,3.434 0.897,4.794c0.531,1.357 1.225,2.479 2.083,3.359c0.862,0.885 1.867,1.539 3.023,1.96c1.152,0.426 2.392,0.639 3.71,0.642c1.942,0.003 3.611,-0.48 5.006,-1.447c1.396,-0.969 2.333,-2.281 2.813,-3.935l4.4,0.009" style="fill:#0e274d;fill-rule:nonzero;"/><path d="M753.911,250.869l0.054,-28.632l3.356,0.009l0.486,4.293c0.994,-1.684 2.296,-2.96 3.911,-3.822c1.615,-0.858 3.338,-1.284 5.172,-1.281c3.116,0.006 5.562,0.909 7.336,2.713c1.774,1.801 2.659,4.356 2.653,7.657l-0.039,19.108l-4.067,-0.006l0.036,-19c0.006,-2.311 -0.588,-4.055 -1.777,-5.234c-1.192,-1.174 -2.884,-1.768 -5.082,-1.771c-1.029,-0.003 -2.017,0.189 -2.971,0.573c-0.955,0.384 -1.798,0.93 -2.533,1.648c-0.736,0.711 -1.324,1.576 -1.765,2.581c-0.442,1.012 -0.664,2.158 -0.667,3.443l-0.033,17.73l-4.07,-0.009" style="fill:#0e274d;fill-rule:nonzero;"/><path d="M789.978,225.83l-0.036,18.778c-0.003,1.21 0.297,2.11 0.901,2.696c0.606,0.594 1.437,0.885 2.5,0.888c0.513,-0 1.008,-0.024 1.486,-0.078c0.477,-0.057 1.098,-0.174 1.87,-0.357l-0.006,3.47c-1.321,0.363 -2.588,0.546 -3.794,0.546c-2.312,-0.006 -4.061,-0.651 -5.247,-1.942c-1.192,-1.288 -1.783,-3.065 -1.78,-5.343l0.036,-18.667l-4.178,-0.009l0.006,-3.524l4.178,0.009l0.288,-6.882l3.794,0.009l-0.012,6.882l6.433,0.012l-0.006,3.524l-6.433,-0.012" style="fill:#0e274d;fill-rule:nonzero;"/><path d="M801.696,250.959l0.054,-28.632l4.125,0.009l-0.054,28.632l-4.125,-0.009Zm-0.21,-34.524l0.012,-5.121l4.674,0.009l-0.009,5.121l-4.677,-0.009" style="fill:#0e274d;fill-rule:nonzero;"/><path d="M831.586,236.153l-7.426,1.251c-1.504,0.255 -2.752,0.562 -3.74,0.925c-0.993,0.369 -1.783,0.798 -2.371,1.293c-0.585,0.496 -1,1.042 -1.24,1.648c-0.24,0.607 -0.36,1.276 -0.36,2.011c-0.003,1.651 0.573,2.909 1.723,3.773c1.156,0.865 2.723,1.3 4.701,1.303c1.062,0.003 2.119,-0.189 3.163,-0.57c1.045,-0.381 1.981,-0.916 2.81,-1.594c0.825,-0.675 1.486,-1.492 1.984,-2.446c0.495,-0.952 0.744,-1.978 0.747,-3.083l0.009,-4.511Zm-18.742,-6.094c0.261,-2.569 1.429,-4.634 3.506,-6.189c2.071,-1.558 4.797,-2.332 8.167,-2.326c3.482,0.006 6.214,0.885 8.192,2.629c1.975,1.75 2.962,4.094 2.956,7.027l-0.039,19.825l-3.355,-0.006l-0.487,-4.352c-0.918,1.393 -2.194,2.603 -3.827,3.626c-1.636,1.024 -3.659,1.537 -6.081,1.531c-2.969,-0.003 -5.334,-0.753 -7.087,-2.242c-1.759,-1.489 -2.632,-3.464 -2.629,-5.922c0.006,-2.537 0.843,-4.56 2.512,-6.082c1.672,-1.521 4.47,-2.605 8.393,-3.262l8.527,-1.411l0.003,-1.987c0.003,-1.906 -0.624,-3.404 -1.888,-4.494c-1.263,-1.08 -3.049,-1.629 -5.358,-1.632c-2.2,-0.003 -3.905,0.471 -5.117,1.425c-1.213,0.952 -1.912,2.234 -2.098,3.848l-4.29,-0.006" style="fill:#0e274d;fill-rule:nonzero;"/><path d="M847.504,251.046l-4.071,-0.006l0.076,-39.645l4.07,0.006l-0.075,39.645" style="fill:#0e274d;fill-rule:nonzero;"/><path d="M872.702,243.44c0.003,-0.882 -0.189,-1.623 -0.57,-2.23c-0.385,-0.606 -0.943,-1.131 -1.678,-1.57c-0.73,-0.447 -1.645,-0.822 -2.747,-1.134c-1.098,-0.318 -2.383,-0.618 -3.845,-0.916c-3.115,-0.63 -5.451,-1.59 -7.008,-2.878c-1.555,-1.288 -2.33,-3.032 -2.327,-5.235c0.006,-2.314 0.916,-4.202 2.735,-5.67c1.816,-1.459 4.502,-2.191 8.056,-2.182c3.119,0.006 5.694,0.732 7.726,2.188c2.029,1.456 3.263,3.449 3.698,5.979l-4.178,-0.009c-0.291,-1.468 -1.069,-2.647 -2.329,-3.551c-1.264,-0.903 -2.942,-1.356 -5.031,-1.362c-2.236,-0.003 -3.878,0.408 -4.923,1.23c-1.047,0.826 -1.572,1.822 -1.572,2.999c-0.003,0.66 0.108,1.249 0.324,1.762c0.219,0.516 0.603,0.975 1.155,1.381c0.547,0.405 1.3,0.765 2.252,1.077c0.951,0.312 2.143,0.618 3.571,0.916c1.759,0.369 3.317,0.786 4.674,1.245c1.354,0.462 2.488,1.045 3.404,1.741c0.915,0.7 1.612,1.528 2.086,2.485c0.474,0.955 0.711,2.111 0.708,3.467c-0.003,1.213 -0.261,2.354 -0.777,3.416c-0.517,1.063 -1.267,1.987 -2.26,2.774c-0.991,0.789 -2.201,1.413 -3.632,1.867c-1.429,0.453 -3.065,0.684 -4.896,0.681c-3.485,-0.009 -6.258,-0.804 -8.326,-2.386c-2.068,-1.582 -3.245,-3.698 -3.536,-6.34l4.178,0.009c0.291,1.762 1.096,3.101 2.413,4.022c1.318,0.922 3.095,1.384 5.331,1.39c2.419,0.003 4.244,-0.51 5.475,-1.534c1.231,-1.026 1.846,-2.236 1.849,-3.632" style="fill:#0e274d;fill-rule:nonzero;"/></g></g><g><g><path d="M1631.3,204.047c-0.183,96.684 -78.601,174.909 -175.152,174.726c-96.551,-0.183 -174.675,-78.709 -174.492,-175.39c0.184,-96.683 78.605,-174.908 175.156,-174.725c96.551,0.183 174.671,78.709 174.488,175.389" style="fill:#00bcea;fill-rule:nonzero;"/><path d="M1423.01,220.973l-0.078,39.685l-4.293,-0.009l0.075,-39.685l4.296,0.009" style="fill:#0e274d;fill-rule:nonzero;"/><path d="M1459,224.9l-13.32,-0.027l-0.069,35.827l-4.35,-0.009l0.069,-35.827l-13.212,-0.024l0.009,-3.858l30.882,0.06l-0.009,3.858" style="fill:#0e274d;fill-rule:nonzero;"/><path d="M1494.84,221.108l-0.078,39.685l-5.336,-0.009l-21.348,-34.544l-0.066,34.502l-3.963,-0.009l0.075,-39.685l5.561,0.012l21.18,34.271l0.066,-34.229l3.909,0.006" style="fill:#0e274d;fill-rule:nonzero;"/><path d="M1399.74,184.866c-2.717,-0.006 -5.183,-0.481 -7.401,-1.421c-2.22,-0.941 -4.107,-2.296 -5.664,-4.063c-1.553,-1.766 -2.761,-3.918 -3.617,-6.457c-0.86,-2.535 -1.283,-5.402 -1.28,-8.599c0.006,-3.38 0.472,-6.367 1.394,-8.957c0.922,-2.587 2.193,-4.762 3.81,-6.523c1.619,-1.76 3.539,-3.088 5.76,-3.984c2.223,-0.895 4.657,-1.343 7.298,-1.337c2.238,0.003 4.321,0.34 6.244,1.004c1.926,0.664 3.611,1.589 5.059,2.767c1.449,1.178 2.62,2.566 3.516,4.164c0.895,1.605 1.451,3.36 1.667,5.27l-4.347,-0.009c-0.508,-3.013 -1.842,-5.357 -4.005,-7.036c-2.164,-1.674 -4.877,-2.515 -8.143,-2.521c-1.98,-0.003 -3.816,0.357 -5.505,1.09c-1.688,0.734 -3.151,1.812 -4.383,3.245c-1.232,1.431 -2.2,3.221 -2.9,5.37c-0.703,2.145 -1.054,4.636 -1.06,7.463c-0.006,2.647 0.33,5.018 1.006,7.115c0.673,2.094 1.617,3.861 2.825,5.294c1.207,1.437 2.644,2.533 4.314,3.29c1.668,0.758 3.492,1.136 5.475,1.139c1.688,0.003 3.257,-0.249 4.708,-0.763c1.451,-0.511 2.707,-1.235 3.774,-2.169c1.066,-0.935 1.941,-2.065 2.62,-3.387c0.682,-1.319 1.099,-2.77 1.247,-4.35l4.35,0.009c-0.189,1.947 -0.706,3.783 -1.55,5.51c-0.85,1.725 -1.998,3.245 -3.449,4.567c-1.455,1.319 -3.173,2.365 -5.153,3.134c-1.983,0.766 -4.189,1.148 -6.61,1.145" style="fill:#0e274d;fill-rule:nonzero;"/><path d="M1438.49,184.938c-2.713,-0.006 -5.18,-0.481 -7.397,-1.418c-2.221,-0.944 -4.107,-2.299 -5.664,-4.065c-1.556,-1.767 -2.764,-3.919 -3.62,-6.454c-0.857,-2.539 -1.283,-5.406 -1.277,-8.603c0.006,-3.38 0.471,-6.367 1.391,-8.954c0.922,-2.587 2.193,-4.762 3.813,-6.523c1.616,-1.76 3.536,-3.088 5.76,-3.987c2.22,-0.895 4.654,-1.34 7.295,-1.337c2.238,0.006 4.32,0.34 6.246,1.007c1.926,0.664 3.609,1.586 5.06,2.764c1.445,1.181 2.617,2.569 3.516,4.167c0.895,1.602 1.451,3.357 1.667,5.268l-4.347,-0.009c-0.508,-3.011 -1.845,-5.358 -4.006,-7.034c-2.163,-1.677 -4.876,-2.515 -8.142,-2.524c-1.983,-0.003 -3.816,0.36 -5.505,1.09c-1.691,0.734 -3.155,1.815 -4.383,3.246c-1.235,1.43 -2.2,3.22 -2.903,5.369c-0.7,2.148 -1.055,4.639 -1.058,7.466c-0.006,2.647 0.328,5.015 1.004,7.112c0.676,2.098 1.616,3.861 2.824,5.297c1.211,1.437 2.647,2.533 4.315,3.288c1.671,0.757 3.494,1.135 5.474,1.138c1.689,0.003 3.257,-0.249 4.709,-0.76c1.451,-0.511 2.71,-1.235 3.777,-2.172c1.063,-0.932 1.938,-2.061 2.62,-3.383c0.682,-1.322 1.096,-2.771 1.246,-4.351l4.348,0.009c-0.186,1.947 -0.703,3.783 -1.55,5.507c-0.85,1.725 -1.998,3.248 -3.45,4.567c-1.454,1.322 -3.169,2.365 -5.152,3.134c-1.984,0.766 -4.186,1.148 -6.611,1.145" style="fill:#0e274d;fill-rule:nonzero;"/><path d="M1492.79,144.529l-0.078,39.685l-5.336,-0.012l-21.348,-34.544l-0.066,34.505l-3.963,-0.006l0.075,-39.685l5.561,0.009l21.18,34.267l0.066,-34.228l3.909,0.009" style="fill:#0e274d;fill-rule:nonzero;"/><path d="M1507.38,170.02l16.678,0.033l-8.217,-21.183l-8.461,21.15Zm22.21,14.263l-4.107,-10.645l-19.488,-0.036l-4.258,10.63l-4.516,-0.009l16.15,-39.655l5.066,0.009l15.942,39.715l-4.789,-0.009" style="fill:#0e274d;fill-rule:nonzero;"/></g><g><path d="M1277.6,63.531c6.337,6.37 14.771,9.888 23.746,9.906l0.066,0c8.95,0 17.369,-3.485 23.715,-9.81c6.361,-6.346 9.873,-14.792 9.892,-23.782c0.015,-8.987 -3.465,-17.445 -9.802,-23.808c-13.076,-13.149 -34.397,-13.197 -47.527,-0.094c-13.127,13.098 -13.166,34.446 -0.09,47.594l-0,-0.006Zm23.812,14.443l-0.075,0c-10.186,-0.018 -19.759,-4.008 -26.949,-11.231l-0,-0.006c-14.843,-14.915 -14.795,-39.151 0.102,-54.018c14.9,-14.861 39.099,-14.812 53.942,0.115c7.19,7.223 11.139,16.82 11.117,27.023c-0.015,10.201 -4.005,19.786 -11.219,26.985c-7.202,7.184 -16.76,11.132 -26.918,11.132" style="fill:#00bcea;fill-rule:nonzero;"/><path d="M1326.22,29.098l-5.562,24.833c-0.757,3.386 -3.764,5.793 -7.229,5.787c-3.383,-0.009 -6.319,-2.35 -7.076,-5.652l-4.687,-20.362l-4.54,20.428c-0.721,3.242 -3.597,5.547 -6.911,5.541c-3.329,-0.006 -6.219,-2.299 -6.988,-5.544l-5.877,-24.779c-0.755,-3.188 1.664,-6.247 4.936,-6.241l0.135,0c2.542,0.006 4.685,1.797 5.117,4.279c1.22,6.977 3.51,20.053 3.51,20.053l4.311,-19.097c0.688,-3.044 3.393,-5.204 6.508,-5.198l0.139,-0c3.196,0.006 5.946,2.19 6.673,5.279c1.703,7.208 4.57,19.262 4.57,19.262l3.467,-20.464c0.397,-2.335 2.419,-4.044 4.787,-4.038c3.1,0.006 5.396,2.884 4.717,5.913" style="fill:#00bcea;fill-rule:nonzero;"/></g><g><path d="M1590.09,65.233c6.304,6.331 14.693,9.834 23.626,9.849l0.063,0c8.909,0 17.286,-3.464 23.592,-9.762c6.583,-6.562 10.078,-14.96 10.096,-23.904c0.015,-8.948 -3.446,-17.358 -9.75,-23.689c-13.001,-13.073 -34.22,-13.127 -47.281,-0.096c-13.314,13.28 -13.353,34.523 -0.346,47.602m23.689,14.377l-0.072,0c-10.141,-0.018 -19.663,-3.99 -26.823,-11.177c-14.764,-14.852 -14.722,-38.967 0.103,-53.759c15.095,-15.038 39.171,-14.996 53.936,-0.147c7.157,7.196 11.084,16.745 11.066,26.895c-0.018,10.152 -3.987,19.689 -11.168,26.855c-7.416,7.403 -16.929,11.333 -27.042,11.333" style="fill:#00bcea;fill-rule:nonzero;"/><path d="M1630.01,65.041l-16.129,-8.527l-16.159,8.467l3.116,-17.995l-13.034,-12.773l18.055,-2.593l8.1,-16.36l8.041,16.39l18.045,2.663l-13.085,12.721l3.05,18.007" style="fill:#00bcea;fill-rule:nonzero;"/></g></g></g></svg>