<?xml version="1.0" encoding="UTF-8" standalone="no"?><!DOCTYPE svg PUBLIC "-//W3C//DTD SVG 1.1//EN" "http://www.w3.org/Graphics/SVG/1.1/DTD/svg11.dtd"><svg width="100%" height="100%" viewBox="0 0 313 167" version="1.1" xmlns="http://www.w3.org/2000/svg" xmlns:xlink="http://www.w3.org/1999/xlink" xml:space="preserve" xmlns:serif="http://www.serif.com/" style="fill-rule:evenodd;clip-rule:evenodd;stroke-linecap:round;stroke-linejoin:round;stroke-miterlimit:1.5;"><g id="CoursesImage"><circle cx="68.37" cy="34.707" r="2.584" style="fill:#ffa400;"/><path d="M62.851,11.277l4.991,21.187" style="fill:none;stroke:#00c0ef;stroke-width:2px;"/><path d="M16.447,26.091c2.815,-0.414 15.281,-0.29 19.079,-0.514c0.692,-0.041 0.792,-0.046 1.056,-0.097c0.179,-0.034 0.641,-0.238 0.641,-0.238l16.457,-7.573c-0,-0 1.053,-0.53 1.445,0.959c0.392,1.49 1.479,7.928 1.401,11.066c-0.054,2.16 -13.063,7.15 -16.277,8.012c-3.214,0.862 -17.798,2.133 -20.494,1.169c-1.821,-0.651 -2.792,-2.238 -3.308,-5.766c-0.247,-1.686 -1.232,-6.836 -0,-7.018Z" style="fill:#40c335;"/><path d="M64.986,6.774c-7.38,0.194 -29.47,0.626 -33.065,0.696c-0.323,0.007 -0.336,-0.029 -0.497,0.01c-0.167,0.041 -0.176,0.082 -0.503,0.235c-3.214,1.5 -20.998,9.789 -29.062,13.329c-1.596,0.7 -1.062,3.784 0.214,3.764c5.314,-0.086 29.037,-0.656 33.514,-0.763c0.472,-0.012 0.551,0.007 0.733,-0c0.125,-0.006 0.211,-0.073 0.437,-0.177c2.991,-1.372 24.296,-11.217 28.831,-14.014c1.102,-0.68 0.69,-2.991 -0.602,-3.08Z" style="fill:#40c335;"/><circle cx="280.727" cy="95.625" r="10.727" style="fill:#1c4471;"/><circle cx="32.639" cy="73.535" r="12.883" style="fill:#1c4471;"/><circle cx="285.313" cy="38.875" r="2.937" style="fill:#1c4471;"/><circle cx="308.439" cy="63.471" r="3.819" style="fill:#fafffa;"/><circle cx="10.601" cy="91.806" r="3.819" style="fill:#fafffa;"/><circle cx="156.141" cy="83.5" r="82.595" style="fill:#00c0f0;"/><clipPath id="_clip1"><circle cx="156.141" cy="83.5" r="82.595"/></clipPath><g clip-path="url(#_clip1)"><path d="M182.905,94.268c3.424,2.44 13.072,1.306 13.601,8.656c0.173,2.405 -1.256,3.507 -5.418,11.743c-5.713,11.308 -20.074,22.214 -22.347,27.148c-2.571,5.579 -2.587,9.107 -1.019,11.949c1.568,2.842 1.401,3.895 -0.755,3.699c-2.156,-0.196 -5.482,-2.037 -7.089,-9.347c-0.46,-2.09 5.468,-26.516 4.86,-31.925c-0.308,-2.742 -7.519,-7.197 -8.597,-9.059c-1.078,-1.861 -4.508,-12.577 -0,-19.632c4.507,-7.055 17.177,-0.588 19.823,0.784c2.645,1.372 3.983,3.876 6.941,5.984Z" style="fill:#0a4475;stroke:#000;stroke-width:0.18px;"/><path d="M225.138,37.988c0,0 -4.245,5.219 -4.088,10.928c0.105,3.826 5.939,5.884 5.915,8.477c-0.012,1.35 -2.392,1.502 -3.524,2.368c-1.3,0.995 -6.173,3.901 -7.553,10.499c-1.907,9.112 1.426,13.469 2.785,15.084c1.493,1.774 7.893,1.447 10.957,1.075c3.645,-0.441 6.891,-2.02 9.106,-2.919c2.216,-0.899 5.303,-1.319 5.303,-1.319l-4.72,-21.513l-11.784,-22.68l-2.397,0Z" style="fill:#0a4475;stroke:#000;stroke-width:0.18px;"/><path d="M176.537,3.195c-0,-0 -2.818,16.413 4.042,19.598c6.859,3.184 8.209,-4.757 13.488,-6.002c5.783,-1.364 6.644,-0.175 11.499,-0c4.73,0.171 -18.006,-15.886 -18.006,-15.886l-11.023,2.29Z" style="fill:#0a4475;stroke:#000;stroke-width:0.18px;"/><path d="M156.141,0.905c-0,-0 -3.783,3.709 0.862,6.061c4.645,2.352 8.906,6.308 10.645,8.225c0.717,0.791 0.296,2.268 -0.291,3.091c-0.588,0.823 -2.932,2.584 -3.302,2.708c-0.37,0.123 -3.39,-0.073 -4.418,-2.708c-1.027,-2.635 -9.022,-13.729 -21.565,-11.316c-12.543,2.412 -16.142,5.642 -17.045,6.395c-0.904,0.752 -1.205,3.612 3.511,2.659c4.717,-0.954 11.071,-3.502 16.958,-3.211c4.064,0.2 3.027,3.207 2.208,4.114c-2.81,3.11 -10.522,6.623 -7.451,11.544c2.923,4.683 10.681,6.458 14.111,5.71c4.009,-0.876 1.62,-3.174 2.827,-8.607c1.304,-5.869 17.852,3.916 19.961,8.607c2.316,5.151 -18.88,18.244 -20.829,24.863c-1.399,4.757 5.071,13.913 -1.959,9.252c-1.357,-0.9 -1.777,-2.374 -3.035,-2.974c-3.881,-1.85 -15.912,-0.345 -12.777,7.6c2.719,6.891 9.964,0.161 14.009,6.958c10.947,18.399 -2.735,4.004 -2.976,3.624c-1.89,-2.973 -1.595,-4.769 -11.033,-4.483c-9.42,0.286 -9.614,-10.648 -20.796,-16.176c-11.611,-5.739 -11.15,-17.092 -12.107,-21.303c-0.957,-4.21 -6.059,-10.207 -8.355,-12.005c-2.297,-1.797 24.863,-31.188 24.863,-31.188l45.898,-3.445l-7.914,6.005Z" style="fill:#0a4475;stroke:#000;stroke-width:0.18px;"/></g><path d="M79.499,88.046c-58.25,27.671 -17.939,33.825 36.127,22.65c26.232,-5.422 55.306,-10.956 78.422,-20.984c7.555,-3.278 42.532,-15.895 53.856,-24.207c0.532,-0.39 2.403,-2.597 4.736,-4.959c1.874,-1.896 3.139,-4.932 3.36,-5.388" style="fill:none;stroke:#fff;stroke-width:2.11px;stroke-dasharray:8.44,8.44,0,0;"/><path d="M75.374,66.154c7.978,-37.269 19.099,-3.183 19.099,-3.183c-0,0 -8.208,77.539 -17.909,42.711c-1.967,-7.06 -3.018,-14.499 -3.018,-22.182c-0,-5.949 0.63,-11.753 1.828,-17.346Z" style="fill:#00c0f0;"/><g><path d="M237.973,110.474c0,-2.384 -1.935,-4.32 -4.319,-4.32l-23.447,0c-2.384,0 -4.319,1.936 -4.319,4.32l-0,8.638c-0,2.384 1.935,4.32 4.319,4.32l23.447,-0c2.384,-0 4.319,-1.936 4.319,-4.32l0,-8.638Zm-3.993,-0l-0,8.638c-0,0.18 -0.146,0.326 -0.326,0.326l-23.447,0c-0.18,0 -0.326,-0.146 -0.326,-0.326c0,0 0,-8.638 0,-8.638c0,-0.18 0.146,-0.326 0.326,-0.326c0,-0 23.447,-0 23.447,-0c0.18,-0 0.326,0.146 0.326,0.326Z" style="fill:#f4a608;"/><path d="M259.972,119.607c-0,-2.209 -1.793,-4.002 -4.002,-4.002l-68.079,-0c-2.209,-0 -4.002,1.793 -4.002,4.002l0,36.459c0,2.208 1.793,4.001 4.002,4.001l68.079,0c2.209,0 4.002,-1.793 4.002,-4.001l-0,-36.459Z" style="fill:#fff;"/><clipPath id="_clip2"><path d="M259.972,119.607c-0,-2.209 -1.793,-4.002 -4.002,-4.002l-68.079,-0c-2.209,-0 -4.002,1.793 -4.002,4.002l0,36.459c0,2.208 1.793,4.001 4.002,4.001l68.079,0c2.209,0 4.002,-1.793 4.002,-4.001l-0,-36.459Z"/></clipPath><g clip-path="url(#_clip2)"><path d="M259.972,130.532l-38.522,7.304l-37.561,-7.304" style="fill:none;stroke:#0b274c;stroke-width:3.81px;"/><path d="M224.704,134.088c0,-0.898 -0.729,-1.627 -1.627,-1.627l-3.254,-0c-0.898,-0 -1.628,0.729 -1.628,1.627l0,6.137c0,0.898 0.73,1.627 1.628,1.627l3.254,-0c0.898,-0 1.627,-0.729 1.627,-1.627l0,-6.137Z" style="fill:#f4a608;"/></g></g></g></svg>