<?xml version="1.0" encoding="UTF-8" standalone="no"?><!DOCTYPE svg PUBLIC "-//W3C//DTD SVG 1.1//EN" "http://www.w3.org/Graphics/SVG/1.1/DTD/svg11.dtd"><svg width="100%" height="100%" viewBox="0 0 213 117" version="1.1" xmlns="http://www.w3.org/2000/svg" xmlns:xlink="http://www.w3.org/1999/xlink" xml:space="preserve" xmlns:serif="http://www.serif.com/" style="fill-rule:evenodd;clip-rule:evenodd;stroke-linejoin:round;stroke-miterlimit:2;"><g id="favicon"><path d="M18.958,69.44c-0,-4.799 -3.889,-8.683 -8.638,-8.683c-4.802,-0 -8.707,3.884 -8.707,8.683l0,18.227c0,4.836 3.905,8.704 8.707,8.704c4.749,-0 8.638,-3.868 8.638,-8.704l-0,-18.227Z" style="fill:#00bcff;fill-rule:nonzero;"/><path d="M66.729,45.485c-0,-4.777 -3.884,-8.672 -8.675,-8.672c-4.771,0 -8.665,3.895 -8.665,8.672l0,42.184c0,4.831 3.894,8.698 8.665,8.698c4.791,0 8.675,-3.867 8.675,-8.698l-0,-42.184Z" style="fill:#00bcff;fill-rule:nonzero;"/><path d="M114.505,12.732c-0,-4.798 -3.878,-8.672 -8.675,-8.672c-4.776,0 -8.67,3.874 -8.67,8.672l0,92.28c0,4.815 3.894,8.704 8.67,8.704c4.797,-0 8.675,-3.889 8.675,-8.704l-0,-92.28Z" style="fill:#00bcff;fill-rule:nonzero;"/><path d="M162.272,45.485c0,-4.777 -3.894,-8.672 -8.787,-8.672c-4.776,0 -8.654,3.895 -8.654,8.672l0,42.184c0,4.831 3.878,8.698 8.654,8.698c4.893,0 8.787,-3.867 8.787,-8.698l0,-42.184Z" style="fill:#00bcff;fill-rule:nonzero;"/><path d="M209.946,69.44c0,-4.799 -3.899,-8.683 -8.675,-8.683c-4.791,-0 -8.669,3.884 -8.669,8.683l-0,18.227c-0,4.836 3.878,8.704 8.669,8.704c4.776,-0 8.675,-3.868 8.675,-8.704l0,-18.227Z" style="fill:#00bcff;fill-rule:nonzero;"/></g></svg>