<?xml version="1.0" encoding="UTF-8" standalone="no"?><!DOCTYPE svg PUBLIC "-//W3C//DTD SVG 1.1//EN" "http://www.w3.org/Graphics/SVG/1.1/DTD/svg11.dtd"><svg width="100%" height="100%" viewBox="0 0 2663 671" version="1.1" xmlns="http://www.w3.org/2000/svg" xmlns:xlink="http://www.w3.org/1999/xlink" xml:space="preserve" xmlns:serif="http://www.serif.com/" style="fill-rule:evenodd;clip-rule:evenodd;stroke-linejoin:round;stroke-miterlimit:2;"><g id="footerLogo"><g><path d="M55.663,266.245c0,15.232 -12.341,27.522 -27.47,27.522c-15.194,-0 -27.65,-12.29 -27.65,-27.522l-0,-57.794c-0,-15.244 12.456,-27.586 27.65,-27.586c15.129,0 27.47,12.342 27.47,27.586l0,57.794Zm151.717,-133.658c-0,-15.232 -12.444,-27.624 -27.74,-27.624c-15.078,-0 -27.509,12.392 -27.509,27.624l0,133.658c0,15.232 12.431,27.522 27.509,27.522c15.296,-0 27.74,-12.29 27.74,-27.522l-0,-133.658Zm151.665,-103.937c-0,-15.462 -12.444,-27.598 -27.676,-27.598c-15.232,-0 -27.586,12.136 -27.586,27.598l0,292.6c0,15.156 12.354,27.599 27.586,27.599c15.232,0 27.676,-12.443 27.676,-27.599l-0,-292.6Zm151.511,103.937c0,-15.232 -12.328,-27.624 -27.522,-27.624c-15.142,-0 -27.573,12.392 -27.573,27.624l0,133.658c0,15.232 12.431,27.522 27.573,27.522c15.194,-0 27.522,-12.29 27.522,-27.522l0,-133.658Zm151.525,75.864c-0,-15.244 -12.24,-27.586 -27.382,-27.586c-15.193,0 -27.675,12.342 -27.675,27.586l-0,57.794c-0,15.232 12.482,27.522 27.675,27.522c15.142,-0 27.382,-12.29 27.382,-27.522l-0,-57.794Zm151.652,-75.864c-0,-15.232 -12.239,-27.624 -27.458,-27.624c-15.245,-0 -27.446,12.392 -27.446,27.624l0,133.658c0,15.232 12.201,27.522 27.446,27.522c15.219,-0 27.458,-12.29 27.458,-27.522l-0,-133.658Zm151.831,-103.937c0,-15.462 -12.29,-27.598 -27.573,-27.598c-15.091,-0 -27.535,12.136 -27.535,27.598l0,292.6c0,15.156 12.444,27.599 27.535,27.599c15.283,0 27.573,-12.443 27.573,-27.599l0,-292.6Zm151.716,103.937c0,-15.232 -12.367,-27.624 -27.88,-27.624c-15.231,-0 -27.522,12.392 -27.522,27.624l0,133.658c0,15.232 12.291,27.522 27.522,27.522c15.513,-0 27.88,-12.29 27.88,-27.522l0,-133.658Zm151.371,75.864c0,-15.244 -12.239,-27.586 -27.483,-27.586c-15.181,0 -27.625,12.342 -27.625,27.586l0,57.794c0,15.232 12.444,27.522 27.625,27.522c15.244,-0 27.483,-12.29 27.483,-27.522l0,-57.794Z" style="fill:#00bcff;fill-rule:nonzero;"/><path d="M414.792,665.544l-55.696,-0l-0,-220.381l55.696,0l-0,220.381Zm448.409,-216.339c-5.397,-1.548 -24.837,-7.968 -50.709,-7.968c-67.782,0 -117.595,48.343 -117.595,114.193c0,70.89 55.146,114.015 117.595,114.015c24.581,-0 43.713,-5.883 50.709,-7.827l-0,-59.035c-2.507,1.279 -20.642,11.638 -46.872,11.638c-36.96,0 -60.889,-26.217 -60.889,-58.791c0,-33.929 24.926,-58.74 60.889,-58.74c26.678,0 44.57,10.474 46.872,11.638l-0,-59.123Zm-580.545,-0c-5.193,-1.548 -24.581,-7.968 -50.658,-7.968c-67.794,0 -117.3,48.343 -117.3,114.193c-0,70.89 54.852,114.015 117.3,114.015c24.786,-0 43.765,-5.883 50.658,-7.827l-0,-59.035c-2.494,1.279 -20.488,11.638 -46.603,11.638c-37.127,0 -60.953,-26.217 -60.953,-58.791c0,-33.929 24.875,-58.74 60.953,-58.74c26.511,0 44.403,10.474 46.603,11.638l-0,-59.123Zm755.396,-7.968c-67.782,0 -116.405,51.156 -116.405,114.193c-0,62.91 48.623,114.015 116.405,114.015c67.744,-0 116.444,-51.105 116.444,-114.015c0,-63.037 -48.7,-114.193 -116.444,-114.193Zm57.397,114.193c0,31.922 -24.465,57.858 -57.397,57.858c-33.072,-0 -57.397,-25.936 -57.397,-57.858c0,-32.139 24.325,-58.036 57.397,-58.036c32.932,-0 57.397,25.897 57.397,58.036Zm-469.843,-107.159c-1.547,-0.524 -27.125,-7.059 -54.149,-7.059c-51.309,-0 -82.284,27.816 -82.284,68.907c-0,36.487 25.936,54.762 56.796,64.533c3.658,0.959 8.645,2.596 12.098,3.709c13.736,4.4 24.773,10.743 24.773,22.023c-0,12.431 -12.93,20.449 -40.618,20.449c-24.069,0 -47.447,-6.803 -52.397,-8.108l0,50.721c2.75,0.653 30.323,5.999 59.994,5.999c42.664,-0 91.172,-18.57 91.172,-74.062c0,-26.652 -16.331,-51.36 -52.409,-62.909l-15.385,-4.77c-9.08,-3.044 -25.476,-7.495 -25.476,-21.153c0,-10.577 12.15,-18.071 34.467,-18.071c19.183,-0 42.625,6.676 43.418,6.829l0,-47.038Z" style="fill:#00bcff;fill-rule:nonzero;"/></g><g><path d="M1585.29,149.423l-92.224,-148.371l-24.131,-0l-0,172.024l17.202,-0l0,-149.566l92.941,149.566l23.175,-0l0,-172.024l-16.963,-0l-0,148.371Z" style="fill:#00bcff;fill-rule:nonzero;"/><path d="M1713.79,154.447c-6.451,4.779 -14.096,7.168 -22.936,7.168c-11.23,0 -20.309,-3.345 -27.715,-9.796c-8.84,-8.123 -13.858,-20.308 -14.574,-36.794l97.002,0c0,-21.742 -4.778,-38.705 -14.096,-50.89c-10.035,-12.663 -24.37,-18.875 -43.006,-18.875c-16.008,-0 -29.149,4.778 -39.423,14.574c-12.424,11.707 -18.636,28.91 -18.636,51.13c0,19.352 5.018,34.882 14.814,46.589c10.751,12.663 25.803,19.114 44.917,19.114c12.902,0 23.892,-3.106 33.21,-9.318c10.274,-6.929 17.203,-16.724 20.548,-29.148l-19.114,-0c-1.912,6.451 -5.495,11.946 -10.991,16.246Zm0.239,-86.012c8.124,7.407 12.663,18.158 13.38,32.255l-78.367,-0c1.195,-12.424 5.257,-22.22 11.947,-29.388c6.928,-7.884 16.246,-11.707 27.715,-11.707c10.273,0 18.635,2.867 25.325,8.84Z" style="fill:#00bcff;fill-rule:nonzero;"/><path d="M1820.56,48.844l-27.954,-0l-0,-29.866l-16.486,0l-1.194,29.866l-18.158,-0l-0,15.291l18.158,-0l-0,80.994c-0,9.318 2.389,16.486 6.928,21.981c5.257,6.451 13.141,9.557 23.654,9.557c5.256,0 10.751,-0.717 16.485,-2.389l0,-15.052c-5.017,1.194 -10.034,1.911 -14.574,1.911c-9.796,0 -14.813,-5.256 -14.813,-15.53l-0,-81.472l27.954,-0l-0,-15.291Z" style="fill:#00bcff;fill-rule:nonzero;"/><path d="M1968,153.97l-31.777,-105.126l-21.742,-0l-31.299,105.603l-29.865,-105.603l-18.397,-0l37.033,124.239l21.503,0l31.538,-104.887l32.493,104.887l21.025,0l36.078,-124.239l-17.92,-0l-28.67,105.126Z" style="fill:#00bcff;fill-rule:nonzero;"/><path d="M2053.15,74.408c7.406,-9.795 17.441,-14.574 30.582,-14.574c11.229,0 20.547,3.584 27.715,10.991c8.601,9.079 12.902,22.458 12.902,40.139c-0,15.291 -3.345,27.476 -10.035,36.316c-7.168,9.796 -17.203,14.813 -30.343,14.813c-11.23,-0 -20.548,-3.823 -27.715,-11.229c-8.84,-9.318 -13.38,-22.459 -13.38,-39.9c0,-15.292 3.345,-27.477 10.274,-36.556Zm-13.858,83.145c10.752,12.663 25.565,19.114 44.44,19.114c16.485,0 29.865,-4.778 40.139,-14.335c12.663,-11.707 18.875,-28.91 18.875,-51.368c-0,-19.831 -5.018,-35.361 -14.814,-47.068c-10.751,-12.424 -25.325,-18.636 -44.2,-18.636c-16.008,-0 -29.388,4.778 -39.9,14.096c-12.902,11.707 -19.353,28.91 -19.353,51.608c0,19.352 5.017,34.882 14.813,46.589Z" style="fill:#00bcff;fill-rule:nonzero;"/><path d="M2186.54,107.858c0,-13.619 2.867,-24.371 8.362,-32.494c5.973,-8.601 13.619,-12.902 23.415,-12.902c4.061,0 8.84,0.717 13.857,2.151l0,-17.681c-4.539,-1.194 -8.84,-1.672 -13.14,-1.672c-15.53,-0 -26.521,8.362 -33.211,24.848l-2.389,-21.264l-14.574,-0l-0,124.239l17.68,0l0,-65.225Z" style="fill:#00bcff;fill-rule:nonzero;"/><path d="M2268.73,109.052l61.403,64.031l23.893,0l-67.376,-70.243l59.969,-53.996l-23.653,-0l-54.236,49.457l0,-97.242l-17.68,0l0,172.024l17.68,0l0,-64.031Z" style="fill:#00bcff;fill-rule:nonzero;"/><path d="M2389.06,48.844l-17.919,-0l-0,124.239l17.919,0l0,-124.239Zm1.195,-47.785l-20.309,0l0,22.22l20.309,-0l-0,-22.22Z" style="fill:#00bcff;fill-rule:nonzero;"/><path d="M2438.78,96.15c0,-10.034 3.106,-18.397 9.318,-25.087c6.69,-7.167 15.052,-10.751 25.087,-10.751c8.84,-0 16.008,2.15 21.025,6.69c5.973,5.256 8.841,13.141 8.841,23.653l-0,82.428l17.68,0l-0,-82.906c-0,-13.14 -3.345,-23.653 -10.274,-31.537c-7.884,-8.841 -18.875,-13.38 -33.21,-13.38c-8.362,-0 -15.769,1.911 -22.698,5.734c-6.929,4.062 -12.663,9.557 -16.724,16.486l-2.151,-18.636l-14.574,-0l0,124.239l17.68,0l0,-76.933Z" style="fill:#00bcff;fill-rule:nonzero;"/><path d="M2566.03,208.683c9.557,7.406 22.459,10.99 38.705,10.99c15.769,0 28.671,-4.061 38.467,-12.185c10.751,-8.84 16.247,-21.025 16.247,-36.077l-0,-122.567l-14.575,-0l-2.867,19.113c-8.84,-15.052 -22.936,-22.697 -41.811,-22.697c-15.052,-0 -27.476,4.778 -37.272,14.574c-11.707,11.229 -17.441,27.476 -17.441,48.262c-0,17.681 4.778,32.016 14.335,43.006c10.274,11.947 23.414,17.92 39.422,17.92c19.114,-0 33.21,-6.69 42.289,-20.07l0,21.742c0,10.035 -2.867,18.158 -8.362,24.37c-6.69,6.929 -16.247,10.513 -28.909,10.513c-8.841,-0 -16.247,-1.673 -21.981,-5.018c-6.69,-4.061 -10.752,-9.795 -12.424,-17.441l-18.875,0c2.15,10.752 7.168,19.114 15.052,25.565Zm7.645,-134.991c6.929,-8.841 16.725,-13.38 29.149,-13.38c11.229,-0 20.308,3.584 27.237,10.513c8.362,8.362 12.663,21.025 12.663,37.51c0,14.097 -3.345,25.087 -10.035,32.972c-6.928,8.362 -16.963,12.663 -29.626,12.663c-10.513,-0 -19.353,-3.345 -26.282,-10.274c-8.601,-8.362 -12.901,-20.308 -12.901,-35.361c-0,-14.574 3.345,-26.281 9.795,-34.643Z" style="fill:#00bcff;fill-rule:nonzero;"/><path d="M1542.76,247.44l-21.981,0l-69.765,172.025l19.591,-0l18.397,-46.112l84.579,-0l17.919,46.112l20.786,-0l-69.526,-172.025Zm24.609,110.383l-72.394,-0l36.555,-91.747l35.839,91.747Z" style="fill:#00bcff;fill-rule:nonzero;"/><path d="M1700.07,399.88c-5.973,5.496 -13.858,8.124 -23.176,8.124c-10.512,-0 -19.113,-3.345 -25.803,-10.274c-8.602,-8.84 -12.902,-21.742 -12.902,-38.705c-0,-16.008 3.345,-28.671 9.796,-37.75c6.928,-9.796 16.485,-14.574 28.909,-14.574c7.885,-0 14.575,1.911 20.07,5.495c6.451,4.3 10.273,10.512 11.946,18.636l19.592,-0c-1.912,-11.23 -7.168,-20.309 -15.53,-27.237c-9.557,-7.885 -21.742,-11.946 -36.556,-11.946c-15.768,-0 -28.67,5.017 -38.705,15.052c-12.185,12.185 -18.158,29.387 -18.158,51.607c-0,19.114 4.778,34.405 14.335,45.873c10.513,12.663 24.609,18.875 42.528,18.875c13.141,-0 24.609,-3.584 34.166,-10.513c10.513,-7.884 16.725,-18.158 18.636,-31.299l-19.113,0c-1.195,7.646 -4.54,13.858 -10.035,18.636Z" style="fill:#00bcff;fill-rule:nonzero;"/><path d="M1778.3,312.913c5.496,-4.779 13.38,-7.168 23.176,-7.168c9.318,-0 16.486,2.15 21.981,6.212c6.451,4.778 9.557,11.468 9.557,20.308l-0,8.602l-37.033,6.212c-15.769,2.628 -27.476,6.928 -34.883,12.901c-8.362,6.451 -12.424,15.769 -12.424,27.715c0,9.796 3.345,17.92 10.035,24.37c7.884,7.407 18.636,10.991 32.254,10.991c18.875,-0 33.211,-7.407 43.006,-22.459l2.151,18.875l14.574,0l-0,-86.012c-0,-11.707 -3.823,-21.503 -11.229,-28.91c-8.841,-8.601 -21.265,-12.901 -37.272,-12.901c-13.619,-0 -24.848,2.867 -33.688,8.84c-10.274,6.928 -15.769,16.246 -16.964,28.193l18.636,-0c0.717,-6.451 3.584,-11.708 8.123,-15.769Zm44.201,84.339c-7.645,7.168 -16.725,10.752 -27.237,10.752c-8.123,-0 -14.574,-1.673 -19.353,-5.018c-5.734,-3.822 -8.601,-9.557 -8.601,-16.963c-0,-6.451 1.911,-11.468 5.973,-15.052c5.017,-4.54 14.335,-8.124 27.476,-10.513l32.255,-5.495l-0,19.592c-0,8.84 -3.584,16.246 -10.513,22.697Z" style="fill:#00bcff;fill-rule:nonzero;"/><path d="M1990.08,247.448l-17.919,-0l-0,66.659c-8.841,-15.052 -22.698,-22.458 -41.334,-22.458c-15.052,-0 -27.476,4.778 -37.033,14.335c-11.707,11.946 -17.68,29.387 -17.68,52.324c-0,19.114 4.539,34.405 13.618,46.112c9.796,12.424 23.176,18.636 40.139,18.636c9.079,-0 17.203,-1.912 24.37,-5.973c7.407,-4.062 13.619,-10.274 18.158,-18.158l3.106,20.547l14.575,0l-0,-172.024Zm-85.773,73.588c6.928,-9.557 16.724,-14.335 29.387,-14.335c11.229,-0 20.308,3.822 27.237,11.468c8.362,9.079 12.424,22.459 12.424,39.9c0,14.574 -3.345,26.52 -10.035,35.36c-7.406,9.796 -17.202,14.575 -29.865,14.575c-10.751,-0 -19.353,-3.584 -26.281,-10.752c-8.363,-8.84 -12.663,-21.742 -12.663,-38.705c-0,-16.008 3.345,-28.432 9.796,-37.511Z" style="fill:#00bcff;fill-rule:nonzero;"/><path d="M2099.33,400.836c-6.451,4.779 -14.096,7.168 -22.937,7.168c-11.229,-0 -20.308,-3.345 -27.715,-9.796c-8.84,-8.123 -13.857,-20.308 -14.574,-36.794l97.003,-0c-0,-21.742 -4.779,-38.706 -14.097,-50.891c-10.035,-12.662 -24.37,-18.874 -43.006,-18.874c-16.008,-0 -29.148,4.778 -39.422,14.574c-12.424,11.707 -18.636,28.909 -18.636,51.129c0,19.353 5.017,34.883 14.813,46.59c10.752,12.663 25.804,19.114 44.918,19.114c12.901,-0 23.892,-3.106 33.21,-9.318c10.274,-6.929 17.202,-16.725 20.547,-29.149l-19.114,0c-1.911,6.451 -5.495,11.946 -10.99,16.247Zm0.239,-86.012c8.123,7.407 12.663,18.158 13.38,32.255l-78.367,-0c1.195,-12.424 5.256,-22.22 11.946,-29.388c6.929,-7.884 16.247,-11.707 27.715,-11.707c10.274,-0 18.636,2.867 25.326,8.84Z" style="fill:#00bcff;fill-rule:nonzero;"/><path d="M2174.97,342.778c-0,-9.318 2.628,-17.441 8.123,-24.37c6.451,-7.885 14.574,-11.707 24.609,-11.707c17.919,-0 26.759,10.034 26.759,29.865l0,82.906l17.681,0l-0,-76.455c-0,-9.318 2.628,-17.441 7.884,-24.131c6.451,-8.124 14.574,-12.185 24.848,-12.185c17.919,-0 26.759,10.034 26.759,29.865l0,82.906l17.92,0l-0,-84.34c-0,-13.14 -3.345,-23.414 -9.796,-30.821c-7.168,-8.362 -17.681,-12.662 -31.299,-12.662c-18.875,-0 -32.494,7.406 -40.378,22.219c-6.451,-14.813 -18.636,-22.219 -36.794,-22.219c-8.123,-0 -15.53,1.672 -21.981,5.256c-6.451,3.584 -11.707,8.84 -15.53,15.291l-1.911,-16.964l-14.575,0l0,124.24l17.681,0l-0,-76.694Z" style="fill:#00bcff;fill-rule:nonzero;"/><path d="M2439.91,295.232l-37.511,110.144l-39.661,-110.144l-19.114,0l47.307,124.24l6.212,0c-4.54,13.619 -8.363,22.22 -10.991,26.043c-2.867,3.822 -6.69,5.734 -11.468,5.734c-3.345,-0 -7.407,-0.717 -12.185,-1.912l0,14.575c5.495,1.433 10.035,2.15 13.857,2.15c8.841,-0 16.008,-3.106 21.265,-9.557c4.539,-5.495 10.034,-17.441 16.485,-35.599l43.723,-125.674l-17.919,0Z" style="fill:#00bcff;fill-rule:nonzero;"/><path d="M1466.55,665.853l30.582,0l-0,-59.73l27.715,-0c46.828,-0 70.243,-18.636 70.243,-55.669c-0,-37.75 -23.415,-56.625 -70.243,-56.625l-58.297,0l-0,172.024Zm30.582,-149.087l28.192,-0c11.469,-0 20.548,2.389 26.999,7.406c7.406,5.734 10.99,14.575 10.99,26.282c0,21.742 -12.663,32.732 -37.989,32.732l-28.192,0l-0,-66.42Z" style="fill:#00bcff;fill-rule:nonzero;"/><path d="M1667.03,558.585c7.407,-0 13.38,1.672 17.681,5.017c5.017,3.584 7.406,9.318 7.406,16.725l0,5.973l-34.166,5.734c-16.008,2.628 -27.954,7.167 -35.599,13.14c-8.362,6.451 -12.663,15.53 -12.663,27.238c-0,10.273 3.345,18.874 10.274,25.564c7.884,7.646 18.874,11.469 32.971,11.469c17.919,-0 31.538,-6.212 41.333,-18.875l3.584,15.291l22.937,-0l-0,-83.862c-0,-12.424 -4.062,-22.459 -12.185,-30.343c-9.318,-9.079 -22.937,-13.619 -40.617,-13.619c-14.574,0 -26.759,3.106 -36.555,9.079c-10.752,6.929 -17.203,16.725 -19.353,29.627l29.865,-0c1.912,-12.185 10.274,-18.158 25.087,-18.158Zm25.087,61.642c0,6.928 -2.628,13.14 -8.123,18.397c-6.451,5.973 -14.097,9.079 -23.415,9.079c-14.096,-0 -21.264,-5.735 -21.264,-17.442c0,-5.495 1.912,-10.034 5.973,-13.14c4.062,-3.106 10.513,-5.496 19.831,-7.168l26.998,-4.779l0,15.053Z" style="fill:#00bcff;fill-rule:nonzero;"/><path d="M1807.68,538.037c-14.097,0 -24.848,7.407 -31.777,22.22l-3.584,-18.636l-23.653,0l0,124.24l28.671,-0l-0,-58.058c-0,-13.141 2.628,-23.654 7.645,-31.06c5.495,-7.885 12.663,-11.708 21.503,-11.708c4.779,0 9.796,0.717 15.052,2.39l0,-27.715c-4.061,-1.195 -8.84,-1.673 -13.857,-1.673Z" style="fill:#00bcff;fill-rule:nonzero;"/><path d="M1891.25,646.747c-8.362,-0 -12.662,-4.062 -12.662,-12.424l-0,-70.721l26.281,-0l0,-21.981l-26.281,0l-0,-29.865l-26.76,-0l-1.911,29.865l-18.636,0l-0,21.981l18.636,-0l-0,69.765c-0,10.513 2.628,18.875 8.123,25.087c6.451,7.407 15.769,10.991 27.954,10.991c5.973,-0 12.424,-0.956 19.114,-2.868l-0,-21.741c-5.495,1.194 -10.274,1.911 -13.858,1.911Z" style="fill:#00bcff;fill-rule:nonzero;"/><path d="M1951.67,590.361c-0,-8.362 2.389,-15.53 7.407,-21.025c5.495,-5.973 12.424,-9.079 21.025,-9.079c15.769,0 23.653,8.601 23.653,25.565l0,80.039l28.671,-0l-0,-80.756c-0,-14.096 -3.584,-25.087 -10.513,-33.21c-7.884,-9.318 -19.353,-13.858 -34.405,-13.858c-16.007,0 -28.67,6.212 -37.749,18.397l-3.106,-14.813l-23.654,0l0,124.24l28.671,-0l-0,-75.5Z" style="fill:#00bcff;fill-rule:nonzero;"/><path d="M2135.25,642.685c-4.778,3.106 -10.512,4.779 -16.963,4.779c-9.318,-0 -16.725,-2.628 -22.459,-7.646c-7.167,-6.212 -11.229,-16.008 -12.424,-29.387l92.941,-0c0,-22.698 -4.778,-40.378 -14.574,-52.563c-10.274,-13.141 -25.565,-19.831 -45.873,-19.831c-17.442,0 -31.538,4.779 -42.29,14.575c-12.901,11.707 -19.352,28.909 -19.352,51.129c-0,19.353 5.256,34.883 15.53,46.59c11.229,12.663 26.998,19.114 47.306,19.114c14.575,-0 26.999,-3.345 37.033,-9.796c10.513,-6.929 17.442,-16.964 20.787,-29.627l-30.105,0c-1.672,5.257 -4.778,9.557 -9.557,12.663Zm-51.368,-51.846c1.434,-10.274 4.779,-17.919 9.796,-23.414c5.495,-5.973 12.902,-9.079 22.22,-9.079c8.362,-0 15.291,2.389 20.547,6.928c6.451,5.496 9.796,13.858 10.513,25.565l-63.076,0Z" style="fill:#00bcff;fill-rule:nonzero;"/><path d="M2257.86,538.037c-14.096,0 -24.848,7.407 -31.776,22.22l-3.584,-18.636l-23.653,0l-0,124.24l28.67,-0l0,-58.058c0,-13.141 2.628,-23.654 7.646,-31.06c5.495,-7.885 12.663,-11.708 21.503,-11.708c4.778,0 9.796,0.717 15.052,2.39l-0,-27.715c-4.062,-1.195 -8.84,-1.673 -13.858,-1.673Z" style="fill:#00bcff;fill-rule:nonzero;"/></g></g></svg>