<?xml version="1.0" encoding="UTF-8" standalone="no"?><!DOCTYPE svg PUBLIC "-//W3C//DTD SVG 1.1//EN" "http://www.w3.org/Graphics/SVG/1.1/DTD/svg11.dtd"><svg width="100%" height="100%" viewBox="0 0 2180 671" version="1.1" xmlns="http://www.w3.org/2000/svg" xmlns:xlink="http://www.w3.org/1999/xlink" xml:space="preserve" xmlns:serif="http://www.serif.com/" style="fill-rule:evenodd;clip-rule:evenodd;"><g id="footerJamstack"><g id="jamstack-logotype" serif:id="jamstack logotype"><path d="M682.129,479.902l-0,-149l-63,-0l-0,164.666c-0,13.667 -1,31.334 -19,31.334c-16,0 -18.333,-16.334 -19,-28.667l-67,-0c-0,36.001 14.667,65.334 49.667,78.001c10.333,4 22,6 33.333,6c26.333,-0 53,-11.667 69.667,-32.334c15.333,-19.333 15.333,-46.334 15.333,-70Zm230.533,97.667l0,-185.001l-55.333,0l-0,19.667l-0.667,-0c-11,-18.333 -33.666,-26 -54,-26c-55.666,-0 -93,44.667 -93,98.667c0,55 36,99 93,99c20,0 44,-7.333 54,-26.333l0.667,0l-0,20l55.333,0Zm-55.333,-92.667c-0,26.666 -19.333,47.334 -46.333,47.334c-26,-0 -46,-21.001 -46,-46.668c-0,-26.333 18.666,-47.666 45.666,-47.666c27,-0 46.667,20 46.667,47Zm379.7,92.667l-0,-101.001c-0,-28.333 1,-50.333 -20,-71.666c-13,-13.334 -30.333,-18.667 -48.667,-18.667c-25,-0 -45.333,12 -58.666,33c-11.334,-21 -29.334,-33 -53.334,-33c-21,-0 -40.333,7 -51,26l-0.666,-0l-0,-19.667l-51.667,0l-0,185.001l55.333,0l0,-98.334c0,-21.667 5.667,-41 31.334,-41c23.333,-0 27.666,19.667 27.666,38.667l0,100.667l55.334,0l-0,-101.001c-0,-21 6,-38.333 30.666,-38.333c25.667,-0 28.334,20.667 28.334,41l-0,98.334l55.333,0Zm177.583,-56.667c0,-65.334 -93,-49 -93,-78c0,-8.334 8.334,-12.334 15.667,-12.334c9.667,0 17,3.667 17.333,14l54.334,0c-3.667,-39.333 -34,-58.333 -71,-58.333c-35.667,-0 -71.667,22.333 -71.667,61c-0,26 22,40.333 44,48.333c8,3 16,5.667 24,8.334c10,4 25,8 25,21.334c-0,9.666 -11,14.333 -19.333,14.333c-11,0 -19.334,-5.667 -21,-17.001l-55,0c4.333,40.668 36.666,61.334 75.333,61.334c37.667,0 75.333,-21.333 75.333,-63Zm120.675,-86.334l0,-42l-26.666,0l-0,-61.666l-55.334,-0l0,61.666l-27.333,0l-0,42l27.333,0l0,143.001l55.334,0l-0,-143.001l26.666,0Zm213.313,143.001l-0,-185.001l-55.334,0l0,19.667l-0.666,-0c-11,-18.333 -33.667,-26 -54,-26c-55.667,-0 -93,44.667 -93,98.667c-0,55 36,99 93,99c20,0 44,-7.333 54,-26.333l0.666,0l0,20l55.334,0Zm-55.334,-92.667c0,26.666 -19.333,47.334 -46.333,47.334c-26,-0 -46,-21.001 -46,-46.668c0,-26.333 18.667,-47.666 45.667,-47.666c27,-0 46.666,20 46.666,47Zm282.7,22.333l-56.333,-0c-8.333,16 -21.667,24.667 -40,24.667c-27,0 -44,-21 -44,-47c0,-25 16,-47 42.667,-47c19,-0 33.333,8.666 41.333,26l56,-0c-9.667,-47 -50.667,-77.667 -98,-77.667c-55,-0 -97.667,43.667 -97.667,98.333c0,55.334 43.667,99.001 99,99.001c46.667,0 86.334,-31 97,-76.334Zm200.563,-114.667l-65.667,0l-51.333,67l-0.667,0l0,-128.666l-55.333,-0l-0,246.667l55.333,0l0,-89.001l0.667,0l52.333,89.001l62.667,0l-67.667,-103.667l69.667,-81.334Z" style="fill:#fff;fill-rule:nonzero;"/><path d="M202.546,266.332c-111.675,-0 -201.959,90.284 -201.959,201.958c-0,111.675 90.284,201.958 201.959,201.958c111.675,0 201.958,-90.283 201.958,-201.958l-0,-201.958l-201.958,-0Z" style="fill:#f0047f;fill-rule:nonzero;"/><path d="M196.018,474.541l-0,141.603c-76.642,-3.242 -138.36,-64.962 -141.603,-141.603l141.603,-0Z" style="fill:#fff;fill-rule:nonzero;stroke:#f0047f;stroke-width:4.17px;"/><path d="M208.796,474.817l141.604,0c-3.246,76.64 -64.963,138.36 -141.604,141.602l0,-141.602Z" style="fill:#fff;fill-rule:nonzero;stroke:#f0047f;stroke-width:4.17px;"/><rect x="208.796" y="320.085" width="141.679" height="141.677" style="fill:#fff;fill-rule:nonzero;stroke:#f0047f;stroke-width:4.17px;"/></g><g><path d="M567.451,11.035c18.425,0 31.869,3.955 40.332,11.865c8.464,7.91 12.696,18.799 12.696,32.666c-0,6.25 -0.945,12.224 -2.833,17.92c-1.888,5.697 -4.964,10.759 -9.228,15.186c-4.264,4.427 -9.945,7.926 -17.041,10.498c-7.096,2.571 -15.853,3.857 -26.27,3.857l-12.988,0l0,50.782l-30.273,-0l-0,-142.774l45.605,0Zm-1.562,24.805l-13.77,-0l0,42.383l9.961,-0c5.664,-0 10.579,-0.749 14.746,-2.247c4.167,-1.497 7.389,-3.841 9.668,-7.031c2.279,-3.19 3.418,-7.291 3.418,-12.304c0,-7.032 -1.953,-12.256 -5.859,-15.674c-3.907,-3.418 -9.961,-5.127 -18.164,-5.127Z" style="fill:#fff;fill-rule:nonzero;"/><path d="M744.307,99.023c-0,9.115 -1.221,17.188 -3.662,24.219c-2.442,7.031 -5.99,12.972 -10.645,17.822c-4.655,4.851 -10.254,8.513 -16.797,10.987c-6.543,2.474 -13.916,3.711 -22.119,3.711c-7.682,-0 -14.73,-1.237 -21.143,-3.711c-6.412,-2.474 -11.979,-6.136 -16.699,-10.987c-4.72,-4.85 -8.366,-10.791 -10.937,-17.822c-2.572,-7.031 -3.858,-15.104 -3.858,-24.219c0,-12.109 2.149,-22.363 6.446,-30.761c4.296,-8.399 10.416,-14.779 18.359,-19.141c7.943,-4.362 17.415,-6.543 28.418,-6.543c10.221,0 19.287,2.181 27.197,6.543c7.91,4.362 14.128,10.742 18.653,19.141c4.524,8.398 6.787,18.652 6.787,30.761Zm-75.489,0c0,7.162 0.782,13.184 2.344,18.067c1.563,4.883 4.004,8.561 7.324,11.035c3.321,2.474 7.65,3.711 12.989,3.711c5.273,-0 9.554,-1.237 12.841,-3.711c3.288,-2.474 5.697,-6.152 7.227,-11.035c1.53,-4.883 2.295,-10.905 2.295,-18.067c-0,-7.226 -0.765,-13.232 -2.295,-18.017c-1.53,-4.785 -3.955,-8.382 -7.275,-10.791c-3.321,-2.409 -7.65,-3.614 -12.989,-3.614c-7.877,0 -13.59,2.702 -17.138,8.106c-3.549,5.404 -5.323,13.509 -5.323,24.316Z" style="fill:#fff;fill-rule:nonzero;"/><path d="M858.662,153.809l-8.398,-38.184c-0.456,-2.279 -1.205,-5.648 -2.246,-10.107c-1.042,-4.46 -2.165,-9.245 -3.37,-14.356c-1.204,-5.111 -2.311,-9.847 -3.32,-14.209c-1.009,-4.362 -1.741,-7.552 -2.197,-9.57l-0.879,-0c-0.456,2.018 -1.172,5.208 -2.148,9.57c-0.977,4.362 -2.068,9.115 -3.272,14.258c-1.204,5.143 -2.327,9.977 -3.369,14.502c-1.042,4.525 -1.823,7.959 -2.344,10.303l-8.789,37.793l-32.031,-0l-31.055,-109.18l29.688,-0l12.597,48.34c0.847,3.385 1.66,7.405 2.442,12.06c0.781,4.655 1.481,9.147 2.099,13.477c0.619,4.329 1.091,7.763 1.416,10.303l0.782,-0c0.13,-1.888 0.406,-4.395 0.83,-7.52c0.423,-3.125 0.911,-6.364 1.464,-9.717c0.554,-3.353 1.075,-6.38 1.563,-9.082c0.488,-2.702 0.863,-4.541 1.123,-5.517l13.477,-52.344l32.812,-0l12.793,52.344c0.456,1.888 1.058,4.882 1.807,8.984c0.748,4.102 1.416,8.317 2.002,12.646c0.586,4.33 0.911,7.732 0.976,10.206l0.781,-0c0.261,-2.214 0.717,-5.502 1.368,-9.864c0.651,-4.362 1.416,-8.935 2.295,-13.72c0.878,-4.786 1.774,-8.871 2.685,-12.256l13.086,-48.34l29.199,-0l-31.445,109.18l-32.422,-0Z" style="fill:#fff;fill-rule:nonzero;"/><path d="M985.127,42.578c10.091,0 18.782,1.937 26.074,5.811c7.292,3.873 12.923,9.489 16.895,16.845c3.971,7.357 5.957,16.341 5.957,26.953l-0,14.454l-70.41,-0c0.325,8.398 2.848,14.99 7.568,19.775c4.72,4.785 11.279,7.178 19.678,7.178c6.966,-0 13.346,-0.716 19.14,-2.149c5.795,-1.432 11.752,-3.58 17.871,-6.445l0,23.047c-5.403,2.669 -11.051,4.622 -16.943,5.859c-5.892,1.237 -13.037,1.856 -21.436,1.856c-10.937,-0 -20.621,-2.019 -29.052,-6.055c-8.431,-4.036 -15.039,-10.189 -19.824,-18.457c-4.786,-8.268 -7.178,-18.685 -7.178,-31.25c-0,-12.76 2.164,-23.389 6.494,-31.885c4.329,-8.496 10.368,-14.876 18.115,-19.14c7.748,-4.265 16.764,-6.397 27.051,-6.397Zm0.195,21.191c-5.794,0 -10.595,1.856 -14.404,5.567c-3.809,3.711 -6.006,9.538 -6.592,17.48l41.797,0c-0.065,-4.427 -0.863,-8.366 -2.393,-11.816c-1.529,-3.451 -3.808,-6.185 -6.835,-8.203c-3.028,-2.018 -6.885,-3.028 -11.573,-3.028Z" style="fill:#fff;fill-rule:nonzero;"/><path d="M1119.21,42.578c1.497,0 3.239,0.081 5.225,0.244c1.985,0.163 3.597,0.375 4.834,0.635l-2.247,27.93c-0.976,-0.326 -2.36,-0.57 -4.15,-0.733c-1.79,-0.163 -3.337,-0.244 -4.639,-0.244c-3.841,0 -7.568,0.488 -11.181,1.465c-3.614,0.976 -6.852,2.555 -9.717,4.736c-2.865,2.181 -5.127,5.046 -6.787,8.594c-1.66,3.548 -2.49,7.894 -2.49,13.037l-0,55.567l-29.786,-0l0,-109.18l22.559,-0l4.395,18.359l1.464,0c2.149,-3.711 4.834,-7.112 8.057,-10.205c3.223,-3.092 6.901,-5.566 11.035,-7.422c4.134,-1.855 8.61,-2.783 13.428,-2.783Z" style="fill:#fff;fill-rule:nonzero;"/><path d="M1194.11,42.578c10.091,0 18.783,1.937 26.075,5.811c7.291,3.873 12.923,9.489 16.894,16.845c3.971,7.357 5.957,16.341 5.957,26.953l0,14.454l-70.41,-0c0.325,8.398 2.848,14.99 7.568,19.775c4.72,4.785 11.28,7.178 19.678,7.178c6.966,-0 13.346,-0.716 19.141,-2.149c5.794,-1.432 11.751,-3.58 17.871,-6.445l-0,23.047c-5.404,2.669 -11.052,4.622 -16.944,5.859c-5.892,1.237 -13.037,1.856 -21.435,1.856c-10.938,-0 -20.622,-2.019 -29.053,-6.055c-8.431,-4.036 -15.039,-10.189 -19.824,-18.457c-4.785,-8.268 -7.178,-18.685 -7.178,-31.25c0,-12.76 2.165,-23.389 6.494,-31.885c4.33,-8.496 10.368,-14.876 18.116,-19.14c7.747,-4.265 16.764,-6.397 27.05,-6.397Zm0.196,21.191c-5.795,0 -10.596,1.856 -14.405,5.567c-3.808,3.711 -6.006,9.538 -6.591,17.48l41.796,0c-0.065,-4.427 -0.862,-8.366 -2.392,-11.816c-1.53,-3.451 -3.809,-6.185 -6.836,-8.203c-3.027,-2.018 -6.885,-3.028 -11.572,-3.028Z" style="fill:#fff;fill-rule:nonzero;"/><path d="M1301.83,155.762c-12.174,-0 -22.086,-4.769 -29.736,-14.307c-7.65,-9.538 -11.475,-23.551 -11.475,-42.041c0,-18.685 3.874,-32.829 11.621,-42.432c7.748,-9.603 17.871,-14.404 30.371,-14.404c5.209,0 9.799,0.716 13.77,2.148c3.971,1.433 7.406,3.353 10.303,5.762c2.897,2.409 5.354,5.111 7.373,8.106l0.976,-0c-0.39,-2.084 -0.862,-5.16 -1.416,-9.229c-0.553,-4.069 -0.83,-8.252 -0.83,-12.549l0,-34.961l29.883,0l0,151.954l-22.852,-0l-5.761,-14.161l-1.27,0c-1.888,2.995 -4.248,5.713 -7.08,8.155c-2.832,2.441 -6.201,4.378 -10.107,5.81c-3.907,1.433 -8.496,2.149 -13.77,2.149Zm10.449,-23.731c8.138,0 13.884,-2.425 17.237,-7.275c3.353,-4.85 5.127,-12.158 5.322,-21.924l-0,-3.223c-0,-10.612 -1.628,-18.733 -4.883,-24.365c-3.255,-5.631 -9.31,-8.447 -18.164,-8.447c-6.575,-0 -11.719,2.832 -15.43,8.496c-3.711,5.664 -5.566,13.835 -5.566,24.512c0,10.677 1.872,18.717 5.615,24.121c3.744,5.403 9.033,8.105 15.869,8.105Z" style="fill:#fff;fill-rule:nonzero;"/><path d="M1475.56,1.855l-0,35.352c-0,4.102 -0.114,8.171 -0.342,12.207c-0.228,4.036 -0.505,7.161 -0.83,9.375l1.172,-0c2.864,-4.492 6.77,-8.317 11.718,-11.475c4.948,-3.157 11.361,-4.736 19.239,-4.736c12.239,0 22.168,4.785 29.785,14.356c7.617,9.57 11.426,23.6 11.426,42.089c-0,12.435 -1.758,22.868 -5.274,31.299c-3.515,8.431 -8.431,14.779 -14.746,19.043c-6.315,4.264 -13.639,6.397 -21.973,6.397c-8.007,-0 -14.323,-1.433 -18.945,-4.297c-4.622,-2.865 -8.366,-6.087 -11.23,-9.668l-2.051,-0l-4.981,12.012l-22.754,-0l0,-151.954l29.786,0Zm21.386,64.551c-5.208,0 -9.342,1.074 -12.402,3.223c-3.06,2.148 -5.29,5.371 -6.689,9.668c-1.4,4.297 -2.165,9.733 -2.295,16.308l-0,3.223c-0,10.612 1.562,18.734 4.687,24.365c3.125,5.632 8.822,8.448 17.09,8.448c6.12,-0 10.986,-2.832 14.6,-8.497c3.613,-5.664 5.42,-13.834 5.42,-24.511c-0,-10.677 -1.823,-18.718 -5.469,-24.121c-3.646,-5.404 -8.627,-8.106 -14.942,-8.106Z" style="fill:#fff;fill-rule:nonzero;"/><path d="M1556.71,44.629l32.617,-0l20.606,61.426c0.651,1.953 1.204,3.938 1.66,5.957c0.456,2.018 0.846,4.101 1.172,6.25c0.325,2.148 0.586,4.394 0.781,6.738l0.586,-0c0.39,-3.516 0.928,-6.803 1.611,-9.863c0.684,-3.06 1.546,-6.088 2.588,-9.082l20.215,-61.426l31.934,-0l-46.192,123.144c-2.799,7.552 -6.445,13.851 -10.937,18.897c-4.493,5.045 -9.652,8.838 -15.479,11.377c-5.827,2.539 -12.223,3.808 -19.189,3.808c-3.386,0 -6.315,-0.179 -8.789,-0.537c-2.474,-0.358 -4.59,-0.732 -6.348,-1.123l-0,-23.633c1.367,0.326 3.092,0.619 5.176,0.879c2.083,0.261 4.264,0.391 6.543,0.391c4.166,-0 7.747,-0.879 10.742,-2.637c2.995,-1.758 5.501,-4.118 7.519,-7.08c2.019,-2.962 3.614,-6.201 4.786,-9.717l1.757,-5.371l-43.359,-108.398Z" style="fill:#fff;fill-rule:nonzero;"/><path d="M1681.9,139.844c0,-6.12 1.677,-10.417 5.03,-12.891c3.352,-2.474 7.405,-3.711 12.158,-3.711c4.622,0 8.61,1.237 11.963,3.711c3.353,2.474 5.029,6.771 5.029,12.891c-0,5.859 -1.676,10.091 -5.029,12.695c-3.353,2.604 -7.341,3.906 -11.963,3.906c-4.753,0 -8.806,-1.302 -12.158,-3.906c-3.353,-2.604 -5.03,-6.836 -5.03,-12.695Zm0,-80.664c0,-6.12 1.677,-10.417 5.03,-12.891c3.352,-2.474 7.405,-3.711 12.158,-3.711c4.622,0 8.61,1.237 11.963,3.711c3.353,2.474 5.029,6.771 5.029,12.891c-0,5.924 -1.676,10.172 -5.029,12.744c-3.353,2.571 -7.341,3.857 -11.963,3.857c-4.753,0 -8.806,-1.286 -12.158,-3.857c-3.353,-2.572 -5.03,-6.82 -5.03,-12.744Z" style="fill:#fff;fill-rule:nonzero;"/></g></g></svg>