<?xml version="1.0" encoding="UTF-8" standalone="no"?><!DOCTYPE svg PUBLIC "-//W3C//DTD SVG 1.1//EN" "http://www.w3.org/Graphics/SVG/1.1/DTD/svg11.dtd"><svg width="100%" height="100%" viewBox="0 0 396 91" version="1.1" xmlns="http://www.w3.org/2000/svg" xmlns:xlink="http://www.w3.org/1999/xlink" xml:space="preserve" xmlns:serif="http://www.serif.com/" style="fill-rule:evenodd;clip-rule:evenodd;stroke-linejoin:round;stroke-miterlimit:2;"><g id="IT-Essentials" serif:id="IT Essentials"><g><clipPath id="_clip1"><path d="M130.152,54.567l-0,-16.802l-52.799,-0l-0,16.802l52.799,0Z"/></clipPath><g clip-path="url(#_clip1)"><path d="M118.104,47.186l0,-2.054l9.815,0.019l-0,2.054l-9.815,-0.019Zm-26.061,-0.049l-0,-2.054l13.036,0.024l-0.011,2.054l-13.025,-0.024Zm-26.072,-0.049l0.01,-2.055l13.026,0.024l-0,2.055l-13.036,-0.024Zm-26.062,-0.05l0,-2.054l13.036,0.024l0,2.056l-13.036,-0.026Zm-26.062,-0.05l0,-2.054l13.037,0.025l-0.011,2.055l-13.026,-0.026Zm-26.072,-0.049l0.011,-2.054l13.025,0.024l0,2.055l-13.036,-0.025Zm-26.061,-0.049l-0,-2.054l13.036,0.023l-0,2.055l-13.036,-0.024Zm-26.062,-0.05l0,-2.055l13.036,0.025l-0.01,2.056l-13.026,-0.026Zm-26.072,-0.049l0.01,-2.054l13.026,0.023l-0,2.055l-13.036,-0.024Zm-26.062,-0.05l0.011,-2.055l13.025,0.025l0,2.055l-13.036,-0.025Zm-26.061,-0.05l-0,-2.054l13.036,0.026l-0.011,2.054l-13.025,-0.026Zm-26.062,-0.049l0,-2.055l13.036,0.026l-0.01,2.054l-13.026,-0.025Zm-26.072,-0.05l0.01,-2.054l13.026,0.025l-0,2.055l-13.036,-0.026" style="fill:#e8ebf1;fill-rule:nonzero;"/><path d="M121.092,54.567l-1.403,-1.508l7.443,-6.88l-7.422,-6.912l1.414,-1.502l9.028,8.419l-9.06,8.383" style="fill:#e8ebf1;fill-rule:nonzero;"/></g></g><g><clipPath id="_clip2"><path d="M299.122,54.273l-0,-16.803l-140.392,0l-0,16.803l140.392,-0Z"/></clipPath><g clip-path="url(#_clip2)"><path d="M287.074,46.891l0,-2.054l9.815,0.019l-0,2.054l-9.815,-0.019Zm-26.061,-0.049l-0,-2.054l13.036,0.025l-0.011,2.054l-13.025,-0.025Zm-26.073,-0.049l0.011,-2.055l13.026,0.025l-0,2.055l-13.037,-0.025Zm-26.061,-0.05l-0,-2.054l13.036,0.025l-0,2.055l-13.036,-0.026Zm-26.062,-0.05l0,-2.054l13.036,0.026l-0.01,2.054l-13.026,-0.026Zm-26.072,-0.048l0.011,-2.055l13.025,0.025l0,2.054l-13.036,-0.024Zm-26.062,-0.049l0,-2.055l13.037,0.024l-0,2.054l-13.037,-0.023Zm-26.061,-0.05l-0,-2.056l13.036,0.026l-0.011,2.055l-13.025,-0.025Zm-26.072,-0.049l0.01,-2.055l13.026,0.024l-0,2.054l-13.036,-0.023Zm-26.062,-0.05l0.011,-2.056l13.025,0.026l0,2.054l-13.036,-0.024Zm-26.062,-0.05l0,-2.054l13.037,0.025l-0.011,2.054l-13.026,-0.025Zm-26.061,-0.049l-0,-2.055l13.036,0.025l-0.011,2.054l-13.025,-0.024Zm-26.072,-0.05l0.01,-2.054l13.026,0.024l-0,2.055l-13.036,-0.025" style="fill:#e8ebf1;fill-rule:nonzero;"/><path d="M290.062,54.273l-1.403,-1.508l7.443,-6.881l-7.422,-6.911l1.414,-1.503l9.028,8.42l-9.06,8.383" style="fill:#e8ebf1;fill-rule:nonzero;"/></g></g><g><path d="M83.987,48.378c-0.044,23.199 -18.865,41.976 -42.037,41.933c-23.172,-0.043 -41.921,-18.893 -41.877,-42.091c0.044,-23.206 18.864,-41.983 42.036,-41.94c23.173,0.05 41.922,18.893 41.878,42.098" style="fill:#e8ebf1;fill-rule:nonzero;"/><g><path d="M36.287,43.9l-0.01,0c-0.59,-0.007 -1.14,-0.115 -1.651,-0.331c-0.51,-0.217 -0.957,-0.534 -1.339,-0.952c-0.382,-0.418 -0.683,-0.938 -0.902,-1.558c-0.219,-0.62 -0.328,-1.327 -0.326,-2.134c0.002,-0.815 0.115,-1.536 0.341,-2.149c0.226,-0.62 0.533,-1.132 0.921,-1.551c0.388,-0.411 0.842,-0.728 1.362,-0.937c0.517,-0.209 1.073,-0.31 1.668,-0.31l0.011,-0c0.519,-0 1,0.072 1.439,0.216c0.441,0.137 0.828,0.339 1.162,0.592c0.334,0.259 0.609,0.562 0.824,0.915c0.215,0.354 0.357,0.743 0.427,1.169l-1.03,-0.008c-0.149,-0.641 -0.47,-1.139 -0.961,-1.485c-0.494,-0.354 -1.114,-0.527 -1.863,-0.527l-0.007,0c-0.437,0 -0.852,0.08 -1.241,0.246c-0.393,0.173 -0.737,0.418 -1.033,0.757c-0.295,0.331 -0.529,0.757 -0.702,1.269c-0.173,0.519 -0.26,1.118 -0.261,1.81c-0.001,0.678 0.088,1.269 0.267,1.781c0.18,0.512 0.421,0.945 0.724,1.284c0.304,0.339 0.651,0.591 1.043,0.764c0.391,0.173 0.803,0.26 1.234,0.26l0.009,-0c0.392,-0 0.762,-0.058 1.108,-0.188c0.348,-0.122 0.652,-0.303 0.913,-0.526c0.26,-0.224 0.467,-0.491 0.622,-0.808c0.155,-0.31 0.233,-0.649 0.234,-1.024l0.001,-0.981l-2.933,0l0.002,-0.851l3.871,0.008l-0.01,5.055l-0.766,-0l-0.143,-1.363c-0.291,0.49 -0.7,0.872 -1.225,1.146c-0.521,0.274 -1.115,0.411 -1.78,0.411" style="fill:#0e274d;fill-rule:nonzero;"/><path d="M44.991,43.915l-0.008,-0c-0.476,-0 -0.917,-0.08 -1.32,-0.238c-0.406,-0.152 -0.753,-0.382 -1.043,-0.692c-0.29,-0.311 -0.519,-0.693 -0.684,-1.14c-0.168,-0.447 -0.25,-0.973 -0.249,-1.579c0.001,-0.584 0.083,-1.111 0.247,-1.565c0.165,-0.454 0.389,-0.836 0.676,-1.139c0.287,-0.31 0.626,-0.541 1.019,-0.692c0.391,-0.159 0.815,-0.231 1.271,-0.231l0.004,-0c0.458,-0 0.879,0.072 1.262,0.223c0.382,0.152 0.714,0.382 0.995,0.7c0.282,0.31 0.501,0.714 0.659,1.204c0.158,0.49 0.236,1.075 0.234,1.738l-5.363,-0.007c0.016,0.44 0.088,0.822 0.215,1.153c0.127,0.325 0.294,0.592 0.501,0.808c0.207,0.209 0.448,0.368 0.726,0.469c0.277,0.101 0.574,0.151 0.891,0.151l0.008,0c0.464,0 0.862,-0.115 1.195,-0.346c0.335,-0.231 0.56,-0.548 0.676,-0.944l1.057,-0c-0.178,0.634 -0.522,1.146 -1.034,1.543c-0.51,0.389 -1.155,0.584 -1.935,0.584m-0.079,-6.483c-0.572,-0 -1.059,0.187 -1.464,0.562c-0.406,0.383 -0.649,0.952 -0.729,1.709l4.333,0.008c-0.043,-0.757 -0.262,-1.327 -0.658,-1.709c-0.395,-0.375 -0.888,-0.57 -1.478,-0.57l-0.004,-0" style="fill:#0e274d;fill-rule:nonzero;"/><path d="M51.65,43.929l-0.009,0c-0.555,-0.007 -0.975,-0.158 -1.261,-0.469c-0.285,-0.31 -0.428,-0.735 -0.426,-1.283l0.008,-4.485l-1.004,-0l0.002,-0.851l1.004,0.007l0.069,-1.659l0.911,0.008l-0.002,1.651l1.545,-0l-0.002,0.851l-1.545,-0.007l-0.009,4.514c-0,0.288 0.072,0.505 0.217,0.649c0.145,0.137 0.345,0.209 0.601,0.209c0.123,-0 0.242,-0.007 0.356,-0.015c0.115,-0.014 0.264,-0.043 0.45,-0.086l-0.002,0.836c-0.314,0.087 -0.615,0.13 -0.903,0.13" style="fill:#0e274d;fill-rule:nonzero;"/><path d="M13.871,59.729l-0.017,-0c-0.652,-0 -1.244,-0.116 -1.776,-0.339c-0.533,-0.231 -0.985,-0.555 -1.359,-0.974c-0.373,-0.425 -0.663,-0.944 -0.869,-1.55c-0.206,-0.613 -0.308,-1.298 -0.307,-2.07c0.002,-0.807 0.113,-1.521 0.335,-2.149c0.221,-0.62 0.526,-1.139 0.914,-1.564c0.389,-0.419 0.849,-0.743 1.383,-0.952c0.528,-0.217 1.107,-0.325 1.735,-0.325l0.015,0c0.538,0 1.037,0.08 1.5,0.245c0.462,0.159 0.866,0.375 1.214,0.664c0.347,0.281 0.629,0.613 0.844,0.995c0.214,0.389 0.348,0.808 0.4,1.269l-1.044,-0.007c-0.122,-0.721 -0.442,-1.284 -0.961,-1.687c-0.518,-0.404 -1.17,-0.606 -1.954,-0.606l-0.011,-0c-0.471,-0 -0.908,0.086 -1.31,0.267c-0.405,0.173 -0.757,0.432 -1.052,0.778c-0.296,0.339 -0.528,0.772 -0.696,1.284c-0.168,0.519 -0.253,1.118 -0.255,1.796c-0,0.634 0.08,1.204 0.242,1.701c0.161,0.505 0.388,0.931 0.678,1.277c0.29,0.346 0.635,0.606 1.035,0.786c0.4,0.18 0.838,0.274 1.314,0.274l0.013,-0c0.4,-0 0.772,-0.058 1.117,-0.18c0.348,-0.123 0.65,-0.296 0.906,-0.527c0.256,-0.223 0.466,-0.49 0.629,-0.808c0.163,-0.317 0.264,-0.67 0.299,-1.045l1.044,-0c-0.045,0.469 -0.169,0.908 -0.372,1.327c-0.204,0.411 -0.48,0.779 -0.828,1.096c-0.349,0.317 -0.761,0.562 -1.237,0.75c-0.472,0.18 -0.995,0.274 -1.569,0.274" style="fill:#0e274d;fill-rule:nonzero;"/><path d="M22.317,59.743l-0.008,0c-0.467,0 -0.901,-0.079 -1.301,-0.231c-0.4,-0.158 -0.746,-0.389 -1.035,-0.699c-0.29,-0.31 -0.519,-0.685 -0.685,-1.139c-0.167,-0.447 -0.249,-0.974 -0.248,-1.572c0.001,-0.613 0.087,-1.14 0.261,-1.601c0.172,-0.462 0.406,-0.837 0.702,-1.14c0.296,-0.295 0.642,-0.519 1.038,-0.67c0.395,-0.144 0.822,-0.224 1.278,-0.224l0.004,0c0.458,0 0.887,0.08 1.288,0.231c0.4,0.151 0.745,0.375 1.035,0.685c0.29,0.303 0.519,0.678 0.685,1.132c0.166,0.462 0.249,0.988 0.248,1.601c-0.001,0.599 -0.083,1.125 -0.248,1.579c-0.164,0.455 -0.391,0.83 -0.682,1.132c-0.291,0.31 -0.637,0.534 -1.038,0.693c-0.399,0.151 -0.83,0.223 -1.294,0.223m-0.003,-6.468c-0.323,-0 -0.62,0.058 -0.891,0.18c-0.274,0.115 -0.512,0.296 -0.715,0.534c-0.202,0.238 -0.362,0.533 -0.477,0.887c-0.116,0.346 -0.173,0.757 -0.174,1.226c-0.001,0.468 0.055,0.879 0.169,1.233c0.114,0.353 0.272,0.649 0.474,0.887c0.202,0.238 0.442,0.418 0.719,0.533c0.278,0.123 0.579,0.181 0.904,0.181l0.008,-0c0.323,-0 0.62,-0.058 0.892,-0.173c0.272,-0.123 0.509,-0.296 0.708,-0.534c0.198,-0.238 0.352,-0.534 0.463,-0.887c0.112,-0.353 0.166,-0.764 0.168,-1.233c0.001,-0.476 -0.056,-0.887 -0.17,-1.241c-0.113,-0.353 -0.269,-0.649 -0.467,-0.886c-0.198,-0.238 -0.433,-0.419 -0.705,-0.534c-0.274,-0.115 -0.573,-0.173 -0.899,-0.173l-0.007,-0" style="fill:#0e274d;fill-rule:nonzero;"/><path d="M32.64,59.563l-0.977,-0l0.008,-4.565c0.002,-0.555 -0.141,-0.973 -0.427,-1.254c-0.285,-0.282 -0.692,-0.426 -1.221,-0.426l-0.006,0c-0.245,0 -0.48,0.043 -0.707,0.137c-0.23,0.094 -0.432,0.224 -0.609,0.397c-0.177,0.173 -0.317,0.375 -0.424,0.62c-0.105,0.245 -0.159,0.519 -0.16,0.829l-0.008,4.255l-0.978,-0l0.013,-6.88l0.806,0l0.117,1.032c0.239,-0.404 0.552,-0.707 0.94,-0.916c0.385,-0.202 0.797,-0.31 1.234,-0.31l0.009,-0c0.748,0.007 1.335,0.223 1.762,0.656c0.426,0.432 0.638,1.045 0.637,1.839l-0.009,4.586" style="fill:#0e274d;fill-rule:nonzero;"/><path d="M40.038,59.577l-0.977,0l0.009,-4.564c0.001,-0.556 -0.142,-0.974 -0.427,-1.255c-0.286,-0.281 -0.693,-0.425 -1.222,-0.425l-0.006,-0c-0.245,-0 -0.48,0.043 -0.708,0.137c-0.228,0.093 -0.431,0.223 -0.607,0.396c-0.177,0.173 -0.318,0.375 -0.424,0.62c-0.106,0.245 -0.161,0.52 -0.161,0.83l-0.008,4.254l-0.978,0l0.014,-6.879l0.805,-0l0.118,1.031c0.238,-0.404 0.551,-0.707 0.939,-0.916c0.385,-0.202 0.795,-0.31 1.232,-0.31l0.011,0c0.748,0.007 1.335,0.224 1.762,0.656c0.426,0.433 0.638,1.046 0.637,1.839l-0.009,4.586" style="fill:#0e274d;fill-rule:nonzero;"/><path d="M44.842,59.786l-0.008,0c-0.476,0 -0.916,-0.079 -1.321,-0.23c-0.405,-0.159 -0.752,-0.39 -1.042,-0.7c-0.29,-0.31 -0.519,-0.685 -0.685,-1.139c-0.167,-0.447 -0.249,-0.974 -0.248,-1.572c0.001,-0.591 0.084,-1.118 0.248,-1.565c0.163,-0.454 0.388,-0.836 0.675,-1.147c0.287,-0.31 0.626,-0.54 1.018,-0.692c0.389,-0.151 0.811,-0.231 1.265,-0.231l0.011,0c0.458,0 0.878,0.08 1.261,0.231c0.383,0.152 0.715,0.382 0.996,0.692c0.281,0.318 0.501,0.714 0.659,1.205c0.157,0.49 0.235,1.074 0.234,1.745l-5.364,-0.015c0.017,0.44 0.089,0.83 0.217,1.154c0.127,0.325 0.293,0.599 0.499,0.808c0.207,0.209 0.449,0.368 0.726,0.469c0.278,0.101 0.575,0.151 0.892,0.158l0.006,0c0.464,0 0.863,-0.122 1.197,-0.353c0.335,-0.231 0.56,-0.548 0.675,-0.945l1.057,0.007c-0.178,0.635 -0.522,1.147 -1.033,1.536c-0.51,0.39 -1.155,0.584 -1.935,0.584m-0.081,-6.482c-0.571,-0 -1.057,0.194 -1.462,0.569c-0.406,0.375 -0.649,0.945 -0.73,1.702l4.334,0.007c-0.044,-0.757 -0.262,-1.326 -0.658,-1.701c-0.396,-0.383 -0.889,-0.577 -1.478,-0.577l-0.006,-0" style="fill:#0e274d;fill-rule:nonzero;"/><path d="M52.281,59.801l-0.01,-0c-0.44,-0 -0.851,-0.079 -1.234,-0.231c-0.383,-0.158 -0.715,-0.382 -0.996,-0.685c-0.281,-0.303 -0.503,-0.678 -0.666,-1.125c-0.161,-0.454 -0.242,-0.966 -0.241,-1.55c0.001,-0.592 0.082,-1.111 0.241,-1.572c0.159,-0.462 0.378,-0.844 0.656,-1.154c0.278,-0.317 0.608,-0.555 0.992,-0.714c0.382,-0.166 0.802,-0.245 1.259,-0.245l0.004,-0c0.766,-0 1.408,0.195 1.926,0.584c0.52,0.389 0.836,0.923 0.949,1.594l-1.083,-0c-0.088,-0.426 -0.287,-0.758 -0.6,-0.988c-0.312,-0.238 -0.701,-0.354 -1.168,-0.354l-0.003,0c-0.308,0 -0.59,0.058 -0.849,0.166c-0.26,0.116 -0.488,0.296 -0.682,0.534c-0.194,0.231 -0.344,0.533 -0.45,0.901c-0.107,0.368 -0.16,0.793 -0.162,1.291c-0.001,0.469 0.056,0.873 0.17,1.212c0.114,0.338 0.268,0.62 0.46,0.836c0.194,0.224 0.421,0.389 0.68,0.498c0.259,0.115 0.535,0.165 0.825,0.165l0.005,0c0.482,0 0.891,-0.129 1.225,-0.389c0.334,-0.267 0.538,-0.627 0.609,-1.082l1.057,0c-0.053,0.325 -0.159,0.628 -0.318,0.909c-0.16,0.288 -0.365,0.526 -0.616,0.735c-0.251,0.21 -0.545,0.368 -0.879,0.491c-0.333,0.115 -0.7,0.173 -1.101,0.173" style="fill:#0e274d;fill-rule:nonzero;"/><path d="M58.723,59.815l-0.005,0c-0.555,0 -0.975,-0.158 -1.261,-0.468c-0.285,-0.31 -0.428,-0.736 -0.426,-1.284l0.008,-4.485l-1.004,-0l0.002,-0.844l1.004,0l0.069,-1.651l0.911,-0l-0.002,1.651l1.546,0.007l-0.003,0.844l-1.545,-0l-0.009,4.507c-0,0.296 0.072,0.512 0.217,0.649c0.145,0.144 0.345,0.216 0.6,0.216c0.124,0 0.243,-0.007 0.357,-0.021c0.115,-0.015 0.264,-0.044 0.45,-0.087l-0.002,0.837c-0.316,0.086 -0.618,0.129 -0.907,0.129" style="fill:#0e274d;fill-rule:nonzero;"/><path d="M63.72,59.823l-0.008,-0c-0.476,-0 -0.915,-0.08 -1.32,-0.231c-0.406,-0.159 -0.753,-0.39 -1.043,-0.7c-0.29,-0.31 -0.518,-0.685 -0.685,-1.139c-0.166,-0.447 -0.249,-0.974 -0.248,-1.572c0.002,-0.591 0.084,-1.118 0.248,-1.572c0.164,-0.454 0.389,-0.829 0.676,-1.139c0.286,-0.311 0.626,-0.541 1.018,-0.693c0.389,-0.151 0.811,-0.23 1.264,-0.23l0.011,-0c0.458,-0 0.878,0.079 1.261,0.23c0.383,0.152 0.715,0.382 0.997,0.693c0.281,0.317 0.501,0.713 0.658,1.204c0.158,0.49 0.235,1.074 0.235,1.745l-5.364,-0.015c0.017,0.44 0.089,0.83 0.216,1.154c0.127,0.325 0.294,0.599 0.5,0.808c0.206,0.209 0.449,0.368 0.726,0.469c0.277,0.101 0.574,0.151 0.892,0.158l0.005,0c0.464,0 0.863,-0.122 1.197,-0.353c0.336,-0.231 0.561,-0.548 0.676,-0.945l1.057,0.007c-0.178,0.635 -0.522,1.147 -1.034,1.536c-0.51,0.39 -1.155,0.585 -1.935,0.585m-0.08,-6.483c-0.571,-0 -1.058,0.194 -1.462,0.569c-0.406,0.375 -0.649,0.945 -0.731,1.702l4.334,0.007c-0.043,-0.757 -0.261,-1.326 -0.657,-1.701c-0.396,-0.383 -0.889,-0.577 -1.479,-0.577l-0.005,-0" style="fill:#0e274d;fill-rule:nonzero;"/><path d="M70.984,59.837l-0.006,-0c-0.414,-0 -0.802,-0.079 -1.161,-0.231c-0.362,-0.158 -0.676,-0.382 -0.944,-0.685c-0.269,-0.303 -0.479,-0.67 -0.633,-1.118c-0.153,-0.447 -0.228,-0.966 -0.228,-1.557c0.002,-0.613 0.08,-1.154 0.235,-1.623c0.155,-0.461 0.367,-0.843 0.637,-1.146c0.268,-0.303 0.589,-0.534 0.959,-0.685c0.366,-0.152 0.764,-0.231 1.192,-0.231l0.01,-0c0.546,-0 1.008,0.115 1.386,0.346c0.379,0.231 0.678,0.534 0.897,0.901l0.007,-3.692l0.991,0.008l-0.018,9.518l-0.806,0l-0.17,-1.139c-0.229,0.397 -0.54,0.721 -0.933,0.966c-0.391,0.245 -0.863,0.368 -1.415,0.368m0.214,-6.44c-0.316,0 -0.605,0.058 -0.869,0.166c-0.264,0.116 -0.491,0.296 -0.68,0.534c-0.191,0.231 -0.341,0.534 -0.452,0.894c-0.11,0.361 -0.166,0.786 -0.167,1.269c-0.001,0.462 0.053,0.858 0.163,1.205c0.109,0.346 0.26,0.627 0.454,0.858c0.193,0.223 0.419,0.396 0.679,0.512c0.26,0.108 0.543,0.165 0.852,0.165l0.007,0c0.315,0 0.605,-0.057 0.872,-0.173c0.268,-0.115 0.502,-0.295 0.701,-0.526c0.198,-0.231 0.353,-0.526 0.464,-0.865c0.111,-0.346 0.166,-0.743 0.168,-1.19c0.001,-0.938 -0.2,-1.644 -0.605,-2.127c-0.403,-0.484 -0.931,-0.722 -1.583,-0.722l-0.004,0" style="fill:#0e274d;fill-rule:nonzero;"/></g></g><g><g><path d="M221.939,48.38c-0.044,23.204 -18.865,41.974 -42.037,41.931c-23.172,-0.043 -41.922,-18.886 -41.878,-42.091c0.044,-23.203 18.865,-41.978 42.038,-41.934c23.172,0.044 41.921,18.89 41.877,42.094" style="fill:#e8ebf1;fill-rule:nonzero;"/><path d="M176.687,43.702l-1.031,-0.002l0.018,-9.525l1.031,0.002l-0.018,9.525" style="fill:#0e274d;fill-rule:nonzero;"/><path d="M182.129,43.712l-1.044,-0.002l0.017,-8.599l-3.171,-0.005l0.002,-0.926l7.411,0.014l-0.001,0.926l-3.197,-0.006l-0.017,8.598" style="fill:#0e274d;fill-rule:nonzero;"/><path d="M157.131,59.539l-5.773,-0.011l0.018,-9.524l5.773,0.011l-0.002,0.886l-4.742,-0.009l-0.006,3.36l4.359,0.009l-0.001,0.873l-4.36,-0.009l-0.007,3.519l4.742,0.009l-0.001,0.886" style="fill:#0e274d;fill-rule:nonzero;"/><path d="M161.139,59.746l-0.006,0c-0.836,-0.003 -1.504,-0.193 -2,-0.573c-0.497,-0.38 -0.78,-0.889 -0.849,-1.523l1.004,0.002c0.069,0.423 0.263,0.745 0.579,0.966c0.316,0.222 0.744,0.333 1.281,0.334l0.003,0c0.58,0 1.017,-0.123 1.312,-0.368c0.295,-0.247 0.444,-0.538 0.445,-0.873c-0,-0.212 -0.046,-0.39 -0.138,-0.536c-0.092,-0.145 -0.227,-0.272 -0.402,-0.378c-0.176,-0.106 -0.396,-0.196 -0.66,-0.272c-0.264,-0.076 -0.573,-0.148 -0.925,-0.219c-0.748,-0.152 -1.309,-0.383 -1.683,-0.692c-0.373,-0.309 -0.56,-0.728 -0.559,-1.257c0.001,-0.556 0.22,-1.011 0.657,-1.363c0.434,-0.349 1.073,-0.524 1.92,-0.524l0.016,0c0.748,0.002 1.367,0.176 1.855,0.526c0.488,0.349 0.784,0.828 0.889,1.436l-1.004,-0.002c-0.069,-0.353 -0.257,-0.637 -0.56,-0.853c-0.303,-0.217 -0.706,-0.327 -1.208,-0.327l-0.008,-0c-0.533,-0 -0.925,0.098 -1.175,0.295c-0.252,0.199 -0.378,0.438 -0.378,0.721c0,0.158 0.026,0.3 0.079,0.423c0.052,0.124 0.145,0.234 0.276,0.331c0.132,0.098 0.313,0.184 0.541,0.26c0.23,0.075 0.515,0.148 0.859,0.219c0.422,0.089 0.796,0.189 1.122,0.3c0.326,0.111 0.599,0.251 0.818,0.418c0.22,0.168 0.387,0.367 0.501,0.597c0.114,0.229 0.171,0.507 0.17,0.833c-0,0.291 -0.062,0.565 -0.186,0.821c-0.124,0.254 -0.305,0.477 -0.543,0.666c-0.238,0.189 -0.529,0.34 -0.873,0.448c-0.342,0.109 -0.733,0.163 -1.17,0.164" style="fill:#0e274d;fill-rule:nonzero;"/><path d="M167.71,59.758l-0.011,-0c-0.837,-0.002 -1.503,-0.193 -2,-0.573c-0.497,-0.379 -0.78,-0.888 -0.849,-1.522l1.003,0.001c0.07,0.424 0.264,0.746 0.58,0.967c0.317,0.221 0.744,0.332 1.281,0.333l0.009,0c0.576,0 1.012,-0.123 1.306,-0.367c0.296,-0.247 0.444,-0.538 0.444,-0.873c0.001,-0.212 -0.045,-0.39 -0.137,-0.536c-0.093,-0.147 -0.227,-0.272 -0.402,-0.378c-0.177,-0.106 -0.396,-0.196 -0.661,-0.272c-0.263,-0.076 -0.571,-0.149 -0.924,-0.22c-0.748,-0.151 -1.309,-0.382 -1.683,-0.691c-0.374,-0.309 -0.56,-0.729 -0.559,-1.258c0.002,-0.556 0.22,-1.01 0.656,-1.362c0.436,-0.35 1.078,-0.525 1.927,-0.525l0.009,-0c0.749,0.001 1.368,0.176 1.856,0.526c0.488,0.35 0.784,0.828 0.889,1.437l-1.004,-0.002c-0.07,-0.353 -0.256,-0.637 -0.56,-0.854c-0.304,-0.216 -0.706,-0.326 -1.208,-0.327l-0.007,-0c-0.534,-0 -0.926,0.099 -1.176,0.296c-0.251,0.198 -0.377,0.438 -0.378,0.72c-0,0.159 0.026,0.301 0.078,0.424c0.053,0.123 0.145,0.234 0.277,0.331c0.132,0.097 0.313,0.184 0.541,0.259c0.23,0.075 0.516,0.149 0.859,0.22c0.423,0.089 0.797,0.189 1.122,0.299c0.326,0.112 0.599,0.25 0.819,0.418c0.219,0.169 0.386,0.367 0.501,0.597c0.114,0.23 0.17,0.508 0.17,0.834c-0.001,0.291 -0.063,0.565 -0.187,0.82c-0.124,0.255 -0.305,0.477 -0.543,0.666c-0.238,0.19 -0.529,0.339 -0.872,0.449c-0.341,0.108 -0.73,0.163 -1.166,0.163" style="fill:#0e274d;fill-rule:nonzero;"/><path d="M174.947,59.771l-0.008,0c-0.475,0 -0.916,-0.079 -1.321,-0.234c-0.405,-0.154 -0.752,-0.387 -1.042,-0.696c-0.29,-0.309 -0.518,-0.689 -0.685,-1.139c-0.166,-0.45 -0.249,-0.974 -0.248,-1.574c0.001,-0.591 0.084,-1.114 0.248,-1.567c0.163,-0.455 0.389,-0.835 0.675,-1.144c0.287,-0.307 0.627,-0.539 1.019,-0.692c0.389,-0.153 0.81,-0.229 1.264,-0.229l0.011,0c0.458,0.001 0.878,0.076 1.261,0.226c0.383,0.151 0.715,0.384 0.997,0.698c0.281,0.313 0.5,0.714 0.658,1.204c0.157,0.49 0.235,1.07 0.235,1.74l-5.364,-0.01c0.017,0.441 0.089,0.825 0.215,1.152c0.128,0.326 0.294,0.595 0.501,0.807c0.206,0.212 0.449,0.369 0.726,0.472c0.277,0.101 0.574,0.152 0.891,0.153l0.005,-0c0.465,-0 0.864,-0.116 1.198,-0.348c0.335,-0.233 0.56,-0.548 0.675,-0.944l1.057,0.001c-0.177,0.635 -0.522,1.148 -1.033,1.54c-0.51,0.39 -1.155,0.584 -1.935,0.584m-0.08,-6.482c-0.572,0 -1.058,0.19 -1.462,0.567c-0.406,0.378 -0.65,0.946 -0.731,1.705l4.334,0.008c-0.043,-0.759 -0.262,-1.328 -0.657,-1.708c-0.396,-0.379 -0.889,-0.571 -1.479,-0.572l-0.005,0" style="fill:#0e274d;fill-rule:nonzero;"/><path d="M185.138,59.592l-0.977,-0.001l0.009,-4.564c0,-0.556 -0.142,-0.975 -0.428,-1.257c-0.285,-0.283 -0.692,-0.425 -1.221,-0.427c-0.246,-0 -0.484,0.046 -0.714,0.138c-0.229,0.092 -0.432,0.224 -0.608,0.396c-0.177,0.171 -0.318,0.379 -0.424,0.621c-0.106,0.242 -0.16,0.518 -0.16,0.826l-0.008,4.26l-0.978,-0.002l0.013,-6.879l0.806,0.002l0.118,1.031c0.238,-0.404 0.55,-0.711 0.939,-0.918c0.386,-0.204 0.798,-0.308 1.237,-0.308l0.005,0c0.748,0.002 1.336,0.219 1.763,0.652c0.426,0.433 0.638,1.047 0.637,1.84l-0.009,4.59" style="fill:#0e274d;fill-rule:nonzero;"/><path d="M189.004,59.799l-0.009,-0c-0.555,-0.002 -0.975,-0.157 -1.26,-0.467c-0.286,-0.308 -0.428,-0.736 -0.427,-1.283l0.009,-4.485l-1.005,-0.002l0.002,-0.846l1.004,0.002l0.069,-1.654l0.912,0.002l-0.003,1.654l1.545,0.002l-0.001,0.847l-1.546,-0.003l-0.009,4.511c0,0.291 0.072,0.507 0.217,0.648c0.145,0.143 0.346,0.213 0.601,0.213c0.123,0 0.242,-0.005 0.357,-0.018c0.114,-0.014 0.264,-0.042 0.449,-0.086l-0.002,0.834c-0.314,0.086 -0.615,0.131 -0.903,0.131" style="fill:#0e274d;fill-rule:nonzero;"/><path d="M192.1,59.605l-0.991,-0.002l0.014,-6.878l0.99,0.002l-0.013,6.878m0.082,-8.294l-1.123,-0.002l0.002,-1.23l1.123,0.002l-0.002,1.23" style="fill:#0e274d;fill-rule:nonzero;"/><path d="M195.961,59.812l-0.003,-0c-0.713,-0.001 -1.282,-0.182 -1.704,-0.54c-0.422,-0.357 -0.632,-0.832 -0.631,-1.422c0.001,-0.61 0.202,-1.096 0.604,-1.461c0.401,-0.366 1.073,-0.626 2.016,-0.784l2.048,-0.339l0.001,-0.477c0.001,-0.458 -0.15,-0.818 -0.453,-1.079c-0.304,-0.261 -0.733,-0.392 -1.288,-0.393l-0.006,-0c-0.525,-0 -0.933,0.114 -1.223,0.342c-0.291,0.229 -0.459,0.537 -0.504,0.925l-1.03,-0.002c0.062,-0.617 0.343,-1.112 0.841,-1.487c0.497,-0.373 1.148,-0.559 1.955,-0.559l0.008,0c0.837,0.002 1.492,0.213 1.967,0.633c0.475,0.42 0.712,0.982 0.711,1.687l-0.01,4.763l-0.805,-0.001l-0.117,-1.045c-0.221,0.334 -0.528,0.625 -0.92,0.871c-0.392,0.245 -0.878,0.368 -1.457,0.368m2.329,-3.766l-1.784,0.301c-0.362,0.06 -0.661,0.135 -0.899,0.223c-0.238,0.088 -0.428,0.191 -0.569,0.31c-0.141,0.119 -0.241,0.251 -0.298,0.396c-0.057,0.145 -0.086,0.307 -0.087,0.483c0,0.396 0.138,0.698 0.415,0.907c0.277,0.208 0.653,0.311 1.129,0.312l0.007,0c0.253,0 0.504,-0.045 0.753,-0.137c0.251,-0.092 0.476,-0.22 0.674,-0.383c0.199,-0.161 0.357,-0.358 0.477,-0.588c0.119,-0.228 0.18,-0.475 0.18,-0.739l0.002,-1.085" style="fill:#0e274d;fill-rule:nonzero;"/><path d="M202.115,59.625l-0.978,-0.002l0.018,-9.525l0.978,0.002l-0.018,9.525" style="fill:#0e274d;fill-rule:nonzero;"/><path d="M206.399,59.832l-0.005,-0c-0.837,-0.002 -1.503,-0.193 -2,-0.573c-0.498,-0.38 -0.78,-0.889 -0.849,-1.523l1.003,0.002c0.07,0.423 0.264,0.745 0.58,0.966c0.316,0.221 0.744,0.333 1.281,0.334l0.006,-0c0.578,-0 1.014,-0.123 1.309,-0.369c0.296,-0.245 0.444,-0.537 0.444,-0.872c0.001,-0.212 -0.045,-0.39 -0.137,-0.536c-0.093,-0.146 -0.227,-0.272 -0.403,-0.377c-0.176,-0.107 -0.396,-0.198 -0.66,-0.273c-0.264,-0.076 -0.572,-0.148 -0.924,-0.22c-0.749,-0.151 -1.31,-0.382 -1.683,-0.691c-0.374,-0.309 -0.56,-0.728 -0.559,-1.258c0.001,-0.556 0.22,-1.01 0.656,-1.362c0.434,-0.348 1.075,-0.524 1.921,-0.524l0.015,-0c0.749,0.001 1.368,0.176 1.856,0.526c0.488,0.349 0.784,0.828 0.889,1.436l-1.004,-0.001c-0.071,-0.354 -0.257,-0.637 -0.56,-0.854c-0.304,-0.217 -0.706,-0.326 -1.208,-0.327l-0.011,0c-0.532,0 -0.923,0.098 -1.172,0.295c-0.252,0.198 -0.378,0.439 -0.378,0.72c-0,0.159 0.026,0.3 0.078,0.424c0.053,0.124 0.145,0.234 0.277,0.331c0.132,0.098 0.313,0.184 0.541,0.259c0.229,0.075 0.515,0.149 0.859,0.22c0.422,0.089 0.796,0.188 1.122,0.3c0.326,0.111 0.599,0.25 0.818,0.418c0.22,0.169 0.387,0.367 0.501,0.597c0.115,0.228 0.171,0.507 0.17,0.833c-0.001,0.291 -0.063,0.565 -0.186,0.82c-0.124,0.255 -0.305,0.478 -0.544,0.667c-0.238,0.19 -0.528,0.339 -0.871,0.448c-0.343,0.109 -0.734,0.164 -1.172,0.164" style="fill:#0e274d;fill-rule:nonzero;"/></g><g><path d="M236.419,20.92c3.804,0.025 6.922,-3.054 6.955,-6.866c0.034,-3.856 -3.028,-6.983 -6.867,-7.015c-3.842,-0.033 -6.968,3.052 -6.987,6.894c-0.019,3.856 3.048,6.962 6.899,6.987Zm0.085,-18.898c0.583,0.933 1.166,1.866 1.769,2.833c0.929,-0.646 1.83,-1.273 2.769,-1.927c0.2,1.127 0.392,2.205 0.59,3.315c1.101,-0.239 2.162,-0.468 3.28,-0.71c-0.242,1.109 -0.476,2.176 -0.718,3.285c1.099,0.2 2.176,0.395 3.302,0.6c-0.647,0.93 -1.275,1.831 -1.922,2.759c0.943,0.609 1.866,1.206 2.822,1.823c-0.949,0.609 -1.874,1.203 -2.829,1.815c0.639,0.924 1.265,1.827 1.913,2.765c-1.12,0.199 -2.198,0.391 -3.308,0.588c0.237,1.099 0.468,2.17 0.71,3.288c-1.066,-0.234 -2.091,-0.458 -3.18,-0.697c1.284,3.736 2.544,7.404 3.834,11.162c-1.526,-1.131 -2.981,-2.208 -4.478,-3.317c-0.53,1.797 -1.048,3.55 -1.566,5.303l-0.068,-0c-0.993,-2.886 -1.984,-5.771 -3,-8.724c-1.026,2.948 -2.03,5.83 -3.033,8.713l-0.07,-0.003c-0.509,-1.749 -1.017,-3.498 -1.543,-5.307c-1.492,1.097 -2.953,2.172 -4.492,3.303c1.302,-3.742 2.575,-7.402 3.877,-11.146c-1.082,0.232 -2.104,0.45 -3.18,0.68c0.242,-1.103 0.476,-2.172 0.72,-3.281c-1.093,-0.2 -2.172,-0.397 -3.306,-0.604c0.647,-0.926 1.274,-1.823 1.926,-2.755c-0.938,-0.607 -1.86,-1.202 -2.824,-1.828c0.953,-0.609 1.874,-1.199 2.829,-1.81c-0.635,-0.919 -1.259,-1.822 -1.913,-2.767c1.113,-0.198 2.189,-0.389 3.306,-0.588c-0.235,-1.09 -0.465,-2.161 -0.706,-3.285c1.105,0.242 2.173,0.475 3.279,0.717c0.2,-1.103 0.394,-2.175 0.6,-3.307c0.931,0.65 1.834,1.282 2.764,1.931c0.608,-0.963 1.195,-1.894 1.782,-2.825l0.064,0.001" style="fill:#e8ebf1;fill-rule:nonzero;"/><path d="M238.48,17.648l-2.037,-1.5l-2.043,1.492l0.278,-2.516l-2.311,-1.027l2.315,-1.017l-0.268,-2.518l2.037,1.5l2.043,-1.492l-0.278,2.516l2.312,1.027l-2.316,1.016l0.268,2.519Zm-2.019,-9.544c-3.223,-0.008 -5.878,2.635 -5.885,5.859c-0.006,3.227 2.63,5.88 5.856,5.89c3.219,0.011 5.883,-2.642 5.886,-5.86c0.004,-3.229 -2.633,-5.88 -5.857,-5.889" style="fill:#e8ebf1;fill-rule:nonzero;"/></g><g><path d="M260.397,3.098c-2.05,0 -4.1,0.779 -5.663,2.339c-1.578,1.576 -2.417,3.59 -2.421,5.737c-0.005,2.148 0.825,4.166 2.339,5.686c3.121,3.138 8.213,3.147 11.348,0.022c3.194,-3.187 3.204,-8.284 0.082,-11.424c-1.566,-1.574 -3.625,-2.36 -5.685,-2.36m-0.082,17.201c-2.337,0 -4.663,-0.893 -6.432,-2.672c-1.717,-1.725 -2.661,-4.018 -2.656,-6.454c0.005,-2.437 0.957,-4.726 2.679,-6.446c3.622,-3.607 9.401,-3.597 12.946,-0.036c3.543,3.563 3.532,9.351 -0.024,12.902c-1.814,1.806 -4.17,2.706 -6.513,2.706" style="fill:#e8ebf1;fill-rule:nonzero;"/><path d="M264.231,16.815l-3.871,-2.047l-3.878,2.032l0.748,-4.319l-3.128,-3.066l4.332,-0.621l1.945,-3.927l1.93,3.934l4.331,0.639l-3.141,3.053l0.732,4.322" style="fill:#e8ebf1;fill-rule:nonzero;"/></g></g><g><g><path d="M390.162,48.377c-0.044,23.204 -18.864,41.978 -42.036,41.934c-23.173,-0.044 -41.922,-18.89 -41.878,-42.093c0.044,-23.204 18.865,-41.978 42.037,-41.934c23.172,0.044 41.921,18.89 41.877,42.093" style="fill:#00bcea;fill-rule:nonzero;"/><path d="M340.174,52.439l-0.019,9.525l-1.03,-0.003l0.018,-9.524l1.031,0.002" style="fill:#0e274d;fill-rule:nonzero;"/><path d="M348.811,53.382l-3.196,-0.007l-0.017,8.599l-1.044,-0.003l0.016,-8.598l-3.17,-0.006l0.002,-0.926l7.412,0.015l-0.003,0.926" style="fill:#0e274d;fill-rule:nonzero;"/><path d="M357.414,52.472l-0.019,9.524l-1.281,-0.002l-5.123,-8.291l-0.016,8.281l-0.951,-0.002l0.018,-9.525l1.334,0.003l5.083,8.225l0.016,-8.215l0.939,0.002" style="fill:#0e274d;fill-rule:nonzero;"/><path d="M334.588,43.773c-0.652,-0.001 -1.244,-0.115 -1.776,-0.341c-0.533,-0.225 -0.986,-0.551 -1.359,-0.975c-0.373,-0.424 -0.663,-0.94 -0.868,-1.549c-0.207,-0.609 -0.308,-1.297 -0.308,-2.064c0.002,-0.811 0.114,-1.528 0.335,-2.15c0.221,-0.621 0.526,-1.143 0.914,-1.565c0.389,-0.423 0.85,-0.742 1.383,-0.956c0.533,-0.215 1.117,-0.323 1.751,-0.321c0.537,0 1.037,0.081 1.499,0.241c0.462,0.159 0.866,0.381 1.214,0.664c0.348,0.282 0.629,0.615 0.844,0.999c0.215,0.385 0.348,0.806 0.4,1.265l-1.043,-0.002c-0.122,-0.723 -0.443,-1.286 -0.962,-1.689c-0.519,-0.402 -1.17,-0.604 -1.954,-0.605c-0.475,-0.001 -0.916,0.086 -1.321,0.262c-0.405,0.176 -0.756,0.435 -1.052,0.778c-0.296,0.344 -0.528,0.774 -0.696,1.289c-0.169,0.515 -0.253,1.113 -0.255,1.791c-0.001,0.636 0.08,1.205 0.242,1.708c0.162,0.503 0.388,0.927 0.678,1.271c0.29,0.344 0.634,0.607 1.035,0.789c0.401,0.182 0.838,0.273 1.314,0.273c0.406,0.001 0.782,-0.059 1.13,-0.183c0.349,-0.122 0.65,-0.296 0.906,-0.52c0.256,-0.225 0.466,-0.496 0.629,-0.813c0.163,-0.317 0.264,-0.665 0.299,-1.044l1.044,0.002c-0.045,0.467 -0.169,0.908 -0.372,1.322c-0.204,0.414 -0.479,0.779 -0.828,1.097c-0.349,0.316 -0.761,0.567 -1.236,0.752c-0.476,0.184 -1.006,0.275 -1.587,0.274" style="fill:#0e274d;fill-rule:nonzero;"/><path d="M343.888,43.791c-0.651,-0.002 -1.243,-0.116 -1.775,-0.341c-0.533,-0.226 -0.986,-0.551 -1.359,-0.975c-0.374,-0.424 -0.664,-0.941 -0.869,-1.549c-0.206,-0.61 -0.308,-1.298 -0.307,-2.065c0.002,-0.811 0.113,-1.528 0.334,-2.149c0.221,-0.621 0.527,-1.143 0.915,-1.565c0.388,-0.423 0.849,-0.742 1.383,-0.957c0.532,-0.215 1.117,-0.322 1.75,-0.321c0.538,0.001 1.037,0.081 1.5,0.242c0.462,0.159 0.866,0.38 1.214,0.663c0.347,0.283 0.628,0.617 0.844,1c0.215,0.385 0.348,0.806 0.4,1.264l-1.044,-0.002c-0.121,-0.722 -0.442,-1.286 -0.961,-1.688c-0.519,-0.402 -1.17,-0.604 -1.954,-0.606c-0.476,-0 -0.916,0.087 -1.321,0.262c-0.406,0.176 -0.757,0.436 -1.052,0.779c-0.297,0.343 -0.528,0.773 -0.697,1.288c-0.168,0.516 -0.253,1.114 -0.254,1.792c-0.001,0.636 0.079,1.204 0.241,1.707c0.162,0.504 0.388,0.927 0.678,1.272c0.291,0.344 0.635,0.607 1.036,0.788c0.401,0.182 0.838,0.273 1.313,0.274c0.406,0.001 0.782,-0.06 1.13,-0.183c0.349,-0.122 0.651,-0.296 0.907,-0.521c0.255,-0.224 0.465,-0.495 0.629,-0.812c0.163,-0.317 0.263,-0.665 0.299,-1.044l1.043,0.002c-0.044,0.467 -0.168,0.908 -0.372,1.322c-0.204,0.414 -0.479,0.779 -0.828,1.096c-0.349,0.317 -0.76,0.567 -1.236,0.752c-0.476,0.184 -1.005,0.275 -1.587,0.275" style="fill:#0e274d;fill-rule:nonzero;"/><path d="M356.92,34.093l-0.018,9.524l-1.281,-0.003l-5.124,-8.291l-0.016,8.282l-0.951,-0.002l0.018,-9.524l1.335,0.002l5.083,8.224l0.016,-8.215l0.938,0.003" style="fill:#0e274d;fill-rule:nonzero;"/><path d="M360.423,40.21l4.003,0.008l-1.973,-5.083l-2.03,5.075Zm5.33,3.424l-0.986,-2.555l-4.677,-0.009l-1.022,2.551l-1.083,-0.002l3.876,-9.517l1.215,0.002l3.827,9.532l-1.15,-0.002" style="fill:#0e274d;fill-rule:nonzero;"/></g><g><path d="M304.717,15.434c1.521,1.528 3.545,2.373 5.699,2.377l0.016,0c2.148,0 4.168,-0.836 5.691,-2.354c1.527,-1.523 2.37,-3.55 2.374,-5.708c0.004,-2.157 -0.831,-4.187 -2.352,-5.714c-3.138,-3.156 -8.255,-3.167 -11.407,-0.022c-3.15,3.143 -3.16,8.267 -0.021,11.422l-0,-0.001Zm5.715,3.466l-0.018,0c-2.445,-0.004 -4.743,-0.962 -6.468,-2.695l-0,-0.002c-3.562,-3.579 -3.551,-9.396 0.024,-12.964c3.576,-3.567 9.384,-3.555 12.947,0.027c1.725,1.734 2.673,4.037 2.668,6.486c-0.004,2.448 -0.962,4.749 -2.693,6.476c-1.728,1.725 -4.022,2.672 -6.46,2.672" style="fill:#00bcea;fill-rule:nonzero;"/><path d="M316.385,7.17l-1.335,5.96c-0.181,0.812 -0.903,1.39 -1.735,1.389c-0.812,-0.003 -1.516,-0.564 -1.698,-1.357l-1.125,-4.887l-1.089,4.903c-0.174,0.778 -0.864,1.331 -1.659,1.33c-0.799,-0.002 -1.493,-0.552 -1.677,-1.331l-1.411,-5.947c-0.181,-0.765 0.4,-1.499 1.185,-1.497l0.032,-0c0.61,0.001 1.125,0.431 1.228,1.026c0.293,1.675 0.843,4.813 0.843,4.813l1.035,-4.583c0.165,-0.731 0.814,-1.249 1.561,-1.248l0.034,0c0.767,0.002 1.427,0.526 1.601,1.267c0.409,1.73 1.097,4.623 1.097,4.623l0.832,-4.911c0.095,-0.561 0.581,-0.971 1.149,-0.969c0.744,0.001 1.295,0.692 1.132,1.419" style="fill:#00bcea;fill-rule:nonzero;"/></g><g><path d="M380.274,15.062c1.512,1.519 3.526,2.36 5.67,2.363l0.015,0c2.138,0 4.148,-0.831 5.662,-2.342c1.58,-1.575 2.419,-3.591 2.423,-5.738c0.003,-2.147 -0.827,-4.166 -2.34,-5.685c-3.12,-3.137 -8.213,-3.15 -11.348,-0.023c-3.195,3.187 -3.204,8.286 -0.082,11.425m5.685,3.45l-0.018,0c-2.433,-0.004 -4.719,-0.957 -6.437,-2.682c-3.543,-3.565 -3.533,-9.353 0.025,-12.903c3.622,-3.609 9.401,-3.599 12.944,-0.035c1.718,1.727 2.66,4.019 2.656,6.455c-0.004,2.436 -0.957,4.725 -2.68,6.445c-1.78,1.777 -4.063,2.72 -6.49,2.72" style="fill:#00bcea;fill-rule:nonzero;"/><path d="M389.853,15.015l-3.871,-2.046l-3.878,2.032l0.747,-4.319l-3.128,-3.065l4.333,-0.622l1.945,-3.927l1.929,3.934l4.331,0.639l-3.14,3.053l0.732,4.321" style="fill:#00bcea;fill-rule:nonzero;"/></g></g></g></svg>