<?xml version="1.0" encoding="UTF-8" standalone="no"?><!DOCTYPE svg PUBLIC "-//W3C//DTD SVG 1.1//EN" "http://www.w3.org/Graphics/SVG/1.1/DTD/svg11.dtd"><svg width="100%" height="100%" viewBox="0 0 1200 1142" version="1.1" xmlns="http://www.w3.org/2000/svg" xmlns:xlink="http://www.w3.org/1999/xlink" xml:space="preserve" xmlns:serif="http://www.serif.com/" style="fill-rule:evenodd;clip-rule:evenodd;stroke-linecap:round;stroke-linejoin:round;stroke-miterlimit:1.5;"><g id="roundIconPlaceholder"><g><ellipse cx="599.065" cy="570.847" rx="598.533" ry="570.309" style="fill:url(#_Linear1);"/><ellipse cx="599.065" cy="570.847" rx="475.608" ry="453.18" style="fill:url(#_Linear2);"/></g><g id="i"><g><path d="M601.065,783.718l74.139,0c55.112,0 82.668,19.465 82.668,58.393c-0,26.681 -9.732,47.458 -29.196,62.329c-19.465,14.872 -46.693,22.307 -81.684,22.307l-104.32,0c-38.491,0 -68.78,-7.873 -90.869,-23.619c-22.089,-15.746 -33.133,-37.179 -33.133,-64.298c0,-14.434 4.593,-32.804 13.778,-55.112l108.256,-266.375l7.217,-18.37c20.12,-49.426 52.488,-74.139 97.102,-74.139c18.371,-0 34.227,6.123 47.567,18.37c13.341,12.248 20.011,26.9 20.011,43.959c0,13.997 -5.905,35.429 -17.714,64.297l-93.822,232.258Zm86.605,-568.179c25.369,-0 46.91,8.857 64.625,26.572c17.715,17.714 26.572,39.256 26.572,64.625c-0,25.369 -8.857,46.911 -26.572,64.626c-17.715,17.714 -39.256,26.572 -64.625,26.572c-25.369,-0 -46.911,-8.858 -64.626,-26.572c-17.715,-17.715 -26.572,-39.257 -26.572,-64.626c0,-25.369 8.857,-46.911 26.572,-64.625c17.715,-17.715 39.257,-26.572 64.626,-26.572Z" style="fill-opacity:0;fill-rule:nonzero;"/><path d="M601.065,783.718l74.139,0c55.112,0 82.668,19.465 82.668,58.393c-0,26.681 -9.732,47.458 -29.196,62.329c-19.465,14.872 -46.693,22.307 -81.684,22.307l-104.32,0c-38.491,0 -68.78,-7.873 -90.869,-23.619c-22.089,-15.746 -33.133,-37.179 -33.133,-64.298c0,-14.434 4.593,-32.804 13.778,-55.112l108.256,-266.375l7.217,-18.37c20.12,-49.426 52.488,-74.139 97.102,-74.139c18.371,-0 34.227,6.123 47.567,18.37c13.341,12.248 20.011,26.9 20.011,43.959c0,13.997 -5.905,35.429 -17.714,64.297l-93.822,232.258Zm-18.769,-7.582c-2.521,6.24 -1.776,13.324 1.987,18.902c3.763,5.579 10.053,8.923 16.782,8.923l74.139,0c39.837,0 62.425,10.011 62.425,38.15c0,19.727 -6.852,35.248 -21.243,46.244c-16.488,12.598 -39.753,18.15 -69.394,18.15l-104.32,-0c-33.442,-0 -59.927,-6.18 -79.119,-19.86c-16.426,-11.71 -24.64,-27.648 -24.64,-47.815c-0,-12.44 4.336,-28.178 12.253,-47.404c0.012,-0.029 0.024,-0.058 0.035,-0.086l108.256,-266.375l7.255,-18.463c16.409,-40.238 41.961,-61.426 78.311,-61.426c13.078,0 24.381,4.322 33.878,13.04c8.842,8.118 13.457,17.74 13.457,29.047c0,12.362 -5.776,31.135 -16.207,56.633c-0.011,0.027 -0.022,0.055 -0.034,0.082l-93.821,232.258Zm105.374,-560.597c25.369,-0 46.91,8.857 64.625,26.572c17.715,17.714 26.572,39.256 26.572,64.625c-0,25.369 -8.857,46.911 -26.572,64.626c-17.715,17.714 -39.256,26.572 -64.625,26.572c-25.369,-0 -46.911,-8.858 -64.626,-26.572c-17.715,-17.715 -26.572,-39.257 -26.572,-64.626c0,-25.369 8.857,-46.911 26.572,-64.625c17.715,-17.715 39.257,-26.572 64.626,-26.572Zm-0,20.243c19.744,-0 36.524,6.856 50.311,20.643c13.787,13.787 20.643,30.567 20.643,50.311c0,19.744 -6.856,36.525 -20.643,50.312c-13.787,13.787 -30.567,20.643 -50.311,20.643c-19.745,-0 -36.525,-6.856 -50.312,-20.643c-13.787,-13.787 -20.643,-30.568 -20.643,-50.312c-0,-19.744 6.856,-36.524 20.643,-50.311c13.787,-13.787 30.567,-20.643 50.312,-20.643Z" style="fill:url(#_Linear3);"/><path d="M628.172,500.828c-0,-0 -59.582,156.806 -108.417,275.858c-18.324,44.671 -39.485,78.878 42.27,76.01c40.233,-0 67.984,0.746 116.683,-0" style="fill:none;stroke:url(#_Linear4);stroke-width:26.03px;"/></g><path d="M687.71,214.946c50.638,0 91.75,41.112 91.75,91.75c-0,50.638 -41.112,91.749 -91.75,91.749c-50.638,0 -91.75,-41.111 -91.75,-91.749c0,-50.638 41.112,-91.75 91.75,-91.75Zm0,24.98c36.851,-0 66.77,29.919 66.77,66.77c0,36.851 -29.919,66.77 -66.77,66.77c-36.851,-0 -66.77,-29.919 -66.77,-66.77c0,-36.851 29.919,-66.77 66.77,-66.77Z" style="fill:url(#_Linear5);"/></g></g><defs><linearGradient id="_Linear1" x1="0" y1="0" x2="1" y2="0" gradientUnits="userSpaceOnUse" gradientTransform="matrix(1091.78,531.712,-506.639,1040.3,61.7152,327.262)"><stop offset="0" style="stop-color:#00b3de;stop-opacity:1"/><stop offset="1" style="stop-color:#007f9e;stop-opacity:1"/></linearGradient><linearGradient id="_Linear2" x1="0" y1="0" x2="1" y2="0" gradientUnits="userSpaceOnUse" gradientTransform="matrix(1112.36,279.307,-266.136,1059.91,85.2358,406.203)"><stop offset="0" style="stop-color:#007996;stop-opacity:1"/><stop offset="1" style="stop-color:#00bcea;stop-opacity:1"/></linearGradient><linearGradient id="_Linear3" x1="0" y1="0" x2="1" y2="0" gradientUnits="userSpaceOnUse" gradientTransform="matrix(-352.125,-154.154,154.154,-352.125,729.684,810.347)"><stop offset="0" style="stop-color:#4e0094;stop-opacity:1"/><stop offset="0.3" style="stop-color:#6b00ce;stop-opacity:1"/><stop offset="1" style="stop-color:#d500f2;stop-opacity:1"/></linearGradient><linearGradient id="_Linear4" x1="0" y1="0" x2="1" y2="0" gradientUnits="userSpaceOnUse" gradientTransform="matrix(-352.125,-154.154,154.154,-352.125,729.684,810.347)"><stop offset="0" style="stop-color:#4e0094;stop-opacity:1"/><stop offset="0.3" style="stop-color:#6b00ce;stop-opacity:1"/><stop offset="1" style="stop-color:#d500f2;stop-opacity:1"/></linearGradient><linearGradient id="_Linear5" x1="0" y1="0" x2="1" y2="0" gradientUnits="userSpaceOnUse" gradientTransform="matrix(-309.338,-124.819,124.819,-309.338,851.534,398.445)"><stop offset="0" style="stop-color:#49226d;stop-opacity:1"/><stop offset="0.28" style="stop-color:#53009e;stop-opacity:1"/><stop offset="1" style="stop-color:#e100ff;stop-opacity:1"/></linearGradient></defs></svg>