<?xml version="1.0" encoding="UTF-8" standalone="no"?><!DOCTYPE svg PUBLIC "-//W3C//DTD SVG 1.1//EN" "http://www.w3.org/Graphics/SVG/1.1/DTD/svg11.dtd"><svg width="100%" height="100%" viewBox="0 0 442 442" version="1.1" xmlns="http://www.w3.org/2000/svg" xmlns:xlink="http://www.w3.org/1999/xlink" xml:space="preserve" xmlns:serif="http://www.serif.com/" style="fill-rule:evenodd;clip-rule:evenodd;stroke-linejoin:round;stroke-miterlimit:2;"><g id="imgError"><path id="circle" d="M221.077,0.652c121.245,0 219.68,98.436 219.68,219.681c0,121.244 -98.435,219.68 -219.68,219.68c-121.245,-0 -219.68,-98.436 -219.68,-219.68c-0,-121.245 98.435,-219.681 219.68,-219.681Zm0,37.255c100.683,0 182.426,81.742 182.426,182.426c-0,100.683 -81.743,182.425 -182.426,182.425c-100.683,0 -182.425,-81.742 -182.425,-182.425c-0,-100.684 81.742,-182.426 182.425,-182.426Z" style="fill:#00bcff;"/><g id="x"><path d="M330.805,137.167l-26.562,-26.562l-192.894,192.893l26.563,26.562l192.893,-192.893Z" style="fill:#00bcff;"/><path d="M137.912,110.605l-26.563,26.562l192.894,192.893l26.562,-26.562l-192.893,-192.893Z" style="fill:#00bcff;"/></g></g></svg>